<svg width="17" height="17" viewBox="0 0 17 17" fill="none" xmlns="http://www.w3.org/2000/svg">
<path d="M8.20227 4.19242V8.20227H11.2097M14.217 8.20227C14.217 8.99214 14.0615 9.77427 13.7592 10.504C13.4569 11.2338 13.0139 11.8968 12.4553 12.4554C11.8968 13.0139 11.2338 13.4569 10.504 13.7592C9.77427 14.0615 8.99214 14.217 8.20227 14.217C7.4124 14.217 6.63026 14.0615 5.90052 13.7592C5.17077 13.4569 4.50771 13.0139 3.94918 12.4554C3.39066 11.8968 2.94762 11.2338 2.64535 10.504C2.34308 9.77427 2.1875 8.99214 2.1875 8.20227C2.1875 6.60705 2.8212 5.07717 3.94918 3.94918C5.07717 2.8212 6.60705 2.1875 8.20227 2.1875C9.79748 2.1875 11.3274 2.8212 12.4553 3.94918C13.5833 5.07717 14.217 6.60705 14.217 8.20227Z" stroke="white" stroke-width="1.5" stroke-linecap="round" stroke-linejoin="round"/>
</svg>
