<svg width="16" height="15" viewBox="0 0 16 15" fill="none" xmlns="http://www.w3.org/2000/svg">
<path d="M7.25133 1.01259C7.28317 0.934925 7.33739 0.868487 7.4071 0.821728C7.4768 0.774968 7.55884 0.75 7.64278 0.75C7.72672 0.75 7.80876 0.774968 7.87846 0.821728C7.94817 0.868487 8.00239 0.934925 8.03423 1.01259L9.63389 4.86006C9.66383 4.93205 9.71306 4.99438 9.77614 5.04021C9.83923 5.08603 9.91373 5.11356 9.99146 5.11977L14.1453 5.45249C14.5209 5.48261 14.673 5.95159 14.387 6.19624L11.2223 8.90776C11.1631 8.95834 11.1191 9.02422 11.0949 9.09818C11.0707 9.17214 11.0674 9.25133 11.0853 9.32706L12.0526 13.3808C12.072 13.4621 12.0669 13.5474 12.0379 13.6258C12.0089 13.7043 11.9574 13.7723 11.8897 13.8215C11.822 13.8706 11.7413 13.8986 11.6578 13.9019C11.5742 13.9052 11.4916 13.8836 11.4202 13.84L7.86335 11.6682C7.79693 11.6276 7.72061 11.6062 7.64278 11.6062C7.56495 11.6062 7.48863 11.6276 7.42222 11.6682L3.86532 13.8407C3.794 13.8844 3.71134 13.9059 3.62779 13.9026C3.54423 13.8993 3.46353 13.8714 3.39586 13.8222C3.3282 13.7731 3.27662 13.705 3.24763 13.6266C3.21864 13.5481 3.21354 13.4629 3.23299 13.3815L4.20031 9.32706C4.21825 9.25133 4.21495 9.17212 4.19078 9.09814C4.16661 9.02417 4.1225 8.95829 4.0633 8.90776L0.89861 6.19624C0.834881 6.14192 0.788709 6.0699 0.765939 5.98932C0.74317 5.90873 0.744828 5.8232 0.770704 5.74356C0.79658 5.66391 0.845509 5.59374 0.911295 5.54193C0.977081 5.49011 1.05676 5.45899 1.14025 5.45249L5.2941 5.11977C5.37183 5.11356 5.44633 5.08603 5.50942 5.04021C5.5725 4.99438 5.62173 4.93205 5.65167 4.86006L7.25133 1.01259Z" stroke="white" stroke-width="1.5" stroke-linecap="round" stroke-linejoin="round"/>
</svg>
