<svg width="188" height="150" viewBox="0 0 188 150" fill="none" xmlns="http://www.w3.org/2000/svg">
<g filter="url(#filter0_d_1607_3330)">
<path d="M132.576 110.613L136.511 86.5898C136.511 86.5898 150.918 86.2301 159.977 87.5851C169.035 88.9402 183.358 93.7517 183.358 93.7517L173.174 104.725L179.423 117.775C179.423 117.775 165.1 112.964 156.042 111.609C146.984 110.254 132.576 110.613 132.576 110.613Z" fill="white"/>
<path d="M136.937 87.0806C137.003 87.0794 137.076 87.0782 137.157 87.0768C137.567 87.0696 138.164 87.0608 138.908 87.0545C140.397 87.042 142.476 87.0397 144.838 87.0793C149.568 87.1587 155.407 87.4069 159.902 88.0793C164.396 88.7515 170.214 90.2855 174.924 91.6569C177.275 92.3416 179.345 92.9838 180.826 93.4551C181.504 93.6709 182.059 93.8513 182.461 93.9829L172.807 104.385L172.575 104.635L172.722 104.941L178.465 116.936C178.114 116.822 177.687 116.682 177.195 116.526C175.708 116.053 173.631 115.408 171.27 114.72C166.554 113.347 160.681 111.797 156.116 111.114C151.553 110.431 145.659 110.182 140.921 110.102C138.549 110.063 136.46 110.066 134.965 110.078C134.217 110.085 133.617 110.093 133.204 110.1C133.192 110.1 133.179 110.101 133.167 110.101L136.937 87.0806Z" stroke="#E6B86A"/>
</g>
<g filter="url(#filter1_d_1607_3330)">
<path d="M51.0105 86.4891L53.8657 110.664C53.8657 110.664 38.8304 110.499 29.7485 111.687C20.6665 112.876 6.85499 116.661 6.85499 116.661L13.6126 103.313L3.99971 92.4864C3.99971 92.4864 17.8113 88.701 26.8932 87.5127C35.9751 86.3244 51.0105 86.4891 51.0105 86.4891Z" fill="white"/>
<path d="M53.3028 110.16C53.2712 110.16 53.2383 110.159 53.2043 110.159C52.7744 110.157 52.1501 110.155 51.373 110.157C49.8191 110.16 47.6523 110.177 45.2014 110.23C40.3049 110.338 34.253 110.594 29.6836 111.192C25.1156 111.79 19.3706 113.038 14.7793 114.134C12.4815 114.682 10.4679 115.193 9.02879 115.567C8.55613 115.69 8.14582 115.8 7.80722 115.889L14.059 103.539L14.212 103.236L13.9862 102.981L4.91105 92.7588C5.29334 92.6568 5.806 92.5215 6.42556 92.3605C7.85982 91.9877 9.86687 91.4781 12.1569 90.9317C16.7419 89.8375 22.4443 88.5986 26.9581 88.008C31.4706 87.4175 37.4772 87.1623 42.3687 87.0549C44.8117 87.0013 46.9718 86.9849 48.5208 86.9818C49.295 86.9802 49.9165 86.9825 50.3443 86.9847C50.425 86.9851 50.499 86.9858 50.5657 86.9862L53.3028 110.16Z" stroke="#E6B86A"/>
</g>
<path d="M150.634 111.68L150.181 111.976L94.6475 148.226L94.1006 148.583L93.5537 148.226L38.0205 111.976L37.5674 111.68V38.0977L38.0205 37.8018L93.5537 1.55176L94.1006 1.19434L94.6475 1.55176L150.181 37.8018L150.634 38.0977V111.68Z" stroke="#E6B86A" stroke-width="2"/>
<path d="M147.622 39.8799V110.054L94.1025 144.853L40.582 109.898V39.8799L94.1016 5.30957L147.622 39.8799Z" fill="#D58A44" stroke="#7C482B"/>
<path d="M38.5273 110.619L33.8638 108.293L38.5273 107.518V110.619Z" fill="#D9D9D9"/>
<path d="M149.676 110.619V107.905L152.785 108.293L149.676 110.619Z" fill="#D9D9D9"/>
<g filter="url(#filter2_d_1607_3330)">
<path d="M33.8633 77.139C33.8633 77.139 69.9633 72.624 93.3239 72.624C116.684 72.624 152.784 77.139 152.784 77.139V108.292C152.784 108.292 116.684 103.777 93.3239 103.777C69.9633 103.777 33.8633 108.292 33.8633 108.292V77.139Z" fill="white"/>
<path d="M93.3242 73.124C104.98 73.124 119.826 74.2505 131.768 75.3789C137.736 75.9429 142.976 76.5076 146.723 76.9307C148.596 77.1421 150.096 77.3181 151.128 77.4414C151.626 77.5009 152.015 77.5482 152.284 77.5811V107.727C152.024 107.695 151.676 107.653 151.247 107.602C150.213 107.478 148.711 107.302 146.835 107.09C143.083 106.666 137.838 106.102 131.861 105.537C119.913 104.408 105.029 103.277 93.3242 103.277C81.6192 103.277 66.7342 104.408 54.7861 105.537C48.81 106.102 43.5641 106.666 39.8125 107.09C37.9368 107.302 36.434 107.478 35.4004 107.602C34.9719 107.653 34.6239 107.695 34.3633 107.727V77.5811C34.6322 77.5482 35.0213 77.501 35.5195 77.4414C36.5512 77.3181 38.0515 77.1422 39.9248 76.9307C43.6719 76.5076 48.912 75.9429 54.8809 75.3789C66.8229 74.2505 81.6688 73.124 93.3242 73.124Z" stroke="#E6B86A"/>
</g>
<path d="M55.169 97.3887V82.8432H60.7372C61.7884 82.8432 62.6619 83.0089 63.358 83.3404C64.0587 83.6671 64.5819 84.1145 64.9276 84.6827C65.2779 85.2509 65.4531 85.8948 65.4531 86.6145C65.4531 87.2064 65.3395 87.713 65.1122 88.1344C64.8849 88.5511 64.5795 88.8896 64.196 89.15C63.8125 89.4105 63.384 89.5975 62.9105 89.7111V89.8532C63.4266 89.8816 63.9214 90.0402 64.3949 90.329C64.8731 90.6131 65.2637 91.0156 65.5668 91.5364C65.8698 92.0572 66.0213 92.687 66.0213 93.4256C66.0213 94.1784 65.839 94.8555 65.4744 95.4569C65.1098 96.0534 64.5606 96.5246 63.8267 96.8702C63.0928 97.2158 62.1695 97.3887 61.0568 97.3887H55.169ZM57.804 95.187H60.6378C61.5942 95.187 62.2831 95.0047 62.7045 94.6401C63.1307 94.2708 63.3438 93.7973 63.3438 93.2196C63.3438 92.7888 63.2372 92.4005 63.0241 92.0549C62.8111 91.7045 62.508 91.4299 62.1151 91.231C61.7221 91.0274 61.2533 90.9256 60.7088 90.9256H57.804V95.187ZM57.804 89.0293H60.4105C60.8651 89.0293 61.2746 88.9464 61.6392 88.7807C62.0038 88.6103 62.2902 88.3712 62.4986 88.0634C62.7116 87.7509 62.8182 87.3816 62.8182 86.9554C62.8182 86.392 62.6193 85.928 62.2216 85.5634C61.8286 85.1988 61.2438 85.0165 60.4673 85.0165H57.804V89.0293ZM68.3136 97.3887V82.8432H73.7681C74.8855 82.8432 75.823 83.0373 76.5806 83.4256C77.3429 83.8139 77.9182 84.3584 78.3065 85.0591C78.6995 85.7551 78.896 86.5672 78.896 87.4952C78.896 88.428 78.6971 89.2376 78.2994 89.9242C77.9064 90.606 77.3263 91.1339 76.5593 91.508C75.7923 91.8773 74.85 92.062 73.7326 92.062H69.8477V89.8745H73.3775C74.0309 89.8745 74.5659 89.7845 74.9826 89.6046C75.3993 89.4199 75.707 89.1524 75.9059 88.802C76.1095 88.4469 76.2113 88.0113 76.2113 87.4952C76.2113 86.9791 76.1095 86.5388 75.9059 86.1742C75.7023 85.8049 75.3922 85.5255 74.9755 85.3361C74.5588 85.142 74.0214 85.0449 73.3633 85.0449H70.9485V97.3887H68.3136ZM75.8278 90.7978L79.4286 97.3887H76.4883L72.9513 90.7978H75.8278ZM94.3185 90.1159C94.3185 91.6832 94.025 93.0255 93.4379 94.1429C92.8555 95.2556 92.06 96.1079 91.0515 96.6998C90.0477 97.2916 88.909 97.5875 87.6353 97.5875C86.3616 97.5875 85.2205 97.2916 84.212 96.6998C83.2082 96.1032 82.4128 95.2485 81.8256 94.1358C81.2433 93.0184 80.9521 91.6784 80.9521 90.1159C80.9521 88.5487 81.2433 87.2087 81.8256 86.0961C82.4128 84.9786 83.2082 84.124 84.212 83.5321C85.2205 82.9403 86.3616 82.6444 87.6353 82.6444C88.909 82.6444 90.0477 82.9403 91.0515 83.5321C92.06 84.124 92.8555 84.9786 93.4379 86.0961C94.025 87.2087 94.3185 88.5487 94.3185 90.1159ZM91.6694 90.1159C91.6694 89.0127 91.4966 88.0823 91.1509 87.3248C90.81 86.5624 90.3365 85.9872 89.7305 85.5989C89.1244 85.2059 88.426 85.0094 87.6353 85.0094C86.8446 85.0094 86.1462 85.2059 85.5401 85.5989C84.9341 85.9872 84.4582 86.5624 84.1126 87.3248C83.7717 88.0823 83.6012 89.0127 83.6012 90.1159C83.6012 91.2192 83.7717 92.1519 84.1126 92.9142C84.4582 93.6718 84.9341 94.2471 85.5401 94.6401C86.1462 95.0283 86.8446 95.2225 87.6353 95.2225C88.426 95.2225 89.1244 95.0283 89.7305 94.6401C90.3365 94.2471 90.81 93.6718 91.1509 92.9142C91.4966 92.1519 91.6694 91.2192 91.6694 90.1159ZM108.763 82.8432V97.3887H106.419L99.5653 87.481H99.4446V97.3887H96.8097V82.8432H99.1676L106.014 92.758H106.142V82.8432H108.763ZM111.364 97.3887V95.748L118.821 85.052H111.321V82.8432H122.088V84.4838L114.638 95.1799H122.131V97.3887H111.364ZM124.681 97.3887V82.8432H134.141V85.052H127.316V89.0009H133.651V91.2097H127.316V95.1799H134.198V97.3887H124.681Z" fill="#B87333"/>
<g filter="url(#filter3_d_1607_3330)">
<path d="M94.4913 67.0293L72.2071 29.5911H116.775L94.4913 67.0293Z" fill="url(#paint0_linear_1607_3330)"/>
</g>
<path d="M68.0645 27.3887H120.918L116.746 29.5909H72.2371L68.0645 27.3887Z" fill="url(#paint1_linear_1607_3330)"/>
<path d="M68.0645 27.3887H120.918L116.746 29.5909H72.2371L68.0645 27.3887Z" fill="url(#paint2_linear_1607_3330)"/>
<path d="M120.918 27.3887L94.491 70.3325V67.0291L116.745 29.5909L120.918 27.3887Z" fill="url(#paint3_linear_1607_3330)"/>
<path d="M120.918 27.3887L94.491 70.3325V67.0291L116.745 29.5909L120.918 27.3887Z" fill="url(#paint4_linear_1607_3330)"/>
<path d="M72.2379 29.5909L94.4922 67.0291V70.3325L68.0652 27.3887L72.2379 29.5909Z" fill="url(#paint5_linear_1607_3330)"/>
<path d="M72.2379 29.5909L94.4922 67.0291V70.3325L68.0652 27.3887L72.2379 29.5909Z" fill="url(#paint6_linear_1607_3330)"/>
<defs>
<filter id="filter0_d_1607_3330" x="128.576" y="86.5469" width="58.7812" height="39.2285" filterUnits="userSpaceOnUse" color-interpolation-filters="sRGB">
<feFlood flood-opacity="0" result="BackgroundImageFix"/>
<feColorMatrix in="SourceAlpha" type="matrix" values="0 0 0 0 0 0 0 0 0 0 0 0 0 0 0 0 0 0 127 0" result="hardAlpha"/>
<feOffset dy="4"/>
<feGaussianBlur stdDeviation="2"/>
<feComposite in2="hardAlpha" operator="out"/>
<feColorMatrix type="matrix" values="0 0 0 0 0 0 0 0 0 0 0 0 0 0 0 0 0 0 0.25 0"/>
<feBlend mode="normal" in2="BackgroundImageFix" result="effect1_dropShadow_1607_3330"/>
<feBlend mode="normal" in="SourceGraphic" in2="effect1_dropShadow_1607_3330" result="shape"/>
</filter>
<filter id="filter1_d_1607_3330" x="0" y="86.4814" width="57.8652" height="38.1797" filterUnits="userSpaceOnUse" color-interpolation-filters="sRGB">
<feFlood flood-opacity="0" result="BackgroundImageFix"/>
<feColorMatrix in="SourceAlpha" type="matrix" values="0 0 0 0 0 0 0 0 0 0 0 0 0 0 0 0 0 0 127 0" result="hardAlpha"/>
<feOffset dy="4"/>
<feGaussianBlur stdDeviation="2"/>
<feComposite in2="hardAlpha" operator="out"/>
<feColorMatrix type="matrix" values="0 0 0 0 0 0 0 0 0 0 0 0 0 0 0 0 0 0 0.25 0"/>
<feBlend mode="normal" in2="BackgroundImageFix" result="effect1_dropShadow_1607_3330"/>
<feBlend mode="normal" in="SourceGraphic" in2="effect1_dropShadow_1607_3330" result="shape"/>
</filter>
<filter id="filter2_d_1607_3330" x="29.8633" y="72.624" width="126.922" height="43.668" filterUnits="userSpaceOnUse" color-interpolation-filters="sRGB">
<feFlood flood-opacity="0" result="BackgroundImageFix"/>
<feColorMatrix in="SourceAlpha" type="matrix" values="0 0 0 0 0 0 0 0 0 0 0 0 0 0 0 0 0 0 127 0" result="hardAlpha"/>
<feOffset dy="4"/>
<feGaussianBlur stdDeviation="2"/>
<feComposite in2="hardAlpha" operator="out"/>
<feColorMatrix type="matrix" values="0 0 0 0 0 0 0 0 0 0 0 0 0 0 0 0 0 0 0.25 0"/>
<feBlend mode="normal" in2="BackgroundImageFix" result="effect1_dropShadow_1607_3330"/>
<feBlend mode="normal" in="SourceGraphic" in2="effect1_dropShadow_1607_3330" result="shape"/>
</filter>
<filter id="filter3_d_1607_3330" x="68.207" y="29.5908" width="52.5684" height="45.4385" filterUnits="userSpaceOnUse" color-interpolation-filters="sRGB">
<feFlood flood-opacity="0" result="BackgroundImageFix"/>
<feColorMatrix in="SourceAlpha" type="matrix" values="0 0 0 0 0 0 0 0 0 0 0 0 0 0 0 0 0 0 127 0" result="hardAlpha"/>
<feOffset dy="4"/>
<feGaussianBlur stdDeviation="2"/>
<feComposite in2="hardAlpha" operator="out"/>
<feColorMatrix type="matrix" values="0 0 0 0 0 0 0 0 0 0 0 0 0 0 0 0 0 0 0.25 0"/>
<feBlend mode="normal" in2="BackgroundImageFix" result="effect1_dropShadow_1607_3330"/>
<feBlend mode="normal" in="SourceGraphic" in2="effect1_dropShadow_1607_3330" result="shape"/>
</filter>
<linearGradient id="paint0_linear_1607_3330" x1="88.9277" y1="21.5162" x2="69.2379" y2="58.4644" gradientUnits="userSpaceOnUse">
<stop stop-color="#E6B86A"/>
<stop offset="0.6902" stop-color="#CD7F32"/>
<stop offset="1" stop-color="#7C482B"/>
</linearGradient>
<linearGradient id="paint1_linear_1607_3330" x1="86.8415" y1="24.8194" x2="120.954" y2="28.1171" gradientUnits="userSpaceOnUse">
<stop stop-color="#E6B86A"/>
<stop offset="1" stop-color="#CF9A3F"/>
</linearGradient>
<linearGradient id="paint2_linear_1607_3330" x1="86.8415" y1="24.8194" x2="120.954" y2="28.1171" gradientUnits="userSpaceOnUse">
<stop stop-color="#E6B86A"/>
<stop offset="1" stop-color="#CF9A3F"/>
</linearGradient>
<linearGradient id="paint3_linear_1607_3330" x1="108.806" y1="25.1864" x2="112.843" y2="57.486" gradientUnits="userSpaceOnUse">
<stop stop-color="#CD7F32"/>
<stop offset="1" stop-color="#C5996D"/>
</linearGradient>
<linearGradient id="paint4_linear_1607_3330" x1="108.806" y1="25.1864" x2="112.843" y2="57.486" gradientUnits="userSpaceOnUse">
<stop stop-color="#CD7F32"/>
<stop offset="1" stop-color="#C5996D"/>
</linearGradient>
<linearGradient id="paint5_linear_1607_3330" x1="69.8039" y1="41.3362" x2="82.1723" y2="59.445" gradientUnits="userSpaceOnUse">
<stop stop-color="#A8560A"/>
<stop offset="1" stop-color="#E6B86A"/>
</linearGradient>
<linearGradient id="paint6_linear_1607_3330" x1="69.8039" y1="41.3362" x2="82.1723" y2="59.445" gradientUnits="userSpaceOnUse">
<stop stop-color="#A8560A"/>
<stop offset="1" stop-color="#E6B86A"/>
</linearGradient>
</defs>
</svg>
