<svg width="188" height="150" viewBox="0 0 188 150" fill="none" xmlns="http://www.w3.org/2000/svg">
<g filter="url(#filter0_d_1607_3376)">
<path d="M132.576 108.601L136.511 84.5771C136.511 84.5771 150.918 84.2174 159.977 85.5724C169.035 86.9275 183.358 91.7389 183.358 91.7389L173.174 102.712L179.423 115.762C179.423 115.762 165.1 110.951 156.042 109.596C146.984 108.241 132.576 108.601 132.576 108.601Z" fill="white"/>
<path d="M136.937 85.0679C137.003 85.0667 137.076 85.0655 137.157 85.0641C137.567 85.0569 138.164 85.0481 138.908 85.0419C140.397 85.0293 142.476 85.027 144.838 85.0666C149.568 85.146 155.408 85.3943 159.903 86.0667C164.397 86.739 170.214 88.2728 174.924 89.6441C177.275 90.3289 179.345 90.9712 180.827 91.4425C181.504 91.658 182.058 91.8385 182.46 91.97L172.807 102.372L172.575 102.622L172.723 102.928L178.466 114.923C178.114 114.809 177.687 114.67 177.195 114.513C175.708 114.04 173.631 113.395 171.27 112.707C166.554 111.334 160.681 109.784 156.116 109.101C151.553 108.419 145.659 108.169 140.921 108.09C138.549 108.05 136.46 108.053 134.965 108.066C134.217 108.072 133.617 108.08 133.204 108.088C133.192 108.088 133.179 108.088 133.167 108.088L136.937 85.0679Z" stroke="#C0C0C0"/>
</g>
<g filter="url(#filter1_d_1607_3376)">
<path d="M51.0105 84.4871L53.8657 108.662C53.8657 108.662 38.8304 108.497 29.7484 109.686C20.6665 110.874 6.85494 114.659 6.85494 114.659L13.6125 101.311L3.99965 90.4845C3.99965 90.4845 17.8112 86.699 26.8932 85.5107C35.9751 84.3224 51.0105 84.4871 51.0105 84.4871Z" fill="white"/>
<path d="M53.3028 108.158C53.2712 108.158 53.2383 108.157 53.2043 108.157C52.7744 108.155 52.1501 108.153 51.373 108.155C49.8191 108.158 47.6524 108.175 45.2014 108.228C40.3049 108.336 34.253 108.592 29.6836 109.19C25.1156 109.788 19.3706 111.036 14.7793 112.132C12.4814 112.68 10.468 113.192 9.02891 113.566C8.55586 113.689 8.14501 113.798 7.80625 113.888L14.059 101.537L14.212 101.234L13.9862 100.979L4.91105 90.7568C5.29334 90.6549 5.80601 90.5196 6.42556 90.3585C7.85983 89.9857 9.86685 89.4762 12.1569 88.9297C16.7419 87.8356 22.4443 86.5966 26.9581 86.006C31.4706 85.4156 37.4772 85.1603 42.3687 85.053C44.8117 84.9994 46.9718 84.9829 48.5208 84.9798C49.295 84.9782 49.9165 84.9806 50.3443 84.9828C50.425 84.9832 50.499 84.9839 50.5657 84.9843L53.3028 108.158Z" stroke="#C0C0C0"/>
</g>
<path d="M150.638 111.68L150.185 111.976L94.6514 148.226L94.1045 148.583L93.5586 148.226L38.0244 111.976L37.5713 111.68V38.0977L38.0244 37.8018L93.5586 1.55176L94.1045 1.19434L94.6514 1.55176L150.185 37.8018L150.638 38.0977V111.68Z" stroke="#C0C0C0" stroke-width="2"/>
<path d="M147.624 39.8936V110.068L120.842 127.483L94.1035 144.867L40.584 109.912V39.8936L94.1035 5.32324L147.624 39.8936Z" fill="#CFCFCF" stroke="#3C3C3C"/>
<path d="M38.5234 108.607L33.8599 106.281L38.5234 105.506V108.607Z" fill="#D9D9D9"/>
<path d="M149.674 108.607V105.894L152.783 106.281L149.674 108.607Z" fill="#D9D9D9"/>
<g filter="url(#filter2_d_1607_3376)">
<path d="M33.8594 75.1449C33.8594 75.1449 69.9595 70.6299 93.3201 70.6299C116.681 70.6299 152.781 75.1449 152.781 75.1449V106.298C152.781 106.298 116.681 101.783 93.3201 101.783C69.9595 101.783 33.8594 106.298 33.8594 106.298V75.1449Z" fill="white"/>
<path d="M93.3203 71.1299C104.976 71.1299 119.822 72.2563 131.764 73.3848C137.732 73.9488 142.972 74.5135 146.719 74.9365C148.592 75.148 150.093 75.3239 151.125 75.4473C151.623 75.5068 152.012 75.554 152.281 75.5869V105.732C152.021 105.701 151.672 105.659 151.243 105.607C150.209 105.484 148.707 105.307 146.831 105.096C143.079 104.672 137.834 104.108 131.857 103.543C119.909 102.414 105.025 101.283 93.3203 101.283C81.6153 101.283 66.7303 102.414 54.7822 103.543C48.8061 104.108 43.5602 104.672 39.8086 105.096C37.9328 105.307 36.4301 105.484 35.3965 105.607C34.9679 105.659 34.62 105.701 34.3594 105.732V75.5869C34.6283 75.554 35.0174 75.5068 35.5156 75.4473C36.5473 75.3239 38.0476 75.148 39.9209 74.9365C43.668 74.5135 48.9081 73.9488 54.877 73.3848C66.819 72.2563 81.6648 71.1299 93.3203 71.1299Z" stroke="#C0C0C0"/>
</g>
<path d="M68.0739 84.8418C68.0076 84.2215 67.7282 83.7386 67.2358 83.3929C66.7481 83.0473 66.1136 82.8745 65.3324 82.8745C64.7831 82.8745 64.312 82.9573 63.919 83.123C63.526 83.2888 63.2254 83.5137 63.017 83.7978C62.8087 84.0819 62.7022 84.4062 62.6974 84.7708C62.6974 85.0738 62.7661 85.3366 62.9034 85.5591C63.0455 85.7817 63.2372 85.9711 63.4787 86.1273C63.7202 86.2788 63.9877 86.4067 64.2812 86.5108C64.5748 86.615 64.8707 86.7026 65.169 86.7736L66.5327 87.1145C67.0819 87.2424 67.6098 87.4152 68.1165 87.633C68.6278 87.8508 69.0848 88.1254 69.4872 88.4569C69.8944 88.7883 70.2164 89.1884 70.4531 89.6571C70.6899 90.1259 70.8082 90.6751 70.8082 91.3049C70.8082 92.1571 70.5904 92.9076 70.1548 93.5563C69.7192 94.2002 69.0895 94.7045 68.2656 95.0691C67.4465 95.4289 66.4545 95.6088 65.2898 95.6088C64.1581 95.6088 63.1757 95.4337 62.3423 95.0833C61.5137 94.7329 60.8651 94.2215 60.3963 93.5492C59.9323 92.8768 59.6813 92.0577 59.6435 91.0918H62.2358C62.2737 91.5984 62.4299 92.0198 62.7045 92.356C62.9792 92.6922 63.3366 92.9431 63.777 93.1088C64.2221 93.2746 64.7192 93.3574 65.2685 93.3574C65.8414 93.3574 66.3433 93.2722 66.7741 93.1017C67.2098 92.9266 67.5507 92.6851 67.7969 92.3773C68.0431 92.0648 68.1686 91.7002 68.1733 91.2836C68.1686 90.9048 68.0573 90.5923 67.8395 90.3461C67.6217 90.0951 67.3163 89.8868 66.9233 89.7211C66.535 89.5506 66.0805 89.3991 65.5597 89.2665L63.9048 88.8404C62.7069 88.5326 61.7599 88.0662 61.0639 87.4412C60.3726 86.8115 60.027 85.9758 60.027 84.9341C60.027 84.0771 60.259 83.3266 60.723 82.6827C61.1918 82.0388 61.8286 81.5392 62.6335 81.1841C63.4384 80.8243 64.3499 80.6444 65.3679 80.6444C66.4001 80.6444 67.3045 80.8243 68.081 81.1841C68.8622 81.5392 69.4754 82.034 69.9205 82.6685C70.3655 83.2982 70.5952 84.0227 70.6094 84.8418H68.0739ZM75.7923 80.8432V95.3887H73.1573V80.8432H75.7923ZM78.6456 95.3887V80.8432H81.2805V93.1799H87.6868V95.3887H78.6456ZM90.4158 80.8432L94.2013 92.2921H94.3505L98.1289 80.8432H101.027L95.8988 95.3887H92.646L87.5252 80.8432H90.4158ZM102.942 95.3887V80.8432H112.403V83.052H105.577V87.0009H111.913V89.2097H105.577V93.1799H112.46V95.3887H102.942ZM115.091 95.3887V80.8432H120.545C121.663 80.8432 122.6 81.0373 123.358 81.4256C124.12 81.8139 124.696 82.3584 125.084 83.0591C125.477 83.7551 125.673 84.5672 125.673 85.4952C125.673 86.428 125.474 87.2376 125.077 87.9242C124.684 88.606 124.104 89.1339 123.337 89.508C122.57 89.8773 121.627 90.062 120.51 90.062H116.625V87.8745H120.155C120.808 87.8745 121.343 87.7845 121.76 87.6046C122.177 87.4199 122.484 87.1524 122.683 86.802C122.887 86.4469 122.989 86.0113 122.989 85.4952C122.989 84.9791 122.887 84.5388 122.683 84.1742C122.48 83.8049 122.17 83.5255 121.753 83.3361C121.336 83.142 120.799 83.0449 120.141 83.0449H117.726V95.3887H115.091ZM122.605 88.7978L126.206 95.3887H123.266L119.729 88.7978H122.605Z" fill="#808080"/>
<g filter="url(#filter3_i_1607_3376)">
<path d="M77.9297 41.6872L93.9 18.265L109.87 41.6872L93.9 65.1094L77.9297 41.6872Z" fill="url(#paint0_linear_1607_3376)"/>
</g>
<path d="M93.9004 14.75L103.216 28.2178L112.532 41.6855H109.871L93.9004 18.2633V14.75Z" fill="url(#paint1_linear_1607_3376)"/>
<path d="M93.9004 14.75L103.216 28.2178L112.532 41.6855H109.871L93.9004 18.2633V14.75Z" fill="url(#paint2_linear_1607_3376)"/>
<path d="M93.9004 68.623L75.2684 41.6875H77.9301L93.9004 65.1097V68.623Z" fill="url(#paint3_linear_1607_3376)"/>
<path d="M93.9004 68.623L75.2684 41.6875H77.9301L93.9004 65.1097V68.623Z" fill="url(#paint4_linear_1607_3376)"/>
<path d="M75.2676 41.6855L93.8996 14.75V18.2634L77.9293 41.6855H75.2676Z" fill="url(#paint5_linear_1607_3376)"/>
<path d="M75.2676 41.6855L93.8996 14.75V18.2634L77.9293 41.6855H75.2676Z" fill="url(#paint6_linear_1607_3376)"/>
<path d="M112.531 41.6855L93.8992 68.6211V65.1077L109.87 41.6855H112.531Z" fill="url(#paint7_linear_1607_3376)"/>
<path d="M112.531 41.6855L93.8992 68.6211V65.1077L109.87 41.6855H112.531Z" fill="url(#paint8_linear_1607_3376)"/>
<defs>
<filter id="filter0_d_1607_3376" x="128.576" y="84.5342" width="58.7812" height="39.2285" filterUnits="userSpaceOnUse" color-interpolation-filters="sRGB">
<feFlood flood-opacity="0" result="BackgroundImageFix"/>
<feColorMatrix in="SourceAlpha" type="matrix" values="0 0 0 0 0 0 0 0 0 0 0 0 0 0 0 0 0 0 127 0" result="hardAlpha"/>
<feOffset dy="4"/>
<feGaussianBlur stdDeviation="2"/>
<feComposite in2="hardAlpha" operator="out"/>
<feColorMatrix type="matrix" values="0 0 0 0 0 0 0 0 0 0 0 0 0 0 0 0 0 0 0.25 0"/>
<feBlend mode="normal" in2="BackgroundImageFix" result="effect1_dropShadow_1607_3376"/>
<feBlend mode="normal" in="SourceGraphic" in2="effect1_dropShadow_1607_3376" result="shape"/>
</filter>
<filter id="filter1_d_1607_3376" x="0" y="84.4795" width="57.8652" height="38.1797" filterUnits="userSpaceOnUse" color-interpolation-filters="sRGB">
<feFlood flood-opacity="0" result="BackgroundImageFix"/>
<feColorMatrix in="SourceAlpha" type="matrix" values="0 0 0 0 0 0 0 0 0 0 0 0 0 0 0 0 0 0 127 0" result="hardAlpha"/>
<feOffset dy="4"/>
<feGaussianBlur stdDeviation="2"/>
<feComposite in2="hardAlpha" operator="out"/>
<feColorMatrix type="matrix" values="0 0 0 0 0 0 0 0 0 0 0 0 0 0 0 0 0 0 0.25 0"/>
<feBlend mode="normal" in2="BackgroundImageFix" result="effect1_dropShadow_1607_3376"/>
<feBlend mode="normal" in="SourceGraphic" in2="effect1_dropShadow_1607_3376" result="shape"/>
</filter>
<filter id="filter2_d_1607_3376" x="29.8594" y="70.6299" width="126.922" height="43.668" filterUnits="userSpaceOnUse" color-interpolation-filters="sRGB">
<feFlood flood-opacity="0" result="BackgroundImageFix"/>
<feColorMatrix in="SourceAlpha" type="matrix" values="0 0 0 0 0 0 0 0 0 0 0 0 0 0 0 0 0 0 127 0" result="hardAlpha"/>
<feOffset dy="4"/>
<feGaussianBlur stdDeviation="2"/>
<feComposite in2="hardAlpha" operator="out"/>
<feColorMatrix type="matrix" values="0 0 0 0 0 0 0 0 0 0 0 0 0 0 0 0 0 0 0.25 0"/>
<feBlend mode="normal" in2="BackgroundImageFix" result="effect1_dropShadow_1607_3376"/>
<feBlend mode="normal" in="SourceGraphic" in2="effect1_dropShadow_1607_3376" result="shape"/>
</filter>
<filter id="filter3_i_1607_3376" x="77.9297" y="18.2646" width="31.9414" height="46.8447" filterUnits="userSpaceOnUse" color-interpolation-filters="sRGB">
<feFlood flood-opacity="0" result="BackgroundImageFix"/>
<feBlend mode="normal" in="SourceGraphic" in2="BackgroundImageFix" result="shape"/>
<feColorMatrix in="SourceAlpha" type="matrix" values="0 0 0 0 0 0 0 0 0 0 0 0 0 0 0 0 0 0 127 0" result="hardAlpha"/>
<feOffset/>
<feGaussianBlur stdDeviation="2"/>
<feComposite in2="hardAlpha" operator="arithmetic" k2="-1" k3="1"/>
<feColorMatrix type="matrix" values="0 0 0 0 0 0 0 0 0 0 0 0 0 0 0 0 0 0 0.25 0"/>
<feBlend mode="normal" in2="shape" result="effect1_innerShadow_1607_3376"/>
</filter>
<linearGradient id="paint0_linear_1607_3376" x1="94.967" y1="38.4669" x2="60.9623" y2="43.1957" gradientUnits="userSpaceOnUse">
<stop stop-color="#D9D9D9"/>
<stop offset="1" stop-color="#737373"/>
</linearGradient>
<linearGradient id="paint1_linear_1607_3376" x1="107.209" y1="28.8033" x2="87.2087" y2="19.7119" gradientUnits="userSpaceOnUse">
<stop offset="0.0288462" stop-color="#AFAFAF"/>
<stop offset="1" stop-color="#6C6C6C"/>
</linearGradient>
<linearGradient id="paint2_linear_1607_3376" x1="107.209" y1="28.8033" x2="87.2087" y2="19.7119" gradientUnits="userSpaceOnUse">
<stop offset="0.0288462" stop-color="#AFAFAF"/>
<stop offset="1" stop-color="#6C6C6C"/>
</linearGradient>
<linearGradient id="paint3_linear_1607_3376" x1="75.2684" y1="43.4442" x2="99.5396" y2="63.5835" gradientUnits="userSpaceOnUse">
<stop stop-color="#696969"/>
<stop offset="1" stop-color="#DEDBDB"/>
</linearGradient>
<linearGradient id="paint4_linear_1607_3376" x1="75.2684" y1="43.4442" x2="99.5396" y2="63.5835" gradientUnits="userSpaceOnUse">
<stop stop-color="#696969"/>
<stop offset="1" stop-color="#DEDBDB"/>
</linearGradient>
<linearGradient id="paint5_linear_1607_3376" x1="92.5688" y1="12.4078" x2="66.5087" y2="38.12" gradientUnits="userSpaceOnUse">
<stop offset="0.0336538" stop-color="#F5F4F4"/>
<stop offset="0.399038" stop-color="#D9D9D9"/>
<stop offset="1" stop-color="#838383"/>
</linearGradient>
<linearGradient id="paint6_linear_1607_3376" x1="92.5688" y1="12.4078" x2="66.5087" y2="38.12" gradientUnits="userSpaceOnUse">
<stop offset="0.0336538" stop-color="#F5F4F4"/>
<stop offset="0.399038" stop-color="#D9D9D9"/>
<stop offset="1" stop-color="#838383"/>
</linearGradient>
<linearGradient id="paint7_linear_1607_3376" x1="107.485" y1="45.803" x2="93.9335" y2="65.6092" gradientUnits="userSpaceOnUse">
<stop stop-color="#F4F4F4"/>
<stop offset="1" stop-color="#7D7C7C"/>
</linearGradient>
<linearGradient id="paint8_linear_1607_3376" x1="107.485" y1="45.803" x2="93.9335" y2="65.6092" gradientUnits="userSpaceOnUse">
<stop stop-color="#F4F4F4"/>
<stop offset="1" stop-color="#7D7C7C"/>
</linearGradient>
</defs>
</svg>
