<svg width="188" height="151" viewBox="0 0 188 151" fill="none" xmlns="http://www.w3.org/2000/svg">
<g filter="url(#filter0_d_1607_3413)">
<path d="M132.574 108.869L136.509 84.788C136.509 84.788 150.916 84.4274 159.975 85.7857C169.033 87.144 183.356 91.967 183.356 91.967L173.172 102.967L179.421 116.048C179.421 116.048 165.098 111.225 156.04 109.867C146.982 108.509 132.574 108.869 132.574 108.869Z" fill="white"/>
<path d="M136.935 85.2793C137.001 85.278 137.074 85.277 137.155 85.2756C137.565 85.2684 138.162 85.2592 138.906 85.253C140.395 85.2404 142.475 85.2374 144.837 85.2771C149.567 85.3567 155.406 85.606 159.901 86.28C164.394 86.9538 170.213 88.4908 174.922 89.8655C177.274 90.5518 179.343 91.1965 180.824 91.6689C181.503 91.8855 182.058 92.0666 182.46 92.1985L172.805 102.627L172.574 102.876L172.721 103.182L178.465 115.209C178.113 115.094 177.686 114.954 177.193 114.797C175.706 114.323 173.628 113.676 171.267 112.987C166.552 111.611 160.679 110.057 156.115 109.372C151.551 108.688 145.657 108.438 140.919 108.359C138.547 108.319 136.458 108.322 134.962 108.334C134.215 108.34 133.615 108.349 133.202 108.356C133.19 108.357 133.177 108.357 133.165 108.357L136.935 85.2793Z" stroke="#FEB441"/>
</g>
<g filter="url(#filter1_d_1607_3413)">
<path d="M51.0105 84.6867L53.8657 108.92C53.8657 108.92 38.8304 108.754 29.7485 109.946C20.6666 111.137 6.85507 114.931 6.85507 114.931L13.6127 101.551L3.99979 90.6985C3.99979 90.6985 17.8113 86.904 26.8932 85.7128C35.9751 84.5216 51.0105 84.6867 51.0105 84.6867Z" fill="white"/>
<path d="M53.3029 108.416C53.2713 108.415 53.2384 108.415 53.2044 108.414C52.7745 108.412 52.1503 108.411 51.3733 108.413C49.8194 108.416 47.6527 108.432 45.2018 108.486C40.3052 108.594 34.2531 108.851 29.6836 109.45C25.1155 110.049 19.371 111.301 14.7798 112.399C12.4817 112.949 10.4677 113.461 9.02849 113.836C8.55497 113.959 8.14389 114.069 7.80496 114.159L14.0591 101.777L14.2122 101.473L13.9866 101.22L4.91046 90.9702C5.29285 90.8679 5.80586 90.7319 6.42584 90.5704C7.86009 90.1967 9.8671 89.6867 12.1571 89.1389C16.7419 88.0422 22.4441 86.8002 26.9578 86.2081C31.4702 85.6163 37.4774 85.3602 42.3689 85.2527C44.8117 85.199 46.9719 85.1829 48.5208 85.1798C49.295 85.1782 49.9164 85.1801 50.3441 85.1822C50.425 85.1826 50.4988 85.1833 50.5656 85.1837L53.3029 108.416Z" stroke="#FEB441"/>
</g>
<path d="M150.634 111.941L150.182 112.237L94.6484 148.574L94.1006 148.933L93.5537 148.574L38.0205 112.237L37.5674 111.941V38.1855L38.0205 37.8896L93.5537 1.55273L94.1006 1.19434L94.6484 1.55273L150.182 37.8896L150.634 38.1855V111.941Z" stroke="#FEB441" stroke-width="2"/>
<path d="M147.62 39.9707V110.315L94.0996 145.197L40.5801 110.158V39.9697L94.0996 5.31738L147.62 39.9707Z" fill="#FEB441" stroke="#C77A02"/>
<path d="M38.5254 108.875L33.8618 106.543L38.5254 105.766V108.875Z" fill="#D9D9D9"/>
<path d="M149.674 108.875V106.155L152.783 106.543L149.674 108.875Z" fill="#D9D9D9"/>
<g filter="url(#filter2_d_1607_3413)">
<path d="M33.8613 75.3149C33.8613 75.3149 69.9613 70.7891 93.322 70.7891C116.683 70.7891 152.783 75.3149 152.783 75.3149V106.543C152.783 106.543 116.683 102.017 93.322 102.017C69.9613 102.017 33.8613 106.543 33.8613 106.543V75.3149Z" fill="white"/>
<path d="M93.3223 71.2891C104.978 71.2891 119.824 72.4186 131.766 73.5498C137.734 74.1152 142.974 74.6805 146.721 75.1045C148.594 75.3165 150.094 75.4936 151.126 75.6172C151.624 75.6769 152.013 75.7239 152.282 75.7568V105.978C152.022 105.946 151.674 105.904 151.245 105.853C150.211 105.729 148.709 105.551 146.833 105.339C143.081 104.914 137.835 104.348 131.859 103.782C119.911 102.651 105.027 101.518 93.3223 101.518C81.6172 101.518 66.7322 102.65 54.7842 103.782C48.808 104.348 43.5622 104.914 39.8105 105.339C37.9347 105.551 36.4321 105.729 35.3984 105.853C34.9699 105.904 34.6219 105.946 34.3613 105.978V75.7568C34.6303 75.7239 35.0193 75.6769 35.5176 75.6172C36.5493 75.4936 38.0495 75.3165 39.9229 75.1045C43.6699 74.6805 48.91 74.1152 54.8789 73.5498C66.821 72.4186 81.6668 71.2891 93.3223 71.2891Z" stroke="#FEB441"/>
</g>
<path d="M76.9114 85.4891C76.793 85.1056 76.6297 84.7623 76.4213 84.4593C76.2177 84.1515 75.9715 83.8887 75.6827 83.6709C75.3986 83.4531 75.0719 83.2897 74.7026 83.1808C74.3333 83.0672 73.9308 83.0104 73.4952 83.0104C72.714 83.0104 72.0179 83.2069 71.4071 83.5999C70.7963 83.9929 70.3158 84.5705 69.9654 85.3328C69.6197 86.0904 69.4469 87.0137 69.4469 88.1027C69.4469 89.2012 69.6197 90.1316 69.9654 90.8939C70.311 91.6562 70.7916 92.2362 71.4071 92.634C72.0227 93.027 72.7376 93.2235 73.552 93.2235C74.2907 93.2235 74.9299 93.0814 75.4696 92.7973C76.0141 92.5132 76.4332 92.1108 76.7267 91.5899C77.0203 91.0644 77.1671 90.4488 77.1671 89.7433L77.7637 89.8357H73.8148V87.776H79.7168V89.5232C79.7168 90.7684 79.4516 91.8456 78.9213 92.7547C78.391 93.6638 77.6619 94.3646 76.7338 94.857C75.8058 95.3447 74.7405 95.5885 73.5378 95.5885C72.1979 95.5885 71.0212 95.2878 70.008 94.6865C68.9995 94.0805 68.2111 93.2211 67.6429 92.1084C67.0795 90.991 66.7978 89.6652 66.7978 88.1311C66.7978 86.9569 66.9635 85.9081 67.2949 84.9848C67.6311 84.0615 68.0998 83.2779 68.7012 82.634C69.3025 81.9853 70.008 81.4929 70.8176 81.1567C71.6273 80.8158 72.508 80.6453 73.4597 80.6453C74.2646 80.6453 75.0151 80.7637 75.7111 81.0004C76.4071 81.2325 77.025 81.5639 77.5648 81.9948C78.1093 82.4256 78.5568 82.937 78.9071 83.5289C79.2575 84.1207 79.4872 84.7741 79.5961 85.4891H76.9114ZM95.2619 88.1169C95.2619 89.6842 94.9683 91.0265 94.3812 92.1439C93.7988 93.2566 93.0034 94.1089 91.9949 94.7007C90.9911 95.2926 89.8523 95.5885 88.5787 95.5885C87.305 95.5885 86.1639 95.2926 85.1554 94.7007C84.1516 94.1041 83.3561 93.2495 82.769 92.1368C82.1866 91.0194 81.8954 89.6794 81.8954 88.1169C81.8954 86.5497 82.1866 85.2097 82.769 84.097C83.3561 82.9796 84.1516 82.125 85.1554 81.5331C86.1639 80.9413 87.305 80.6453 88.5787 80.6453C89.8523 80.6453 90.9911 80.9413 91.9949 81.5331C93.0034 82.125 93.7988 82.9796 94.3812 84.097C94.9683 85.2097 95.2619 86.5497 95.2619 88.1169ZM92.6127 88.1169C92.6127 87.0137 92.4399 86.0833 92.0943 85.3257C91.7534 84.5634 91.2799 83.9881 90.6738 83.5999C90.0678 83.2069 89.3694 83.0104 88.5787 83.0104C87.7879 83.0104 87.0895 83.2069 86.4835 83.5999C85.8774 83.9881 85.4016 84.5634 85.0559 85.3257C84.715 86.0833 84.5446 87.0137 84.5446 88.1169C84.5446 89.2201 84.715 90.1529 85.0559 90.9152C85.4016 91.6728 85.8774 92.2481 86.4835 92.6411C87.0895 93.0293 87.7879 93.2235 88.5787 93.2235C89.3694 93.2235 90.0678 93.0293 90.6738 92.6411C91.2799 92.2481 91.7534 91.6728 92.0943 90.9152C92.4399 90.1529 92.6127 89.2201 92.6127 88.1169ZM97.753 95.3896V80.8442H100.388V93.1808H106.794V95.3896H97.753ZM114.01 95.3896H109.081V80.8442H114.11C115.554 80.8442 116.794 81.1354 117.831 81.7178C118.873 82.2954 119.673 83.1264 120.232 84.2107C120.79 85.295 121.07 86.5923 121.07 88.1027C121.07 89.6179 120.788 90.92 120.225 92.009C119.666 93.098 118.859 93.9337 117.803 94.5161C116.752 95.0985 115.487 95.3896 114.01 95.3896ZM111.716 93.1098H113.882C114.896 93.1098 115.741 92.9252 116.418 92.5558C117.095 92.1818 117.604 91.6254 117.945 90.8868C118.286 90.1434 118.456 89.2154 118.456 88.1027C118.456 86.99 118.286 86.0667 117.945 85.3328C117.604 84.5942 117.1 84.0426 116.432 83.678C115.769 83.3087 114.945 83.124 113.96 83.124H111.716V93.1098Z" fill="#C77A02"/>
<path d="M92.7294 17.1572L99.2734 37.2976L120.45 37.2976L103.318 49.745L109.862 69.8853L92.7294 57.4379L75.597 69.8853L82.141 49.745L65.0086 37.2976L86.1854 37.2976L92.7294 17.1572Z" fill="#D9D9D9"/>
<path d="M99.4336 37.2689L92.7297 44.5557V17.1572L99.4336 37.2689Z" fill="#EEA22B"/>
<path d="M86.1526 37.2686L92.7287 44.5554L64.875 37.2686H86.1526Z" fill="#EEA22B"/>
<path d="M109.926 69.9141L92.7288 44.5559L103.222 49.5109L109.926 69.9141Z" fill="#FFF0AF"/>
<path d="M75.5316 69.9141L92.7285 44.5559V57.3807L75.5316 69.9141Z" fill="#FFF0AF"/>
<path d="M120.42 37.2982L92.7299 44.5559L99.31 36.9775L120.42 37.2982Z" fill="#FFF0AF"/>
<path d="M103.223 49.8027L92.7302 44.5562L120.449 37.3043L103.223 49.8027Z" fill="#EEA22B"/>
<path d="M92.7285 57.287V44.4621L109.925 69.8203L92.7285 57.287Z" fill="#EEA22B"/>
<path d="M82.2371 49.5107L92.7302 44.5557L75.5332 69.9139L82.2371 49.5107Z" fill="#EEA22B"/>
<path d="M65.0391 37.2694L92.7291 44.5562L82.236 49.8027L65.0391 37.2694Z" fill="#FFF0AF"/>
<path d="M92.7293 17.1572V44.556L86.0254 37.2692L92.7293 17.1572Z" fill="#FFF0AF"/>
<defs>
<filter id="filter0_d_1607_3413" x="128.574" y="84.7451" width="58.7812" height="39.3027" filterUnits="userSpaceOnUse" color-interpolation-filters="sRGB">
<feFlood flood-opacity="0" result="BackgroundImageFix"/>
<feColorMatrix in="SourceAlpha" type="matrix" values="0 0 0 0 0 0 0 0 0 0 0 0 0 0 0 0 0 0 127 0" result="hardAlpha"/>
<feOffset dy="4"/>
<feGaussianBlur stdDeviation="2"/>
<feComposite in2="hardAlpha" operator="out"/>
<feColorMatrix type="matrix" values="0 0 0 0 0 0 0 0 0 0 0 0 0 0 0 0 0 0 0.25 0"/>
<feBlend mode="normal" in2="BackgroundImageFix" result="effect1_dropShadow_1607_3413"/>
<feBlend mode="normal" in="SourceGraphic" in2="effect1_dropShadow_1607_3413" result="shape"/>
</filter>
<filter id="filter1_d_1607_3413" x="0" y="84.6787" width="57.8652" height="38.2529" filterUnits="userSpaceOnUse" color-interpolation-filters="sRGB">
<feFlood flood-opacity="0" result="BackgroundImageFix"/>
<feColorMatrix in="SourceAlpha" type="matrix" values="0 0 0 0 0 0 0 0 0 0 0 0 0 0 0 0 0 0 127 0" result="hardAlpha"/>
<feOffset dy="4"/>
<feGaussianBlur stdDeviation="2"/>
<feComposite in2="hardAlpha" operator="out"/>
<feColorMatrix type="matrix" values="0 0 0 0 0 0 0 0 0 0 0 0 0 0 0 0 0 0 0.25 0"/>
<feBlend mode="normal" in2="BackgroundImageFix" result="effect1_dropShadow_1607_3413"/>
<feBlend mode="normal" in="SourceGraphic" in2="effect1_dropShadow_1607_3413" result="shape"/>
</filter>
<filter id="filter2_d_1607_3413" x="29.8613" y="70.7891" width="126.922" height="43.7539" filterUnits="userSpaceOnUse" color-interpolation-filters="sRGB">
<feFlood flood-opacity="0" result="BackgroundImageFix"/>
<feColorMatrix in="SourceAlpha" type="matrix" values="0 0 0 0 0 0 0 0 0 0 0 0 0 0 0 0 0 0 127 0" result="hardAlpha"/>
<feOffset dy="4"/>
<feGaussianBlur stdDeviation="2"/>
<feComposite in2="hardAlpha" operator="out"/>
<feColorMatrix type="matrix" values="0 0 0 0 0 0 0 0 0 0 0 0 0 0 0 0 0 0 0.25 0"/>
<feBlend mode="normal" in2="BackgroundImageFix" result="effect1_dropShadow_1607_3413"/>
<feBlend mode="normal" in="SourceGraphic" in2="effect1_dropShadow_1607_3413" result="shape"/>
</filter>
</defs>
</svg>
