<svg width="188" height="151" viewBox="0 0 188 151" fill="none" xmlns="http://www.w3.org/2000/svg">
<g filter="url(#filter0_d_2024_2541)">
<path d="M132.574 108.869L136.509 84.788C136.509 84.788 150.916 84.4274 159.975 85.7857C169.033 87.144 183.356 91.967 183.356 91.967L173.172 102.967L179.421 116.048C179.421 116.048 165.098 111.225 156.04 109.867C146.982 108.509 132.574 108.869 132.574 108.869Z" fill="white"/>
<path d="M136.935 85.2793C137.001 85.278 137.074 85.277 137.155 85.2756C137.565 85.2684 138.162 85.2592 138.906 85.253C140.395 85.2404 142.475 85.2374 144.837 85.2771C149.567 85.3567 155.406 85.606 159.901 86.28C164.394 86.9538 170.213 88.4908 174.922 89.8655C177.274 90.5518 179.343 91.1965 180.824 91.6689C181.503 91.8855 182.058 92.0666 182.46 92.1985L172.805 102.627L172.574 102.876L172.721 103.182L178.465 115.209C178.113 115.094 177.686 114.954 177.193 114.797C175.706 114.323 173.628 113.676 171.267 112.987C166.552 111.611 160.679 110.057 156.115 109.372C151.551 108.688 145.657 108.438 140.919 108.359C138.547 108.319 136.458 108.322 134.962 108.334C134.215 108.34 133.615 108.349 133.202 108.356C133.19 108.357 133.177 108.357 133.165 108.357L136.935 85.2793Z" stroke="#8DA2FF"/>
</g>
<g filter="url(#filter1_d_2024_2541)">
<path d="M51.0105 84.6867L53.8657 108.92C53.8657 108.92 38.8304 108.754 29.7485 109.946C20.6666 111.137 6.85507 114.931 6.85507 114.931L13.6127 101.551L3.99979 90.6985C3.99979 90.6985 17.8113 86.904 26.8932 85.7128C35.9751 84.5216 51.0105 84.6867 51.0105 84.6867Z" fill="white"/>
<path d="M53.3029 108.416C53.2713 108.415 53.2384 108.415 53.2044 108.414C52.7745 108.412 52.1503 108.411 51.3733 108.413C49.8194 108.416 47.6527 108.432 45.2018 108.486C40.3052 108.594 34.2531 108.851 29.6836 109.45C25.1155 110.049 19.371 111.301 14.7798 112.399C12.4817 112.949 10.4677 113.461 9.02849 113.836C8.55497 113.959 8.14389 114.069 7.80496 114.159L14.0591 101.777L14.2122 101.473L13.9866 101.22L4.91046 90.9702C5.29285 90.8679 5.80586 90.7319 6.42584 90.5704C7.86009 90.1967 9.8671 89.6867 12.1571 89.1389C16.7419 88.0422 22.4441 86.8002 26.9578 86.2081C31.4702 85.6163 37.4774 85.3602 42.3689 85.2527C44.8117 85.199 46.9719 85.1829 48.5208 85.1798C49.295 85.1782 49.9164 85.1801 50.3441 85.1822C50.425 85.1826 50.4988 85.1833 50.5656 85.1837L53.3029 108.416Z" stroke="#8DA2FF"/>
</g>
<path d="M150.634 111.941L150.182 112.237L94.6484 148.574L94.1006 148.933L93.5537 148.574L38.0205 112.237L37.5674 111.941V38.1855L38.0205 37.8896L93.5537 1.55273L94.1006 1.19434L94.6484 1.55273L150.182 37.8896L150.634 38.1855V111.941Z" stroke="#8DA2FF" stroke-width="2"/>
<path d="M147.62 39.9707V110.315L94.0996 145.197L40.5801 110.158V39.9697L94.0996 5.31738L147.62 39.9707Z" fill="#5559DC" stroke="#23255F"/>
<path d="M38.5254 108.875L33.8618 106.543L38.5254 105.766V108.875Z" fill="#D9D9D9"/>
<path d="M149.674 108.875V106.155L152.783 106.543L149.674 108.875Z" fill="#D9D9D9"/>
<g filter="url(#filter2_d_2024_2541)">
<path d="M33.8633 75.3149C33.8633 75.3149 69.9633 70.7891 93.3239 70.7891C116.685 70.7891 152.785 75.3149 152.785 75.3149V106.543C152.785 106.543 116.685 102.017 93.3239 102.017C69.9633 102.017 33.8633 106.543 33.8633 106.543V75.3149Z" fill="white"/>
<path d="M93.3242 71.2891C104.98 71.2891 119.826 72.4186 131.768 73.5498C137.736 74.1152 142.976 74.6805 146.723 75.1045C148.596 75.3165 150.096 75.4936 151.128 75.6172C151.626 75.6769 152.015 75.7239 152.284 75.7568V105.978C152.024 105.946 151.676 105.904 151.247 105.853C150.213 105.729 148.711 105.551 146.835 105.339C143.083 104.914 137.837 104.348 131.861 103.782C119.913 102.651 105.029 101.518 93.3242 101.518C81.6192 101.518 66.7342 102.65 54.7861 103.782C48.8099 104.348 43.5642 104.914 39.8125 105.339C37.9367 105.551 36.4341 105.729 35.4004 105.853C34.9719 105.904 34.6239 105.946 34.3633 105.978V75.7568C34.6322 75.7239 35.0213 75.6769 35.5195 75.6172C36.5512 75.4936 38.0515 75.3165 39.9248 75.1045C43.6719 74.6805 48.912 74.1152 54.8809 73.5498C66.8229 72.4186 81.6688 71.2891 93.3242 71.2891Z" stroke="#8DA2FF"/>
</g>
<path d="M52.0961 95.3896H47.1671V80.8442H52.1955C53.6396 80.8442 54.8801 81.1354 55.9171 81.7178C56.9587 82.2954 57.7589 83.1264 58.3176 84.2107C58.8764 85.295 59.1557 86.5923 59.1557 88.1027C59.1557 89.6179 58.874 90.92 58.3105 92.009C57.7518 93.098 56.9445 93.9337 55.8887 94.5161C54.8375 95.0985 53.5733 95.3896 52.0961 95.3896ZM49.802 93.1098H51.9682C52.9815 93.1098 53.8266 92.9252 54.5037 92.5558C55.1808 92.1818 55.6898 91.6254 56.0307 90.8868C56.3716 90.1434 56.5421 89.2154 56.5421 88.1027C56.5421 86.99 56.3716 86.0667 56.0307 85.3328C55.6898 84.5942 55.1855 84.0426 54.5179 83.678C53.8551 83.3087 53.0312 83.124 52.0463 83.124H49.802V93.1098ZM64.2942 80.8442V95.3896H61.6593V80.8442H64.2942ZM69.0154 95.3896H66.2029L71.3237 80.8442H74.5765L79.7044 95.3896H76.8919L73.0069 83.8271H72.8933L69.0154 95.3896ZM69.1078 89.6865H76.7782V91.803H69.1078V89.6865ZM81.6202 80.8442H84.8446L89.1628 91.384H89.3333L93.6515 80.8442H96.8759V95.3896H94.3475V85.3968H94.2125L90.1926 95.347H88.3034L84.2836 85.3754H84.1486V95.3896H81.6202V80.8442ZM112.742 88.1169C112.742 89.6842 112.449 91.0265 111.862 92.1439C111.279 93.2566 110.484 94.1089 109.475 94.7007C108.472 95.2926 107.333 95.5885 106.059 95.5885C104.785 95.5885 103.644 95.2926 102.636 94.7007C101.632 94.1041 100.837 93.2495 100.249 92.1368C99.6671 91.0194 99.3759 89.6794 99.3759 88.1169C99.3759 86.5497 99.6671 85.2097 100.249 84.097C100.837 82.9796 101.632 82.125 102.636 81.5331C103.644 80.9413 104.785 80.6453 106.059 80.6453C107.333 80.6453 108.472 80.9413 109.475 81.5331C110.484 82.125 111.279 82.9796 111.862 84.097C112.449 85.2097 112.742 86.5497 112.742 88.1169ZM110.093 88.1169C110.093 87.0137 109.92 86.0833 109.575 85.3257C109.234 84.5634 108.76 83.9881 108.154 83.5999C107.548 83.2069 106.85 83.0104 106.059 83.0104C105.268 83.0104 104.57 83.2069 103.964 83.5999C103.358 83.9881 102.882 84.5634 102.536 85.3257C102.195 86.0833 102.025 87.0137 102.025 88.1169C102.025 89.2201 102.195 90.1529 102.536 90.9152C102.882 91.6728 103.358 92.2481 103.964 92.6411C104.57 93.0293 105.268 93.2235 106.059 93.2235C106.85 93.2235 107.548 93.0293 108.154 92.6411C108.76 92.2481 109.234 91.6728 109.575 90.9152C109.92 90.1529 110.093 89.2201 110.093 88.1169ZM127.187 80.8442V95.3896H124.843L117.989 85.482H117.868V95.3896H115.233V80.8442H117.591L124.438 90.759H124.566V80.8442H127.187ZM134.987 95.3896H130.058V80.8442H135.086C136.53 80.8442 137.771 81.1354 138.808 81.7178C139.849 82.2954 140.65 83.1264 141.208 84.2107C141.767 85.295 142.046 86.5923 142.046 88.1027C142.046 89.6179 141.765 90.92 141.201 92.009C140.642 93.098 139.835 93.9337 138.779 94.5161C137.728 95.0985 136.464 95.3896 134.987 95.3896ZM132.693 93.1098H134.859C135.872 93.1098 136.717 92.9252 137.394 92.5558C138.071 92.1818 138.58 91.6254 138.921 90.8868C139.262 90.1434 139.433 89.2154 139.433 88.1027C139.433 86.99 139.262 86.0667 138.921 85.3328C138.58 84.5942 138.076 84.0426 137.409 83.678C136.746 83.3087 135.922 83.124 134.937 83.124H132.693V93.1098Z" fill="#5559DB"/>
<path d="M92.7292 70.4619L67.4681 33.2351L76.7748 22.5989H108.684L117.99 33.2351L92.7292 70.4619Z" fill="#D9D9D9"/>
<path d="M92.7307 22.5986L104.032 33.2349H81.4297L92.7307 22.5986Z" fill="#767AEE"/>
<path d="M76.7755 22.5986L81.4288 33.2349H67.4688L76.7755 22.5986Z" fill="#BCC8FF" fill-opacity="0.56"/>
<path d="M108.685 22.5986L117.991 33.2349H104.031L108.685 22.5986Z" fill="#8E90EA"/>
<path d="M76.7754 22.5986H92.7297L81.4287 33.2349L76.7754 22.5986Z" fill="#989BFF"/>
<path d="M92.7305 22.5986H108.685L104.031 33.2349L92.7305 22.5986Z" fill="#B4C1F7" fill-opacity="0.56"/>
<path d="M81.4297 33.2354H104.032L92.7307 70.4622L81.4297 33.2354Z" fill="#A8B7F8" fill-opacity="0.56"/>
<path d="M67.4688 33.2354H81.4288L92.7298 70.4622L67.4688 33.2354Z" fill="#8E90EA"/>
<path d="M104.031 33.2354H117.992L92.7305 70.4622L104.031 33.2354Z" fill="#767AFF"/>
<defs>
<filter id="filter0_d_2024_2541" x="128.574" y="84.7451" width="58.7812" height="39.3027" filterUnits="userSpaceOnUse" color-interpolation-filters="sRGB">
<feFlood flood-opacity="0" result="BackgroundImageFix"/>
<feColorMatrix in="SourceAlpha" type="matrix" values="0 0 0 0 0 0 0 0 0 0 0 0 0 0 0 0 0 0 127 0" result="hardAlpha"/>
<feOffset dy="4"/>
<feGaussianBlur stdDeviation="2"/>
<feComposite in2="hardAlpha" operator="out"/>
<feColorMatrix type="matrix" values="0 0 0 0 0 0 0 0 0 0 0 0 0 0 0 0 0 0 0.25 0"/>
<feBlend mode="normal" in2="BackgroundImageFix" result="effect1_dropShadow_2024_2541"/>
<feBlend mode="normal" in="SourceGraphic" in2="effect1_dropShadow_2024_2541" result="shape"/>
</filter>
<filter id="filter1_d_2024_2541" x="0" y="84.6787" width="57.8652" height="38.2529" filterUnits="userSpaceOnUse" color-interpolation-filters="sRGB">
<feFlood flood-opacity="0" result="BackgroundImageFix"/>
<feColorMatrix in="SourceAlpha" type="matrix" values="0 0 0 0 0 0 0 0 0 0 0 0 0 0 0 0 0 0 127 0" result="hardAlpha"/>
<feOffset dy="4"/>
<feGaussianBlur stdDeviation="2"/>
<feComposite in2="hardAlpha" operator="out"/>
<feColorMatrix type="matrix" values="0 0 0 0 0 0 0 0 0 0 0 0 0 0 0 0 0 0 0.25 0"/>
<feBlend mode="normal" in2="BackgroundImageFix" result="effect1_dropShadow_2024_2541"/>
<feBlend mode="normal" in="SourceGraphic" in2="effect1_dropShadow_2024_2541" result="shape"/>
</filter>
<filter id="filter2_d_2024_2541" x="29.8633" y="70.7891" width="126.922" height="43.7539" filterUnits="userSpaceOnUse" color-interpolation-filters="sRGB">
<feFlood flood-opacity="0" result="BackgroundImageFix"/>
<feColorMatrix in="SourceAlpha" type="matrix" values="0 0 0 0 0 0 0 0 0 0 0 0 0 0 0 0 0 0 127 0" result="hardAlpha"/>
<feOffset dy="4"/>
<feGaussianBlur stdDeviation="2"/>
<feComposite in2="hardAlpha" operator="out"/>
<feColorMatrix type="matrix" values="0 0 0 0 0 0 0 0 0 0 0 0 0 0 0 0 0 0 0.25 0"/>
<feBlend mode="normal" in2="BackgroundImageFix" result="effect1_dropShadow_2024_2541"/>
<feBlend mode="normal" in="SourceGraphic" in2="effect1_dropShadow_2024_2541" result="shape"/>
</filter>
</defs>
</svg>
