<svg width="53" height="48" viewBox="0 0 53 48" fill="none" xmlns="http://www.w3.org/2000/svg">
<g filter="url(#filter0_d_2047_1413)">
<path d="M26.4268 39.6406L4.14267 2.20246H48.7109L26.4268 39.6406Z" fill="url(#paint0_linear_2047_1413)"/>
</g>
<path d="M0 0H52.8539L48.6812 2.20225H4.17268L0 0Z" fill="url(#paint1_linear_2047_1413)"/>
<path d="M0 0H52.8539L48.6812 2.20225H4.17268L0 0Z" fill="url(#paint2_linear_2047_1413)"/>
<path d="M52.8535 0L26.4266 42.9438V39.6404L48.6808 2.20225L52.8535 0Z" fill="url(#paint3_linear_2047_1413)"/>
<path d="M52.8535 0L26.4266 42.9438V39.6404L48.6808 2.20225L52.8535 0Z" fill="url(#paint4_linear_2047_1413)"/>
<path d="M4.17346 2.20225L26.4277 39.6404V42.9438L0.000787735 0L4.17346 2.20225Z" fill="url(#paint5_linear_2047_1413)"/>
<path d="M4.17346 2.20225L26.4277 39.6404V42.9438L0.000787735 0L4.17346 2.20225Z" fill="url(#paint6_linear_2047_1413)"/>
<defs>
<filter id="filter0_d_2047_1413" x="0.142578" y="2.20215" width="52.5684" height="45.4385" filterUnits="userSpaceOnUse" color-interpolation-filters="sRGB">
<feFlood flood-opacity="0" result="BackgroundImageFix"/>
<feColorMatrix in="SourceAlpha" type="matrix" values="0 0 0 0 0 0 0 0 0 0 0 0 0 0 0 0 0 0 127 0" result="hardAlpha"/>
<feOffset dy="4"/>
<feGaussianBlur stdDeviation="2"/>
<feComposite in2="hardAlpha" operator="out"/>
<feColorMatrix type="matrix" values="0 0 0 0 0 0 0 0 0 0 0 0 0 0 0 0 0 0 0.25 0"/>
<feBlend mode="normal" in2="BackgroundImageFix" result="effect1_dropShadow_2047_1413"/>
<feBlend mode="normal" in="SourceGraphic" in2="effect1_dropShadow_2047_1413" result="shape"/>
</filter>
<linearGradient id="paint0_linear_2047_1413" x1="20.8632" y1="-5.87244" x2="1.17347" y2="31.0758" gradientUnits="userSpaceOnUse">
<stop stop-color="#E6B86A"/>
<stop offset="0.6902" stop-color="#CD7F32"/>
<stop offset="1" stop-color="#7C482B"/>
</linearGradient>
<linearGradient id="paint1_linear_2047_1413" x1="18.777" y1="-2.56929" x2="52.8899" y2="0.728415" gradientUnits="userSpaceOnUse">
<stop stop-color="#E6B86A"/>
<stop offset="1" stop-color="#CF9A3F"/>
</linearGradient>
<linearGradient id="paint2_linear_2047_1413" x1="18.777" y1="-2.56929" x2="52.8899" y2="0.728415" gradientUnits="userSpaceOnUse">
<stop stop-color="#E6B86A"/>
<stop offset="1" stop-color="#CF9A3F"/>
</linearGradient>
<linearGradient id="paint3_linear_2047_1413" x1="40.7412" y1="-2.20225" x2="44.7786" y2="30.0974" gradientUnits="userSpaceOnUse">
<stop stop-color="#CD7F32"/>
<stop offset="1" stop-color="#C5996D"/>
</linearGradient>
<linearGradient id="paint4_linear_2047_1413" x1="40.7412" y1="-2.20225" x2="44.7786" y2="30.0974" gradientUnits="userSpaceOnUse">
<stop stop-color="#CD7F32"/>
<stop offset="1" stop-color="#C5996D"/>
</linearGradient>
<linearGradient id="paint5_linear_2047_1413" x1="1.7394" y1="13.9476" x2="14.1078" y2="32.0563" gradientUnits="userSpaceOnUse">
<stop stop-color="#A8560A"/>
<stop offset="1" stop-color="#E6B86A"/>
</linearGradient>
<linearGradient id="paint6_linear_2047_1413" x1="1.7394" y1="13.9476" x2="14.1078" y2="32.0563" gradientUnits="userSpaceOnUse">
<stop stop-color="#A8560A"/>
<stop offset="1" stop-color="#E6B86A"/>
</linearGradient>
</defs>
</svg>
