<svg width="51" height="48" viewBox="0 0 51 48" fill="none" xmlns="http://www.w3.org/2000/svg">
<path d="M25.2604 47.8633L-0.000610352 10.6365L9.30609 0.000244141H41.2148L50.5215 10.6365L25.2604 47.8633Z" fill="#D9D9D9"/>
<path d="M25.2619 0L36.5629 10.6362H13.9609L25.2619 0Z" fill="#767AEE"/>
<path d="M9.3067 0L13.9601 10.6362H0L9.3067 0Z" fill="#BCC8FF" fill-opacity="0.56"/>
<path d="M41.2159 0L50.5226 10.6362H36.5625L41.2159 0Z" fill="#8E90EA"/>
<path d="M9.30664 0H25.261L13.96 10.6362L9.30664 0Z" fill="#989BFF"/>
<path d="M25.2617 0H41.2161L36.5627 10.6362L25.2617 0Z" fill="#B4C1F7" fill-opacity="0.56"/>
<path d="M13.9609 10.6367H36.5629L25.2619 47.8635L13.9609 10.6367Z" fill="#A8B7F8" fill-opacity="0.56"/>
<path d="M0 10.6367H13.9601L25.261 47.8635L0 10.6367Z" fill="#8E90EA"/>
<path d="M36.5627 10.6367H50.5228L25.2617 47.8635L36.5627 10.6367Z" fill="#767AFF"/>
</svg>
