<svg width="59" height="59" viewBox="0 0 59 59" fill="none" xmlns="http://www.w3.org/2000/svg">
<path d="M29.1474 0L35.6914 20.1403L56.8682 20.1403L39.7358 32.5877L46.2798 52.7281L29.1474 40.2807L12.015 52.7281L18.559 32.5877L1.42657 20.1403L22.6034 20.1403L29.1474 0Z" fill="#D9D9D9"/>
<path d="M35.8516 20.1117L29.1477 27.3985V0L35.8516 20.1117Z" fill="#EEA22B"/>
<path d="M22.5705 20.1113L29.1466 27.3982L1.29297 20.1113H22.5705Z" fill="#EEA22B"/>
<path d="M46.3438 52.7568L29.1468 27.3986L39.6399 32.3537L46.3438 52.7568Z" fill="#FFF0AF"/>
<path d="M11.9495 52.7568L29.1465 27.3986V40.2235L11.9495 52.7568Z" fill="#FFF0AF"/>
<path d="M56.8379 20.1409L29.1479 27.3986L35.7279 19.8203L56.8379 20.1409Z" fill="#FFF0AF"/>
<path d="M39.6412 32.6455L29.1482 27.399L56.8672 20.1471L39.6412 32.6455Z" fill="#EEA22B"/>
<path d="M29.1465 40.1297V27.3049L46.3434 52.6631L29.1465 40.1297Z" fill="#EEA22B"/>
<path d="M18.6551 32.3535L29.1481 27.3984L11.9512 52.7566L18.6551 32.3535Z" fill="#EEA22B"/>
<path d="M1.45703 20.1121L29.147 27.399L18.654 32.6455L1.45703 20.1121Z" fill="#FFF0AF"/>
<path d="M29.1472 0V27.3988L22.4434 20.112L29.1472 0Z" fill="#FFF0AF"/>
</svg>
