<svg width="38" height="54" viewBox="0 0 38 54" fill="none" xmlns="http://www.w3.org/2000/svg">
<g filter="url(#filter0_i_1607_3386)">
<path d="M2.66211 26.9372L18.6324 3.515L34.6028 26.9372L18.6324 50.3594L2.66211 26.9372Z" fill="url(#paint0_linear_1607_3386)"/>
</g>
<path d="M18.6328 0L27.9488 13.4678L37.2649 26.9355H34.6031L18.6328 3.51333V0Z" fill="url(#paint1_linear_1607_3386)"/>
<path d="M18.6328 0L27.9488 13.4678L37.2649 26.9355H34.6031L18.6328 3.51333V0Z" fill="url(#paint2_linear_1607_3386)"/>
<path d="M18.6328 53.873L0.000772655 26.9375H2.66249L18.6328 50.3597V53.873Z" fill="url(#paint3_linear_1607_3386)"/>
<path d="M18.6328 53.873L0.000772655 26.9375H2.66249L18.6328 50.3597V53.873Z" fill="url(#paint4_linear_1607_3386)"/>
<path d="M0 26.9355L18.632 2.98023e-05V3.51336L2.66172 26.9355H0Z" fill="url(#paint5_linear_1607_3386)"/>
<path d="M0 26.9355L18.632 2.98023e-05V3.51336L2.66172 26.9355H0Z" fill="url(#paint6_linear_1607_3386)"/>
<path d="M37.2637 26.9355L18.6316 53.8711V50.3577L34.602 26.9355H37.2637Z" fill="url(#paint7_linear_1607_3386)"/>
<path d="M37.2637 26.9355L18.6316 53.8711V50.3577L34.602 26.9355H37.2637Z" fill="url(#paint8_linear_1607_3386)"/>
<defs>
<filter id="filter0_i_1607_3386" x="2.66211" y="3.51465" width="31.9414" height="46.8447" filterUnits="userSpaceOnUse" color-interpolation-filters="sRGB">
<feFlood flood-opacity="0" result="BackgroundImageFix"/>
<feBlend mode="normal" in="SourceGraphic" in2="BackgroundImageFix" result="shape"/>
<feColorMatrix in="SourceAlpha" type="matrix" values="0 0 0 0 0 0 0 0 0 0 0 0 0 0 0 0 0 0 127 0" result="hardAlpha"/>
<feOffset/>
<feGaussianBlur stdDeviation="2"/>
<feComposite in2="hardAlpha" operator="arithmetic" k2="-1" k3="1"/>
<feColorMatrix type="matrix" values="0 0 0 0 0 0 0 0 0 0 0 0 0 0 0 0 0 0 0.25 0"/>
<feBlend mode="normal" in2="shape" result="effect1_innerShadow_1607_3386"/>
</filter>
<linearGradient id="paint0_linear_1607_3386" x1="19.6994" y1="23.7169" x2="-14.3052" y2="28.4457" gradientUnits="userSpaceOnUse">
<stop stop-color="#D9D9D9"/>
<stop offset="1" stop-color="#737373"/>
</linearGradient>
<linearGradient id="paint1_linear_1607_3386" x1="31.9414" y1="14.0533" x2="11.9411" y2="4.9619" gradientUnits="userSpaceOnUse">
<stop offset="0.0288462" stop-color="#AFAFAF"/>
<stop offset="1" stop-color="#6C6C6C"/>
</linearGradient>
<linearGradient id="paint2_linear_1607_3386" x1="31.9414" y1="14.0533" x2="11.9411" y2="4.9619" gradientUnits="userSpaceOnUse">
<stop offset="0.0288462" stop-color="#AFAFAF"/>
<stop offset="1" stop-color="#6C6C6C"/>
</linearGradient>
<linearGradient id="paint3_linear_1607_3386" x1="0.000771921" y1="28.6942" x2="24.272" y2="48.8335" gradientUnits="userSpaceOnUse">
<stop stop-color="#696969"/>
<stop offset="1" stop-color="#DEDBDB"/>
</linearGradient>
<linearGradient id="paint4_linear_1607_3386" x1="0.000771921" y1="28.6942" x2="24.272" y2="48.8335" gradientUnits="userSpaceOnUse">
<stop stop-color="#696969"/>
<stop offset="1" stop-color="#DEDBDB"/>
</linearGradient>
<linearGradient id="paint5_linear_1607_3386" x1="17.3012" y1="-2.34219" x2="-8.75888" y2="23.37" gradientUnits="userSpaceOnUse">
<stop offset="0.0336538" stop-color="#F5F4F4"/>
<stop offset="0.399038" stop-color="#D9D9D9"/>
<stop offset="1" stop-color="#838383"/>
</linearGradient>
<linearGradient id="paint6_linear_1607_3386" x1="17.3012" y1="-2.34219" x2="-8.75888" y2="23.37" gradientUnits="userSpaceOnUse">
<stop offset="0.0336538" stop-color="#F5F4F4"/>
<stop offset="0.399038" stop-color="#D9D9D9"/>
<stop offset="1" stop-color="#838383"/>
</linearGradient>
<linearGradient id="paint7_linear_1607_3386" x1="32.2175" y1="31.053" x2="18.6659" y2="50.8592" gradientUnits="userSpaceOnUse">
<stop stop-color="#F4F4F4"/>
<stop offset="1" stop-color="#7D7C7C"/>
</linearGradient>
<linearGradient id="paint8_linear_1607_3386" x1="32.2175" y1="31.053" x2="18.6659" y2="50.8592" gradientUnits="userSpaceOnUse">
<stop stop-color="#F4F4F4"/>
<stop offset="1" stop-color="#7D7C7C"/>
</linearGradient>
</defs>
</svg>
