<svg width="24" height="24" viewBox="0 0 24 24" fill="none" xmlns="http://www.w3.org/2000/svg">
<path d="M8.52832 0C8.8385 7.06861e-05 9.14441 0.0722858 9.42188 0.210938L9.80371 0.401367C9.93423 0.466627 10.0713 0.518319 10.2129 0.553711L12 1L13.7871 0.553711C13.9287 0.518319 14.0658 0.466627 14.1963 0.401367L14.5781 0.210938C14.8556 0.0722858 15.1615 7.06861e-05 15.4717 0H16.0283C16.3385 7.07598e-05 16.6444 0.0722859 16.9219 0.210938L17.5 0.5L19 1.5L20.335 2.39062C20.4444 2.46357 20.5466 2.54669 20.6396 2.63965L21.8604 3.86035C21.9533 3.95337 22.0364 4.05562 22.1094 4.16504L23 5.5L23.7891 7.07812C23.9277 7.35559 23.9999 7.6615 24 7.97168V8.67188C23.9999 9.2022 23.7891 9.71094 23.4141 10.0859L23.2295 10.2705C23.0775 10.4225 22.9022 10.5494 22.71 10.6455L22.1963 10.9014C22.0658 10.9666 21.9287 11.0183 21.7871 11.0537L20.5967 11.3506C20.2267 11.4431 19.8351 11.335 19.5654 11.0654L19.1758 10.6758C18.8434 10.3434 18.2825 10.4341 18.0723 10.8545C18.0246 10.95 18.0001 11.0554 18 11.1621V13.2539C18 13.4174 18.0199 13.5807 18.0596 13.7393L18.5 15.5L19.5 20.5L19.5947 20.9746C19.8163 22.0824 19.0772 23.154 17.9629 23.3398L17.1631 23.4727C17.0546 23.4907 16.9449 23.5 16.835 23.5H7.16504C7.05509 23.5 6.94536 23.4907 6.83691 23.4727L6.03711 23.3398C4.92281 23.154 4.18372 22.0824 4.40527 20.9746L4.5 20.5L5.5 15.5L5.94043 13.7393C5.98008 13.5807 5.99999 13.4174 6 13.2539V11.1621C5.99993 11.0554 5.97545 10.95 5.92773 10.8545C5.71752 10.4341 5.15659 10.3434 4.82422 10.6758L4.43457 11.0654C4.16487 11.335 3.77328 11.4431 3.40332 11.3506L2.21289 11.0537C2.07132 11.0183 1.93423 10.9666 1.80371 10.9014L1.29004 10.6455C1.09779 10.5494 0.922495 10.4225 0.770508 10.2705L0.585938 10.0859C0.210936 9.71094 8.00464e-05 9.2022 0 8.67188V7.97168C7.07599e-05 7.6615 0.072286 7.35559 0.210938 7.07812L1 5.5L1.89062 4.16504C1.96357 4.05562 2.04669 3.95337 2.13965 3.86035L3.36035 2.63965C3.45336 2.54669 3.55562 2.46357 3.66504 2.39062L5 1.5L6.5 0.5L7.07812 0.210938C7.35559 0.0722859 7.6615 7.07598e-05 7.97168 0H8.52832Z" fill="white"/>
<path d="M14 1C14 2.10457 13.0987 2.87598 11.9941 2.87598C10.9313 2.87598 10.0641 2.04674 10 1C10.5062 1.52859 11.3064 1.87598 11.9941 1.87598C12.6871 1.87598 13.4935 1.52265 13.999 0.987305C13.999 0.991537 14 0.995765 14 1Z" fill="#0C4EA1"/>
</svg>
