<svg width="78" height="73" viewBox="0 0 78 73" fill="none" xmlns="http://www.w3.org/2000/svg">
<path d="M34.6634 0.90507C37.2444 -0.201096 40.1481 -0.296917 42.7962 0.637492L43.1028 0.745891C46.4542 1.92879 49.1108 4.5344 50.3587 7.8621L51.2845 10.3309C51.462 10.8044 51.5867 11.295 51.6585 11.7937H60.6917C65.045 11.7938 68.7742 14.9101 69.5481 19.1941L77.3167 62.1941C78.3138 67.7155 74.0701 72.7937 68.4593 72.7937H9.00223C3.39183 72.7933 -0.851182 67.7152 0.145787 62.1941L7.91434 19.1941C8.68825 14.9102 12.4175 11.7939 16.7708 11.7937H26.8118C26.8958 11.2726 27.0445 10.7622 27.2571 10.2762L28.8196 6.70487C29.9595 4.09941 32.0496 2.02562 34.6634 0.90507ZM26.7307 16.7937C26.7308 17.6348 26.8818 18.4692 27.177 19.2566L28.1028 21.7254C29.3507 25.053 32.0074 27.6587 35.3587 28.8416L35.6653 28.95C38.3134 29.8846 41.217 29.7885 43.7981 28.6824C46.4122 27.562 48.5019 25.4882 49.6419 22.8826L51.2044 19.3113C51.5517 18.5175 51.7307 17.6602 51.7307 16.7937H48.7307C48.7307 17.2462 48.6367 17.6937 48.4554 18.1082L46.8929 21.6805C46.0584 23.5874 44.5287 25.1056 42.6155 25.9256C40.7264 26.7349 38.6014 26.8049 36.6634 26.1209L36.3577 26.0125C33.8428 25.1248 31.8489 23.1698 30.9124 20.6726L29.9866 18.2029C29.8177 17.7523 29.7308 17.275 29.7307 16.7937H26.7307ZM41.7981 3.46659C39.8601 2.78275 37.735 2.85248 35.846 3.66191C33.933 4.48196 32.403 6.00022 31.5686 7.90702L30.0061 11.4793C29.9612 11.5821 29.9221 11.6873 29.888 11.7937H48.6028C48.5672 11.6555 48.5252 11.5187 48.4749 11.3846L47.5491 8.91484C46.6125 6.41762 44.6188 4.46265 42.1038 3.57499L41.7981 3.46659Z" fill="white"/>
</svg>
