<svg width="78" height="73" viewBox="0 0 78 73" fill="none" xmlns="http://www.w3.org/2000/svg">
<path d="M34.6631 0.905029C37.2441 -0.201068 40.1479 -0.297001 42.7959 0.637451L43.1025 0.74585C46.4538 1.92871 49.1104 4.53452 50.3584 7.86206L51.2842 10.3308C51.4617 10.8043 51.5864 11.2951 51.6582 11.7937H60.6914C65.0446 11.7938 68.7738 14.9103 69.5479 19.1941L77.3164 62.1941C78.3135 67.7155 74.0698 72.7936 68.459 72.7937H9.00195C3.39132 72.7934 -0.851625 67.7154 0.145508 62.1941L7.91406 19.1941C8.68816 14.9103 12.4172 11.7937 16.7705 11.7937H26.8115C26.8955 11.2726 27.0442 10.7621 27.2568 10.2761L28.8193 6.70483C29.9593 4.09945 32.0493 2.02549 34.6631 0.905029ZM41.7979 3.46655C39.8599 2.78267 37.7347 2.85251 35.8457 3.66187C33.9327 4.48183 32.4028 6.00026 31.5684 7.90698L30.0059 11.4792C29.9609 11.582 29.9218 11.6874 29.8877 11.7937H48.6025C48.5669 11.6556 48.5249 11.5185 48.4746 11.3845L47.5488 8.91479C46.6122 6.41774 44.6184 4.46257 42.1035 3.57495L41.7979 3.46655Z" fill="white"/>
</svg>
