<svg width="15" height="23" viewBox="0 0 15 23" fill="none" xmlns="http://www.w3.org/2000/svg">
<path d="M0.291603 10.5668L0.536396 10.9689C0.668726 11.1863 0.842646 11.3755 1.04819 11.5256C1.54712 11.8899 1.84211 12.4705 1.84211 13.0883V21.3596C1.84211 21.8833 2.09219 22.3756 2.51517 22.6844C2.79602 22.8895 3.13477 23 3.48251 23H3.68421H3.83956C4.21001 23 4.56335 22.8441 4.81313 22.5706C5.03492 22.3277 5.15789 22.0106 5.15789 21.6817V13.0883C5.15789 12.4705 5.45288 11.8899 5.95181 11.5256C6.15735 11.3755 6.33127 11.1863 6.4636 10.9689L6.7084 10.5668C6.89912 10.2534 7 9.8937 7 9.52689V0.659165C7 0.494696 6.93852 0.336168 6.82762 0.21471C6.70273 0.0779275 6.52606 0 6.34083 0H5.81706C5.63184 0 5.45516 0.0779275 5.33028 0.21471C5.21938 0.336168 5.15789 0.494696 5.15789 0.659165V6.05263H4.42105V0.659165C4.42105 0.494696 4.35957 0.336168 4.24867 0.21471C4.12378 0.0779275 3.94711 0 3.76189 0H3.68421H3.23811C3.05289 0 2.87622 0.0779275 2.75133 0.21471C2.64043 0.336168 2.57895 0.494696 2.57895 0.659165V6.05263H1.84211V0.659165C1.84211 0.494696 1.78062 0.336168 1.66972 0.21471C1.54484 0.0779275 1.36816 0 1.18294 0H0.659165C0.473944 0 0.29727 0.0779275 0.172381 0.21471C0.0614848 0.336168 0 0.494696 0 0.659165V9.52689C0 9.8937 0.100879 10.2534 0.291603 10.5668Z" fill="white"/>
<path d="M13.2686 23H13.4615H13.9572C14.3593 23 14.7256 22.7688 14.8986 22.4058C14.9653 22.2657 15 22.1124 15 21.9572V1.02069C15 0.641225 14.7895 0.293083 14.4535 0.11681C14.3072 0.0400838 14.1445 0 13.9793 0H13.8462C13.5935 0 13.3447 0.0613097 13.1209 0.178665L12.6923 0.403509L12.2146 0.6541C12.0215 0.755364 11.8464 0.887507 11.696 1.0453L11.2891 1.47218C11.1991 1.56652 11.1186 1.66943 11.0487 1.77944L10.5644 2.54162C10.4454 2.72894 10.3584 2.93477 10.3069 3.15067L10.0545 4.20999C10.0183 4.36187 10 4.51747 10 4.6736V13.887C10 14.0423 10.0347 14.1955 10.1014 14.3357L10.1285 14.3924C10.285 14.7207 10.6162 14.9298 10.9799 14.9298C11.5008 14.9298 11.9231 15.3521 11.9231 15.873V21.6544C11.9231 22.0001 12.0561 22.3326 12.2947 22.5828C12.5486 22.8492 12.9006 23 13.2686 23Z" fill="white"/>
</svg>
