<svg width="24" height="23" viewBox="0 0 24 23" fill="none" xmlns="http://www.w3.org/2000/svg">
<path d="M18.2686 23H18.9572C19.3593 23 19.7256 22.7688 19.8986 22.4058C19.9653 22.2657 20 22.1124 20 21.9572V1.02069C20 0.641225 19.7895 0.293083 19.4535 0.11681C19.3072 0.0400837 19.1445 0 18.9793 0H18.8462C18.5935 0 18.3447 0.0613093 18.1209 0.178665L17.2146 0.6541C17.0215 0.755364 16.8464 0.887507 16.696 1.0453L16.2891 1.47218C16.1991 1.56652 16.1186 1.66943 16.0487 1.77944L15.5644 2.54162C15.4454 2.72894 15.3584 2.93477 15.3069 3.15067L15.0545 4.20999C15.0183 4.36187 15 4.51747 15 4.6736V13.887C15 14.0423 15.0347 14.1955 15.1014 14.3357L15.1285 14.3924C15.285 14.7207 15.6162 14.9298 15.9799 14.9298C16.5008 14.9298 16.9231 15.3521 16.9231 15.873V21.6544C16.9231 22.0001 17.0561 22.3326 17.2947 22.5828C17.5486 22.8492 17.9006 23 18.2686 23Z" fill="white"/>
<path d="M3.2916 10.5668L3.5364 10.9689C3.66873 11.1863 3.84265 11.3755 4.04819 11.5256C4.54712 11.8899 4.84211 12.4705 4.84211 13.0883V21.3596C4.84211 21.8833 5.09219 22.3756 5.51517 22.6844C5.79602 22.8895 6.13477 23 6.48251 23H6.83956C7.21001 23 7.56335 22.8441 7.81313 22.5706C8.03492 22.3277 8.15789 22.0106 8.15789 21.6817V13.0883C8.15789 12.4705 8.45288 11.8899 8.95181 11.5256C9.15735 11.3755 9.33127 11.1863 9.4636 10.9689L9.7084 10.5668C9.89912 10.2534 10 9.8937 10 9.52689V0.659165C10 0.494696 9.93852 0.336168 9.82762 0.21471C9.70273 0.0779275 9.52606 0 9.34083 0H8.81706C8.63184 0 8.45516 0.0779274 8.33028 0.21471C8.21938 0.336168 8.15789 0.494696 8.15789 0.659165V6.05263H7.42105V0.659165C7.42105 0.494696 7.35957 0.336168 7.24867 0.21471C7.12378 0.0779275 6.94711 0 6.76189 0H6.23811C6.05289 0 5.87622 0.0779274 5.75133 0.21471C5.64043 0.336168 5.57895 0.494696 5.57895 0.659165V6.05263H4.84211V0.659165C4.84211 0.494696 4.78062 0.336168 4.66972 0.21471C4.54484 0.0779275 4.36816 0 4.18294 0H3.65917C3.47394 0 3.29727 0.0779274 3.17238 0.21471C3.06148 0.336168 3 0.494696 3 0.659165V9.52689C3 9.8937 3.10088 10.2534 3.2916 10.5668Z" fill="white"/>
</svg>
