<svg width="52" height="32" viewBox="0 0 52 32" fill="none" xmlns="http://www.w3.org/2000/svg">
<path d="M45.6651 0.278966C47.8687 0.125135 49.7803 1.7866 49.9344 3.9902L51.3399 24.0905C51.494 26.2941 49.8322 28.2055 47.6287 28.3598L16.4656 30.539L16.4288 30.0139C16.4459 30.0161 16.464 30.0163 16.4818 30.0151C16.625 30.0046 16.7337 29.8801 16.7237 29.7368L16.6146 28.1771C16.6046 28.0338 16.4796 27.9256 16.3363 27.9352C16.3185 27.9364 16.3007 27.9391 16.2841 27.9437L16.2107 26.8945C16.2278 26.8968 16.2458 26.897 16.2637 26.8957C16.4067 26.8853 16.5154 26.7606 16.5056 26.6174L16.3964 25.0568C16.3863 24.9136 16.2613 24.8053 16.1182 24.8149C16.1003 24.8161 16.0825 24.8188 16.0659 24.8234L15.9925 23.7742C16.0096 23.7765 16.0276 23.7767 16.0455 23.7754C16.1886 23.765 16.2973 23.6404 16.2874 23.4971L16.1783 21.9365C16.168 21.7934 16.0431 21.686 15.9 21.6955C15.8822 21.6968 15.8643 21.6995 15.8478 21.7041L15.7743 20.6539C15.7914 20.6562 15.8094 20.6563 15.8273 20.6551C15.9705 20.6446 16.0792 20.5201 16.0692 20.3768L15.9601 18.8171C15.9501 18.6738 15.8251 18.5656 15.6818 18.5752C15.664 18.5765 15.6462 18.5792 15.6296 18.5838L15.5561 17.5336C15.5732 17.5358 15.5913 17.536 15.6091 17.5348C15.7523 17.5243 15.861 17.3998 15.851 17.2565L15.7419 15.6968C15.7319 15.5535 15.6069 15.4453 15.4636 15.4549C15.4458 15.4562 15.428 15.4589 15.4114 15.4635L15.3379 14.4133C15.355 14.4155 15.3731 14.4157 15.3909 14.4145C15.5341 14.404 15.6428 14.2795 15.6328 14.1362L15.5237 12.5765C15.5137 12.4332 15.3887 12.325 15.2454 12.3346C15.2276 12.3358 15.2098 12.3385 15.1932 12.3431L15.1198 11.294C15.1369 11.2962 15.1549 11.2964 15.1728 11.2951C15.3159 11.2847 15.4245 11.16 15.4147 11.0168L15.3056 9.45621C15.2954 9.31301 15.1704 9.20472 15.0273 9.21429C15.0094 9.21554 14.9916 9.21823 14.975 9.22284L14.9016 8.17364C14.9187 8.17589 14.9367 8.17608 14.9546 8.17483C15.0977 8.16439 15.2064 8.03982 15.1965 7.89654L15.0874 6.3359C15.0771 6.1928 14.9522 6.08538 14.8091 6.09495C14.7913 6.0962 14.7734 6.09892 14.7569 6.1035L14.6834 5.05333C14.7005 5.05558 14.7185 5.05577 14.7364 5.05452C14.8796 5.04406 14.9883 4.91955 14.9783 4.77623L14.8692 3.21656C14.8592 3.07324 14.7342 2.96507 14.5909 2.97464C14.5731 2.97589 14.5553 2.97859 14.5387 2.98319L14.502 2.45811L45.6651 0.278966Z" fill="#083F8B"/>
<path d="M13.5639 2.45074L13.6006 2.97583C13.5834 2.97351 13.5656 2.9734 13.5476 2.97463C13.404 2.98468 13.2957 3.10933 13.3057 3.25293L13.4148 4.8126C13.4248 4.9562 13.5495 5.06456 13.6931 5.05452C13.7111 5.05323 13.7286 5.05066 13.7454 5.04597L13.8188 6.09614C13.8016 6.09384 13.7838 6.09371 13.7658 6.09494C13.6224 6.10497 13.5141 6.22887 13.5239 6.37227L13.633 7.93291C13.6431 8.07645 13.7677 8.18487 13.9113 8.17483C13.9293 8.17355 13.9468 8.17097 13.9635 8.16628L14.0369 9.21547C14.0197 9.21315 14.0019 9.21305 13.984 9.21428C13.8405 9.22432 13.7322 9.34909 13.742 9.49258L13.8512 11.0532C13.8614 11.1967 13.986 11.3052 14.1295 11.2951C14.1475 11.2939 14.165 11.2913 14.1817 11.2866L14.2551 12.3358C14.2379 12.3335 14.2201 12.3334 14.2022 12.3346C14.0586 12.3446 13.9502 12.4693 13.9602 12.6129L14.0693 14.1726C14.0793 14.3162 14.204 14.4245 14.3476 14.4145C14.3656 14.4132 14.3831 14.4106 14.3999 14.4059L14.4733 15.4561C14.4561 15.4538 14.4383 15.4537 14.4204 15.4549C14.2768 15.4649 14.1684 15.5896 14.1784 15.7332L14.2875 17.2929C14.2975 17.4365 14.4222 17.5448 14.5658 17.5348C14.5838 17.5335 14.6013 17.5309 14.6181 17.5262L14.6915 18.5764C14.6743 18.5741 14.6565 18.574 14.6385 18.5752C14.4949 18.5853 14.3866 18.7099 14.3966 18.8535L14.5057 20.4132C14.5157 20.5568 14.6404 20.6651 14.784 20.6551C14.802 20.6538 14.8195 20.6512 14.8363 20.6465L14.9097 21.6967C14.8925 21.6944 14.8747 21.6943 14.8567 21.6955C14.7133 21.7056 14.605 21.8294 14.6148 21.9728L14.7239 23.5335C14.734 23.677 14.8586 23.7854 15.0022 23.7754C15.0202 23.7741 15.0377 23.7715 15.0544 23.7669L15.1278 24.816C15.1106 24.8137 15.0928 24.8136 15.0749 24.8149C14.9313 24.8249 14.823 24.9496 14.8329 25.0932L14.9421 26.6538C14.9523 26.7972 15.0769 26.9057 15.2204 26.8957C15.2384 26.8944 15.2559 26.8919 15.2726 26.8872L15.346 27.9364C15.3288 27.934 15.311 27.9339 15.2931 27.9352C15.1495 27.9452 15.0411 28.0699 15.0511 28.2135L15.1602 29.7731C15.1702 29.9167 15.2949 30.0251 15.4385 30.0151C15.4565 30.0138 15.474 30.0112 15.4908 30.0065L15.5275 30.5316L5.68433 31.2199C3.48057 31.374 1.56915 29.7124 1.41505 27.5087L0.939013 20.7011C0.950254 20.7004 0.961918 20.7004 0.973178 20.6996C2.71481 20.5777 4.02782 19.0664 3.90603 17.3247C3.78402 15.5833 2.27361 14.2702 0.532091 14.3918C0.520834 14.3926 0.509215 14.3933 0.497994 14.3942L0.00949466 7.40832C-0.144607 5.20457 1.51697 3.29314 3.72073 3.13904L13.5639 2.45074Z" fill="#B16638"/>
<path d="M14.6068 2.45074L14.6436 2.97583C14.6264 2.97351 14.6086 2.9734 14.5906 2.97463C14.447 2.98468 14.3387 3.10933 14.3487 3.25293L14.4578 4.8126C14.4678 4.9562 14.5925 5.06456 14.7361 5.05452C14.754 5.05323 14.7716 5.05065 14.7883 5.04597L14.8618 6.09614C14.8445 6.09384 14.8268 6.09371 14.8088 6.09494C14.6654 6.10497 14.5571 6.22887 14.5668 6.37227L14.676 7.93291C14.6861 8.07645 14.8107 8.18487 14.9542 8.17483C14.9722 8.17355 14.9898 8.17097 15.0065 8.16628L15.0799 9.21547C15.0627 9.21315 15.0449 9.21305 15.0269 9.21428C14.8834 9.22432 14.7751 9.34909 14.785 9.49258L14.8941 11.0532C14.9044 11.1967 15.029 11.3052 15.1724 11.2951C15.1904 11.2939 15.208 11.2913 15.2247 11.2866L15.2981 12.3358C15.2809 12.3335 15.2631 12.3334 15.2451 12.3346C15.1016 12.3446 14.9932 12.4693 15.0032 12.6129L15.1123 14.1726C15.1223 14.3162 15.247 14.4245 15.3906 14.4145C15.4085 14.4132 15.4261 14.4106 15.4428 14.4059L15.5163 15.4561C15.4991 15.4538 15.4813 15.4537 15.4633 15.4549C15.3197 15.4649 15.2114 15.5896 15.2214 15.7332L15.3305 17.2929C15.3405 17.4365 15.4652 17.5448 15.6088 17.5348C15.6267 17.5335 15.6443 17.5309 15.661 17.5262L15.7345 18.5764C15.7173 18.5741 15.6995 18.574 15.6815 18.5752C15.5379 18.5853 15.4296 18.7099 15.4396 18.8535L15.5487 20.4132C15.5587 20.5568 15.6834 20.6651 15.827 20.6551C15.8449 20.6538 15.8625 20.6512 15.8792 20.6465L15.9527 21.6967C15.9354 21.6944 15.9177 21.6943 15.8997 21.6955C15.7563 21.7056 15.6479 21.8294 15.6577 21.9728L15.7669 23.5335C15.777 23.677 15.9016 23.7854 16.0451 23.7754C16.0631 23.7741 16.0807 23.7715 16.0974 23.7669L16.1708 24.816C16.1536 24.8137 16.1358 24.8136 16.1178 24.8149C15.9743 24.8249 15.866 24.9496 15.8759 25.0932L15.985 26.6538C15.9953 26.7972 16.1199 26.9057 16.2633 26.8957C16.2813 26.8944 16.2989 26.8919 16.3156 26.8872L16.389 27.9364C16.3718 27.934 16.354 27.9339 16.336 27.9352C16.1924 27.9452 16.0841 28.0699 16.0941 28.2135L16.2032 29.7731C16.2132 29.9167 16.3379 30.0251 16.4815 30.0151C16.4994 30.0138 16.517 30.0112 16.5337 30.0065L16.5704 30.5316L6.7273 31.2199C4.52354 31.374 2.61212 29.7124 2.45802 27.5087L1.98178 20.6981C1.99302 20.6975 2.00468 20.6975 2.01594 20.6967C3.75758 20.5747 5.07059 19.0635 4.9488 17.3218C4.8268 15.5803 3.31638 14.2673 1.57486 14.3889C1.5636 14.3897 1.55198 14.3904 1.54076 14.3913L1.05246 7.40832C0.898362 5.20457 2.55994 3.29314 4.76369 3.13904L14.6068 2.45074Z" fill="#C67C4E"/>
<text transform="translate(7.55469 29.0934) rotate(-95)" fill="#A2A2A2" xml:space="preserve" style="white-space: pre" font-family="Inter" font-size="5" font-weight="600" letter-spacing="0em"><tspan x="0" y="4.81818">COUPON</tspan></text>
<text transform="translate(8.00586 29.0934) rotate(-95)" fill="white" xml:space="preserve" style="white-space: pre" font-family="Inter" font-size="5" font-weight="600" letter-spacing="0em"><tspan x="0" y="4.81818">COUPON</tspan></text>
<text transform="translate(40.8672 26.1263) rotate(172)" fill="white" xml:space="preserve" style="white-space: pre" font-family="Inter" font-size="18" letter-spacing="0em"><tspan x="0" y="17.5455">%</tspan></text>
<text transform="translate(41.8652 26.0565) rotate(172)" fill="#083F8B" stroke="white" stroke-width="0.2" xml:space="preserve" style="white-space: pre" font-family="Inter" font-size="18" letter-spacing="0em"><tspan x="0" y="17.5455">%</tspan></text>
</svg>
