<svg width="52" height="39" viewBox="0 0 52 39" fill="none" xmlns="http://www.w3.org/2000/svg">
<g filter="url(#filter0_i_1935_243)">
<path d="M45.8203 5.46691C48.008 5.77436 49.5322 7.79704 49.2247 9.98468L46.5804 28.7998C46.273 30.9874 44.2503 32.5116 42.0627 32.2042L12.5529 28.0568L12.6231 27.5568C12.6386 27.5623 12.6549 27.5662 12.6718 27.5686C12.8085 27.5878 12.9349 27.4926 12.9541 27.3558L13.1629 25.8704C13.1821 25.7337 13.0869 25.6073 12.9501 25.5881C12.9333 25.5857 12.9166 25.5841 12.9003 25.585L13.0407 24.586C13.0561 24.5915 13.0724 24.5954 13.0893 24.5978C13.226 24.617 13.3524 24.5218 13.3717 24.385L13.5804 22.8996C13.5996 22.7629 13.5044 22.6365 13.3676 22.6173C13.3508 22.6149 13.3341 22.6132 13.3178 22.6142L13.4582 21.6152C13.4737 21.6207 13.4899 21.6246 13.5068 21.627C13.6435 21.6462 13.77 21.551 13.7892 21.4142L13.9979 19.9288C14.0172 19.7921 13.9219 19.6657 13.7852 19.6465C13.7683 19.6441 13.7516 19.6424 13.7353 19.6434L13.8757 18.6444C13.8912 18.6499 13.9075 18.6538 13.9243 18.6562C14.0611 18.6754 14.1875 18.5802 14.2067 18.4434L14.4155 16.958C14.4347 16.8213 14.3394 16.6949 14.2027 16.6757C14.1859 16.6733 14.1691 16.6716 14.1528 16.6726L14.2932 15.6736C14.3087 15.6791 14.325 15.683 14.3419 15.6854C14.4786 15.7046 14.605 15.6094 14.6242 15.4726L14.833 13.9872C14.8522 13.8505 14.7569 13.7241 14.6202 13.7049C14.6034 13.7025 14.5867 13.7008 14.5703 13.7018L14.7107 12.7028C14.7262 12.7083 14.7425 12.7122 14.7594 12.7146C14.8961 12.7338 15.0225 12.6385 15.0417 12.5018L15.2505 11.0164C15.2697 10.8797 15.1744 10.7533 15.0377 10.7341C15.0209 10.7317 15.0042 10.73 14.9879 10.731L15.1283 9.73202C15.1437 9.73748 15.16 9.74142 15.1769 9.74379C15.3136 9.76301 15.44 9.66774 15.4593 9.53102L15.668 8.04561C15.6872 7.90889 15.592 7.78247 15.4552 7.76325C15.4384 7.76089 15.4217 7.75923 15.4054 7.76019L15.5458 6.76122C15.5613 6.76668 15.5775 6.77061 15.5944 6.77299C15.7311 6.7922 15.8576 6.69694 15.8768 6.56021L16.0855 5.07481C16.1048 4.93808 16.0095 4.81167 15.8728 4.79245C15.8559 4.79009 15.8392 4.78842 15.8229 4.78939L15.9633 3.79042C15.9788 3.79587 15.9951 3.79981 16.0119 3.80218C16.1487 3.8214 16.2751 3.72614 16.2943 3.58941L16.5031 2.10401C16.5223 1.96728 16.427 1.84086 16.2903 1.82165C16.2735 1.81928 16.2567 1.81762 16.2404 1.81858L16.3105 1.31958L45.8203 5.46691Z" fill="#083F8B"/>
</g>
<g filter="url(#filter1_i_1935_243)">
<path d="M16.4116 1.33378L16.3413 1.83375C16.3256 1.82812 16.3089 1.82426 16.2917 1.82184C16.155 1.80263 16.0286 1.89789 16.0093 2.03462L15.8006 3.52002C15.7814 3.65675 15.8766 3.78316 16.0134 3.80238C16.0306 3.8048 16.0476 3.80568 16.0643 3.80461L15.9238 4.80455C15.908 4.79893 15.8914 4.79507 15.8742 4.79265C15.7375 4.77343 15.611 4.86869 15.5918 5.00542L15.3831 6.49082C15.3638 6.62755 15.4591 6.75397 15.5958 6.77318C15.613 6.7756 15.6301 6.77648 15.6468 6.77542L15.5063 7.77536C15.4905 7.76973 15.4739 7.76587 15.4567 7.76345C15.3199 7.74424 15.1935 7.8395 15.1743 7.97623L14.9655 9.46163C14.9463 9.59836 15.0416 9.72477 15.1783 9.74399C15.1955 9.74641 15.2126 9.74728 15.2293 9.74622L15.0887 10.7462C15.073 10.7405 15.0564 10.7367 15.0391 10.7343C14.9024 10.715 14.776 10.8103 14.7568 10.947L14.548 12.4324C14.5288 12.5692 14.6241 12.6956 14.7608 12.7148C14.778 12.7172 14.7951 12.7181 14.8118 12.717L14.6712 13.717C14.6555 13.7113 14.6388 13.7075 14.6216 13.7051C14.4849 13.6858 14.3585 13.7811 14.3393 13.9178L14.1305 15.4032C14.1113 15.54 14.2065 15.6664 14.3433 15.6856C14.3605 15.688 14.3776 15.6889 14.3942 15.6878L14.2537 16.6878C14.238 16.6821 14.2213 16.6783 14.2041 16.6759C14.0674 16.6566 13.941 16.7519 13.9217 16.8886L13.713 18.374C13.6938 18.5108 13.789 18.6372 13.9258 18.6564C13.943 18.6588 13.96 18.6597 13.9767 18.6586L13.8362 19.6586C13.8204 19.6529 13.8038 19.6491 13.7866 19.6467C13.6499 19.6275 13.5234 19.7227 13.5042 19.8594L13.2955 21.3448C13.2762 21.4816 13.3715 21.608 13.5082 21.6272C13.5254 21.6296 13.5425 21.6305 13.5592 21.6294L13.4187 22.6294C13.4029 22.6238 13.3863 22.6199 13.3691 22.6175C13.2323 22.5983 13.1059 22.6935 13.0867 22.8302L12.8779 24.3156C12.8587 24.4524 12.954 24.5788 13.0907 24.598C13.1079 24.6004 13.125 24.6013 13.1417 24.6002L13.0012 25.6002C12.9854 25.5946 12.9688 25.5907 12.9515 25.5883C12.8148 25.5691 12.6884 25.6643 12.6692 25.8011L12.4604 27.2865C12.4412 27.4232 12.5365 27.5496 12.6732 27.5688C12.6904 27.5712 12.7075 27.5721 12.7242 27.571L12.6539 28.071L3.44363 26.7766C1.25599 26.4691 -0.2682 24.4465 0.039253 22.2588L2.68354 3.44374C2.99099 1.2561 5.01367 -0.268094 7.20131 0.0393584L16.4116 1.33378Z" fill="white"/>
</g>
<g filter="url(#filter2_di_1935_243)">
<path d="M43.1318 3.62183C45.341 3.62183 47.1318 5.41269 47.1318 7.62183V26.6218C47.1318 28.831 45.341 30.6218 43.1318 30.6218H13.332V30.1169C13.3481 30.1202 13.3648 30.1218 13.3818 30.1218C13.5199 30.1218 13.6318 30.0099 13.6318 29.8718V28.3718C13.6318 28.2338 13.5199 28.1218 13.3818 28.1218C13.3649 28.1218 13.3481 28.1225 13.332 28.1257V27.1169C13.3481 27.1202 13.3648 27.1218 13.3818 27.1218C13.5199 27.1218 13.6318 27.0099 13.6318 26.8718V25.3718C13.6318 25.2338 13.5199 25.1218 13.3818 25.1218C13.3649 25.1218 13.3481 25.1225 13.332 25.1257V24.1169C13.3481 24.1202 13.3648 24.1218 13.3818 24.1218C13.5199 24.1218 13.6318 24.0099 13.6318 23.8718V22.3718C13.6318 22.2338 13.5199 22.1218 13.3818 22.1218C13.3649 22.1218 13.3481 22.1225 13.332 22.1257V21.1169C13.3481 21.1202 13.3648 21.1218 13.3818 21.1218C13.5199 21.1218 13.6318 21.0099 13.6318 20.8718V19.3718C13.6318 19.2338 13.5199 19.1218 13.3818 19.1218C13.3649 19.1218 13.3481 19.1225 13.332 19.1257V18.1169C13.3481 18.1202 13.3648 18.1218 13.3818 18.1218C13.5199 18.1218 13.6318 18.0099 13.6318 17.8718V16.3718C13.6318 16.2338 13.5199 16.1218 13.3818 16.1218C13.3649 16.1218 13.3481 16.1225 13.332 16.1257V15.1169C13.3481 15.1202 13.3648 15.1218 13.3818 15.1218C13.5199 15.1218 13.6318 15.0099 13.6318 14.8718V13.3718C13.6318 13.2338 13.5199 13.1218 13.3818 13.1218C13.3649 13.1218 13.3481 13.1225 13.332 13.1257V12.1169C13.3481 12.1202 13.3648 12.1218 13.3818 12.1218C13.5199 12.1218 13.6318 12.0099 13.6318 11.8718V10.3718C13.6318 10.2338 13.5199 10.1218 13.3818 10.1218C13.3649 10.1218 13.3481 10.1225 13.332 10.1257V9.11694C13.3481 9.1202 13.3648 9.12183 13.3818 9.12183C13.5199 9.12183 13.6318 9.0099 13.6318 8.87183V7.37183C13.6318 7.23375 13.5199 7.12183 13.3818 7.12183C13.3649 7.12183 13.3481 7.12251 13.332 7.12573V6.11694C13.3481 6.1202 13.3648 6.12183 13.3818 6.12183C13.5199 6.12183 13.6318 6.0099 13.6318 5.87183V4.37183C13.6318 4.23375 13.5199 4.12183 13.3818 4.12183C13.3649 4.12183 13.3481 4.12251 13.332 4.12573V3.62183H43.1318Z" fill="#083F8B"/>
</g>
<g filter="url(#filter3_i_1935_243)">
<path d="M13.4336 3.62183V4.12671C13.4172 4.12333 13.4002 4.12183 13.3828 4.12183C13.2447 4.12183 13.1328 4.23375 13.1328 4.37183V5.87183C13.1328 6.0099 13.2447 6.12183 13.3828 6.12183C13.4002 6.12183 13.4172 6.12032 13.4336 6.11694V7.12671C13.4172 7.12333 13.4002 7.12183 13.3828 7.12183C13.2447 7.12183 13.1328 7.23375 13.1328 7.37183V8.87183C13.1328 9.0099 13.2447 9.12183 13.3828 9.12183C13.4002 9.12183 13.4172 9.12032 13.4336 9.11694V10.1267C13.4172 10.1233 13.4002 10.1218 13.3828 10.1218C13.2447 10.1218 13.1328 10.2338 13.1328 10.3718V11.8718C13.1328 12.0099 13.2447 12.1218 13.3828 12.1218C13.4002 12.1218 13.4172 12.1203 13.4336 12.1169V13.1267C13.4172 13.1233 13.4002 13.1218 13.3828 13.1218C13.2447 13.1218 13.1328 13.2338 13.1328 13.3718V14.8718C13.1328 15.0099 13.2447 15.1218 13.3828 15.1218C13.4002 15.1218 13.4172 15.1203 13.4336 15.1169V16.1267C13.4172 16.1233 13.4002 16.1218 13.3828 16.1218C13.2447 16.1218 13.1328 16.2338 13.1328 16.3718V17.8718C13.1328 18.0099 13.2447 18.1218 13.3828 18.1218C13.4002 18.1218 13.4172 18.1203 13.4336 18.1169V19.1267C13.4172 19.1233 13.4002 19.1218 13.3828 19.1218C13.2447 19.1218 13.1328 19.2338 13.1328 19.3718V20.8718C13.1328 21.0099 13.2447 21.1218 13.3828 21.1218C13.4002 21.1218 13.4172 21.1203 13.4336 21.1169V22.1267C13.4172 22.1233 13.4002 22.1218 13.3828 22.1218C13.2447 22.1218 13.1328 22.2338 13.1328 22.3718V23.8718C13.1328 24.0099 13.2447 24.1218 13.3828 24.1218C13.4002 24.1218 13.4172 24.1203 13.4336 24.1169V25.1267C13.4172 25.1233 13.4002 25.1218 13.3828 25.1218C13.2447 25.1218 13.1328 25.2338 13.1328 25.3718V26.8718C13.1328 27.0099 13.2447 27.1218 13.3828 27.1218C13.4002 27.1218 13.4172 27.1203 13.4336 27.1169V28.1267C13.4172 28.1233 13.4002 28.1218 13.3828 28.1218C13.2447 28.1218 13.1328 28.2338 13.1328 28.3718V29.8718C13.1328 30.0099 13.2447 30.1218 13.3828 30.1218C13.4002 30.1218 13.4172 30.1203 13.4336 30.1169V30.6218H4.13281C1.92367 30.6218 0.132813 28.831 0.132812 26.6218V20.6853C0.143546 20.6854 0.154279 20.6863 0.165039 20.6863C1.83981 20.6863 3.19727 19.3288 3.19727 17.6541C3.19715 15.9794 1.83974 14.6218 0.165039 14.6218C0.154284 14.6218 0.143541 14.6217 0.132812 14.6218V7.62183C0.132812 5.41269 1.92367 3.62183 4.13281 3.62183H13.4336Z" fill="white"/>
</g>
<g filter="url(#filter4_d_1935_243)">
<path d="M7.72337 25.1506V25.8147C7.61446 25.8336 7.51799 25.8685 7.43395 25.9194C7.34872 25.9703 7.27652 26.0336 7.21733 26.1094C7.15814 26.1852 7.11375 26.2716 7.08416 26.3686C7.05339 26.4645 7.038 26.5681 7.038 26.6794C7.038 26.877 7.08771 27.0522 7.18714 27.2049C7.28539 27.3576 7.42981 27.4772 7.62038 27.5636C7.80978 27.65 8.04119 27.6932 8.31463 27.6932C8.5928 27.6932 8.82718 27.65 9.01776 27.5636C9.20715 27.476 9.35038 27.3564 9.44744 27.2049C9.54332 27.0522 9.59126 26.8776 9.59126 26.6811C9.59126 26.5722 9.57706 26.4704 9.54865 26.3757C9.51906 26.2799 9.47585 26.194 9.41903 26.1183C9.36222 26.0413 9.29238 25.9768 9.20952 25.9247C9.12666 25.8715 9.03196 25.8348 8.92543 25.8147L8.92898 25.1506C9.1018 25.1754 9.26397 25.2293 9.41548 25.3122C9.567 25.3938 9.70076 25.501 9.81676 25.6335C9.93158 25.7661 10.0215 25.9212 10.0866 26.0987C10.1506 26.2763 10.1825 26.4734 10.1825 26.69C10.1825 27.0096 10.1085 27.2949 9.96058 27.5458C9.81262 27.7968 9.59896 27.9945 9.3196 28.1389C9.04025 28.2833 8.70526 28.3555 8.31463 28.3555C7.92282 28.3555 7.58783 28.2827 7.30966 28.1371C7.0303 27.9915 6.81664 27.7932 6.66868 27.5423C6.52071 27.2913 6.44673 27.0072 6.44673 26.69C6.44673 26.4876 6.47514 26.2994 6.53196 26.1254C6.58878 25.9514 6.67223 25.7963 6.78232 25.6602C6.89122 25.5241 7.02498 25.4122 7.18359 25.3246C7.34103 25.2358 7.52095 25.1778 7.72337 25.1506ZM8.31463 21.2981C8.70644 21.2981 9.04202 21.3714 9.32138 21.5182C9.59955 21.6638 9.81262 21.8627 9.96058 22.1148C10.1085 22.3658 10.1825 22.6504 10.1825 22.9689C10.1825 23.2873 10.1085 23.5726 9.96058 23.8247C9.81143 24.0756 9.59777 24.2745 9.3196 24.4213C9.04025 24.5669 8.70526 24.6397 8.31463 24.6397C7.92282 24.6397 7.58783 24.5669 7.30966 24.4213C7.0303 24.2745 6.81664 24.0756 6.66868 23.8247C6.52071 23.5726 6.44673 23.2873 6.44673 22.9689C6.44673 22.6504 6.52071 22.3658 6.66868 22.1148C6.81664 21.8627 7.0303 21.6638 7.30966 21.5182C7.58783 21.3714 7.92282 21.2981 8.31463 21.2981ZM8.31463 21.9603C8.03883 21.9603 7.80623 22.0035 7.61683 22.09C7.42625 22.1752 7.28243 22.2936 7.18537 22.4451C7.08712 22.5966 7.038 22.7712 7.038 22.9689C7.038 23.1665 7.08712 23.3411 7.18537 23.4927C7.28243 23.6442 7.42625 23.7631 7.61683 23.8495C7.80623 23.9348 8.03883 23.9774 8.31463 23.9774C8.59044 23.9774 8.82363 23.9348 9.0142 23.8495C9.2036 23.7631 9.34742 23.6442 9.44567 23.4927C9.54273 23.3411 9.59126 23.1665 9.59126 22.9689C9.59126 22.7712 9.54273 22.5966 9.44567 22.4451C9.34742 22.2936 9.2036 22.1752 9.0142 22.09C8.82363 22.0035 8.59044 21.9603 8.31463 21.9603ZM6.49645 18.383V17.7243H8.87216C9.13258 17.7243 9.36162 17.7858 9.5593 17.9089C9.75698 18.0309 9.91146 18.2025 10.0227 18.4239C10.1328 18.6452 10.1879 18.9038 10.1879 19.1998C10.1879 19.4969 10.1328 19.7561 10.0227 19.9775C9.91146 20.1988 9.75698 20.3705 9.5593 20.4924C9.36162 20.6143 9.13258 20.6753 8.87216 20.6753H6.49645V20.0165H8.81712C8.96863 20.0165 9.10357 19.9834 9.22195 19.9171C9.34032 19.8496 9.43324 19.7549 9.50071 19.633C9.567 19.5111 9.60014 19.3667 9.60014 19.1998C9.60014 19.0329 9.567 18.8885 9.50071 18.7665C9.43324 18.6434 9.34032 18.5487 9.22195 18.4824C9.10357 18.4162 8.96863 18.383 8.81712 18.383H6.49645ZM10.1328 17.0083H6.49645V15.6446C6.49645 15.3653 6.54853 15.1309 6.6527 14.9415C6.75687 14.7509 6.90009 14.6071 7.08239 14.5101C7.26349 14.4118 7.46946 14.3627 7.70028 14.3627C7.93348 14.3627 8.14062 14.4118 8.32173 14.5101C8.50284 14.6083 8.64548 14.7533 8.74964 14.9451C8.85263 15.1368 8.90412 15.373 8.90412 15.6535V16.5573H8.36257V15.7423C8.36257 15.5789 8.33416 15.4452 8.27734 15.341C8.22053 15.2369 8.1424 15.1599 8.04297 15.1102C7.94354 15.0593 7.82931 15.0338 7.70028 15.0338C7.57126 15.0338 7.45762 15.0593 7.35938 15.1102C7.26113 15.1599 7.18478 15.2374 7.13033 15.3428C7.07469 15.447 7.04688 15.5813 7.04688 15.7458V16.3495H10.1328V17.0083ZM8.31463 10.5412C8.70644 10.5412 9.04202 10.6146 9.32138 10.7614C9.59955 10.907 9.81262 11.1058 9.96058 11.358C10.1085 11.6089 10.1825 11.8936 10.1825 12.212C10.1825 12.5304 10.1085 12.8157 9.96058 13.0678C9.81143 13.3188 9.59777 13.5177 9.3196 13.6644C9.04025 13.81 8.70526 13.8828 8.31463 13.8828C7.92282 13.8828 7.58783 13.81 7.30966 13.6644C7.0303 13.5177 6.81664 13.3188 6.66868 13.0678C6.52071 12.8157 6.44673 12.5304 6.44673 12.212C6.44673 11.8936 6.52071 11.6089 6.66868 11.358C6.81664 11.1058 7.0303 10.907 7.30966 10.7614C7.58783 10.6146 7.92282 10.5412 8.31463 10.5412ZM8.31463 11.2035C8.03883 11.2035 7.80623 11.2467 7.61683 11.3331C7.42625 11.4183 7.28243 11.5367 7.18537 11.6882C7.08712 11.8397 7.038 12.0143 7.038 12.212C7.038 12.4097 7.08712 12.5843 7.18537 12.7358C7.28243 12.8873 7.42625 13.0063 7.61683 13.0927C7.80623 13.1779 8.03883 13.2205 8.31463 13.2205C8.59044 13.2205 8.82363 13.1779 9.0142 13.0927C9.2036 13.0063 9.34742 12.8873 9.44567 12.7358C9.54273 12.5843 9.59126 12.4097 9.59126 12.212C9.59126 12.0143 9.54273 11.8397 9.44567 11.6882C9.34742 11.5367 9.2036 11.4183 9.0142 11.3331C8.82363 11.2467 8.59044 11.2035 8.31463 11.2035ZM6.49645 6.93015H10.1328V7.51609L7.65589 9.22951V9.2597H10.1328V9.91843H6.49645V9.32895L8.97514 7.6173V7.58534H6.49645V6.93015Z" fill="#083F8B"/>
</g>
<path d="M29.6094 20.616C29.6094 19.9421 29.8525 19.3708 30.3389 18.9021C30.8252 18.4275 31.4111 18.1902 32.0967 18.1902C32.7646 18.1902 33.3359 18.4275 33.8105 18.9021C34.2852 19.3708 34.5225 19.9421 34.5225 20.616C34.5225 21.2664 34.2822 21.8289 33.8018 22.3035C33.3213 22.7722 32.7529 23.0066 32.0967 23.0066C31.4229 23.0066 30.8398 22.7722 30.3477 22.3035C29.8555 21.8289 29.6094 21.2664 29.6094 20.616ZM28.8359 20.5984C28.8359 21.5125 29.1523 22.2888 29.7852 22.9275C30.4238 23.5603 31.2002 23.8767 32.1143 23.8767C32.9873 23.8767 33.7344 23.5603 34.3555 22.9275C34.9824 22.2888 35.2959 21.5125 35.2959 20.5984C35.2959 19.6843 34.9824 18.905 34.3555 18.2605C33.7344 17.6101 32.9873 17.2849 32.1143 17.2849C31.2002 17.2849 30.4238 17.6072 29.7852 18.2517C29.1523 18.8904 28.8359 19.6726 28.8359 20.5984ZM21.2598 13.7605C21.2598 13.0867 21.5029 12.5125 21.9893 12.0378C22.4756 11.5632 23.0586 11.3259 23.7383 11.3259C24.4121 11.3259 24.9863 11.5632 25.4609 12.0378C25.9355 12.5125 26.1729 13.0867 26.1729 13.7605C26.1729 14.405 25.9326 14.9646 25.4521 15.4392C24.9717 15.9138 24.4004 16.1511 23.7383 16.1511C23.0703 16.1511 22.4902 15.9138 21.998 15.4392C21.5059 14.9646 21.2598 14.405 21.2598 13.7605ZM20.4863 13.7429C20.4863 14.6511 20.8027 15.4246 21.4355 16.0632C22.0742 16.696 22.8477 17.0125 23.7559 17.0125C24.6348 17.0125 25.3848 16.696 26.0059 16.0632C26.6328 15.4246 26.9463 14.6511 26.9463 13.7429C26.9463 12.8289 26.6328 12.0496 26.0059 11.405C25.3848 10.7546 24.6348 10.4294 23.7559 10.4294C22.8477 10.4294 22.0742 10.7517 21.4355 11.3962C20.8027 12.0349 20.4863 12.8171 20.4863 13.7429ZM30.8135 9.91968L24.1514 24.158L24.9248 24.4832L31.5869 10.2097L30.8135 9.91968ZM20.126 13.7429C20.126 12.7234 20.4775 11.8562 21.1807 11.1414C21.8896 10.4265 22.748 10.0691 23.7559 10.0691C24.5 10.0691 25.1826 10.1892 25.8037 10.4294C26.4307 10.6697 26.9639 11.0769 27.4033 11.6511C27.8428 12.2253 28.0625 12.9226 28.0625 13.7429C28.0625 14.7742 27.6699 15.6384 26.8848 16.3357C26.0996 17.0271 25.0566 17.3728 23.7559 17.3728C22.748 17.3728 21.8896 17.0212 21.1807 16.3181C20.4775 15.6091 20.126 14.7507 20.126 13.7429ZM28.4756 20.5984C28.4756 19.5789 28.8301 18.7117 29.5391 17.9968C30.248 17.282 31.1064 16.9246 32.1143 16.9246C33.4092 16.9246 34.4492 17.2761 35.2344 17.9792C36.0195 18.6824 36.4121 19.5554 36.4121 20.5984C36.4121 21.6296 36.0195 22.4939 35.2344 23.1912C34.4492 23.8884 33.4092 24.2371 32.1143 24.2371C31.1064 24.2371 30.248 23.8826 29.5391 23.1736C28.8301 22.4646 28.4756 21.6062 28.4756 20.5984ZM23.6855 24.3425L30.6377 9.47144H31.2617L32.7031 9.99878L25.7422 24.9578H25.1094L23.6855 24.3425ZM30.7256 20.616C30.7256 21.1082 30.8867 21.5476 31.209 21.9343C31.5371 22.3152 31.9385 22.5466 32.4131 22.6287C32.9053 22.5466 33.3184 22.3152 33.6523 21.9343C33.9922 21.5476 34.1621 21.1082 34.1621 20.616C34.1621 20.1003 33.9922 19.6521 33.6523 19.2712C33.3184 18.8845 32.9053 18.656 32.4131 18.5857C31.9385 18.656 31.5371 18.8845 31.209 19.2712C30.8867 19.6521 30.7256 20.1003 30.7256 20.616ZM22.376 13.7605C22.376 14.2527 22.5371 14.6921 22.8594 15.0789C23.1816 15.4597 23.583 15.6912 24.0635 15.7732C24.5557 15.6912 24.9688 15.4597 25.3027 15.0789C25.6426 14.6921 25.8125 14.2527 25.8125 13.7605C25.8125 13.2566 25.6455 12.8142 25.3115 12.4333C24.9834 12.0466 24.5674 11.8093 24.0635 11.7214C23.583 11.7976 23.1816 12.0291 22.8594 12.4158C22.5371 12.7966 22.376 13.2449 22.376 13.7605Z" fill="white"/>
<defs>
<filter id="filter0_i_1935_243" x="11.5527" y="1.31958" width="37.7109" height="31.9241" filterUnits="userSpaceOnUse" color-interpolation-filters="sRGB">
<feFlood flood-opacity="0" result="BackgroundImageFix"/>
<feBlend mode="normal" in="SourceGraphic" in2="BackgroundImageFix" result="shape"/>
<feColorMatrix in="SourceAlpha" type="matrix" values="0 0 0 0 0 0 0 0 0 0 0 0 0 0 0 0 0 0 127 0" result="hardAlpha"/>
<feOffset dx="-1" dy="1"/>
<feGaussianBlur stdDeviation="1"/>
<feComposite in2="hardAlpha" operator="arithmetic" k2="-1" k3="1"/>
<feColorMatrix type="matrix" values="0 0 0 0 0.0977718 0 0 0 0 0.341331 0 0 0 0 0.677885 0 0 0 1 0"/>
<feBlend mode="normal" in2="shape" result="effect1_innerShadow_1935_243"/>
</filter>
<filter id="filter1_i_1935_243" x="0" y="-0.5" width="16.9121" height="28.571" filterUnits="userSpaceOnUse" color-interpolation-filters="sRGB">
<feFlood flood-opacity="0" result="BackgroundImageFix"/>
<feBlend mode="normal" in="SourceGraphic" in2="BackgroundImageFix" result="shape"/>
<feColorMatrix in="SourceAlpha" type="matrix" values="0 0 0 0 0 0 0 0 0 0 0 0 0 0 0 0 0 0 127 0" result="hardAlpha"/>
<feOffset dx="0.5" dy="-0.5"/>
<feGaussianBlur stdDeviation="0.5"/>
<feComposite in2="hardAlpha" operator="arithmetic" k2="-1" k3="1"/>
<feColorMatrix type="matrix" values="0 0 0 0 0.932692 0 0 0 0 0.932692 0 0 0 0 0.932692 0 0 0 1 0"/>
<feBlend mode="normal" in2="shape" result="effect1_innerShadow_1935_243"/>
</filter>
<filter id="filter2_di_1935_243" x="9.33203" y="3.62183" width="41.8008" height="35" filterUnits="userSpaceOnUse" color-interpolation-filters="sRGB">
<feFlood flood-opacity="0" result="BackgroundImageFix"/>
<feColorMatrix in="SourceAlpha" type="matrix" values="0 0 0 0 0 0 0 0 0 0 0 0 0 0 0 0 0 0 127 0" result="hardAlpha"/>
<feOffset dy="4"/>
<feGaussianBlur stdDeviation="2"/>
<feComposite in2="hardAlpha" operator="out"/>
<feColorMatrix type="matrix" values="0 0 0 0 0 0 0 0 0 0 0 0 0 0 0 0 0 0 0.25 0"/>
<feBlend mode="normal" in2="BackgroundImageFix" result="effect1_dropShadow_1935_243"/>
<feBlend mode="normal" in="SourceGraphic" in2="effect1_dropShadow_1935_243" result="shape"/>
<feColorMatrix in="SourceAlpha" type="matrix" values="0 0 0 0 0 0 0 0 0 0 0 0 0 0 0 0 0 0 127 0" result="hardAlpha"/>
<feOffset dx="-1" dy="1"/>
<feGaussianBlur stdDeviation="1"/>
<feComposite in2="hardAlpha" operator="arithmetic" k2="-1" k3="1"/>
<feColorMatrix type="matrix" values="0 0 0 0 0.0977718 0 0 0 0 0.341331 0 0 0 0 0.677885 0 0 0 1 0"/>
<feBlend mode="normal" in2="shape" result="effect2_innerShadow_1935_243"/>
</filter>
<filter id="filter3_i_1935_243" x="0.132812" y="3.12183" width="13.8008" height="27.5" filterUnits="userSpaceOnUse" color-interpolation-filters="sRGB">
<feFlood flood-opacity="0" result="BackgroundImageFix"/>
<feBlend mode="normal" in="SourceGraphic" in2="BackgroundImageFix" result="shape"/>
<feColorMatrix in="SourceAlpha" type="matrix" values="0 0 0 0 0 0 0 0 0 0 0 0 0 0 0 0 0 0 127 0" result="hardAlpha"/>
<feOffset dx="0.5" dy="-0.5"/>
<feGaussianBlur stdDeviation="0.5"/>
<feComposite in2="hardAlpha" operator="arithmetic" k2="-1" k3="1"/>
<feColorMatrix type="matrix" values="0 0 0 0 0.932692 0 0 0 0 0.932692 0 0 0 0 0.932692 0 0 0 1 0"/>
<feBlend mode="normal" in2="shape" result="effect1_innerShadow_1935_243"/>
</filter>
<filter id="filter4_d_1935_243" x="6.44727" y="6.93018" width="3.74023" height="21.4253" filterUnits="userSpaceOnUse" color-interpolation-filters="sRGB">
<feFlood flood-opacity="0" result="BackgroundImageFix"/>
<feColorMatrix in="SourceAlpha" type="matrix" values="0 0 0 0 0 0 0 0 0 0 0 0 0 0 0 0 0 0 127 0" result="hardAlpha"/>
<feMorphology radius="4" operator="erode" in="SourceAlpha" result="effect1_dropShadow_1935_243"/>
<feOffset dx="0.5"/>
<feGaussianBlur stdDeviation="0.5"/>
<feComposite in2="hardAlpha" operator="out"/>
<feColorMatrix type="matrix" values="0 0 0 0 0 0 0 0 0 0 0 0 0 0 0 0 0 0 0.67 0"/>
<feBlend mode="hard-light" in2="BackgroundImageFix" result="effect1_dropShadow_1935_243"/>
<feBlend mode="normal" in="SourceGraphic" in2="effect1_dropShadow_1935_243" result="shape"/>
</filter>
</defs>
</svg>
