<svg width="21" height="17" viewBox="0 0 21 17" fill="none" xmlns="http://www.w3.org/2000/svg">
<path d="M0.75 8.25H20M0.75 12H20M0.75 15.75H20M2.9375 0.75H17.8125C18.3927 0.75 18.9491 0.947544 19.3593 1.29917C19.7695 1.65081 20 2.12772 20 2.625C20 3.12228 19.7695 3.59919 19.3593 3.95083C18.9491 4.30246 18.3927 4.5 17.8125 4.5H2.9375C2.35734 4.5 1.80094 4.30246 1.3907 3.95083C0.980468 3.59919 0.75 3.12228 0.75 2.625C0.75 2.12772 0.980468 1.65081 1.3907 1.29917C1.80094 0.947544 2.35734 0.75 2.9375 0.75Z" stroke="#083F8C" stroke-width="1.5" stroke-linecap="round" stroke-linejoin="round"/>
</svg>
