<svg width="26" height="19" viewBox="0 0 26 19" fill="none" xmlns="http://www.w3.org/2000/svg">
<path d="M18.5625 1.6875V2.625M18.5625 6.375V7.3125M18.5625 11.0625V12M18.5625 15.75V16.6875M7.3125 10.125H13.875M7.3125 12.9375H11.0625M2.15625 0.75C1.38 0.75 0.75 1.38 0.75 2.15625V5.93875C1.32093 6.26747 1.79516 6.74084 2.1249 7.31119C2.45464 7.88153 2.62826 8.5287 2.62826 9.1875C2.62826 9.8463 2.45464 10.4935 2.1249 11.0638C1.79516 11.6342 1.32093 12.1075 0.75 12.4362V16.2188C0.75 16.995 1.38 17.625 2.15625 17.625H23.7188C24.495 17.625 25.125 16.995 25.125 16.2188V12.4362C24.5541 12.1075 24.0798 11.6342 23.7501 11.0638C23.4204 10.4935 23.2467 9.8463 23.2467 9.1875C23.2467 8.5287 23.4204 7.88153 23.7501 7.31119C24.0798 6.74084 24.5541 6.26747 25.125 5.93875V2.15625C25.125 1.38 24.495 0.75 23.7188 0.75H2.15625Z" stroke="#083F8C" stroke-width="1.5" stroke-linecap="round" stroke-linejoin="round"/>
</svg>
