<svg width="30" height="30" viewBox="0 0 30 30" fill="none" xmlns="http://www.w3.org/2000/svg">
<path d="M20.625 5.5V6.4375M20.625 10.1875V11.125M20.625 14.875V15.8125M20.625 19.5625V20.5M9.375 13.9375H15.9375M9.375 16.75H13.125M4.21875 4.5625C3.4425 4.5625 2.8125 5.1925 2.8125 5.96875V9.75125C3.38343 10.08 3.85766 10.5533 4.1874 11.1237C4.51714 11.694 4.69076 12.3412 4.69076 13C4.69076 13.6588 4.51714 14.306 4.1874 14.8763C3.85766 15.4467 3.38343 15.92 2.8125 16.2487V20.0312C2.8125 20.8075 3.4425 21.4375 4.21875 21.4375H25.7812C26.5575 21.4375 27.1875 20.8075 27.1875 20.0312V16.2487C26.6166 15.92 26.1423 15.4467 25.8126 14.8763C25.4829 14.306 25.3092 13.6588 25.3092 13C25.3092 12.3412 25.4829 11.694 25.8126 11.1237C26.1423 10.5533 26.6166 10.08 27.1875 9.75125V5.96875C27.1875 5.1925 26.5575 4.5625 25.7812 4.5625H4.21875Z" stroke="#083F8C" stroke-width="1.5" stroke-linecap="round" stroke-linejoin="round"/>
</svg>
