<svg width="44" height="54" viewBox="0 0 44 54" fill="none" xmlns="http://www.w3.org/2000/svg">
<path d="M41.7861 39.5708L41.334 39.8667L22.6689 52.0796L22.1211 52.438L21.5732 52.0796L2.9082 39.8667L2.45605 39.5708V14.063L2.9082 13.7671L21.5732 1.55322L22.1211 1.19482L22.6689 1.55322L41.334 13.7671L41.7861 14.063V39.5708Z" stroke="#6C9BFF" stroke-width="2"/>
<path d="M39.7803 15.2014V38.4846L22.123 49.9924L4.4668 38.4329V15.2014L22.123 3.76978L39.7803 15.2014Z" fill="#FCFCFC" stroke="#083F8B"/>
<path d="M3.44336 38.1812L1.87588 37.3974L3.44336 37.1362V38.1812Z" fill="#D9D9D9"/>
<path d="M40.8007 38.1812V37.2668L41.8457 37.3974L40.8007 38.1812Z" fill="#D9D9D9"/>
<path d="M22.238 29.5874L13.7474 16.9895L16.8755 13.3901H27.6004L30.7285 16.9895L22.238 29.5874Z" fill="#D9D9D9"/>
<path d="M22.2378 13.3901L26.0362 16.9895H18.4395L22.2378 13.3901Z" fill="#2E6ABE"/>
<path d="M16.8761 13.3901L18.4402 16.9895H13.748L16.8761 13.3901Z" fill="#BCC8FF" fill-opacity="0.56"/>
<path d="M27.6012 13.3901L30.7292 16.9895H26.0371L27.6012 13.3901Z" fill="#2F6BBD"/>
<path d="M16.877 13.3901H22.2394L18.441 16.9895L16.877 13.3901Z" fill="#083F8B"/>
<path d="M22.2383 13.3901H27.6007L26.0367 16.9895L22.2383 13.3901Z" fill="#C7CEED"/>
<path d="M18.4395 16.9895H26.0362L22.2378 29.5874L18.4395 16.9895Z" fill="#C6CDEC"/>
<path d="M13.748 16.9895H18.4402L22.2386 29.5874L13.748 16.9895Z" fill="#2F6BBE"/>
<path d="M26.0367 16.9895H30.7288L22.2383 29.5874L26.0367 16.9895Z" fill="#083F8B"/>
<path d="M22 29.0151C26.301 29.0151 31.7851 29.3616 36.2021 29.7095C38.4088 29.8833 40.3462 30.0576 41.7314 30.188C42.4238 30.2531 42.9782 30.3072 43.3594 30.3452C43.4091 30.3502 43.4562 30.3545 43.5 30.3589V38.9614C43.4866 38.9601 43.4729 38.9589 43.459 38.9575C43.0761 38.9194 42.5197 38.8647 41.8252 38.7993C40.436 38.6686 38.4931 38.4951 36.2803 38.3208C31.8582 37.9725 26.3422 37.6226 22 37.6226C17.6578 37.6226 12.1418 37.9725 7.71973 38.3208C5.50686 38.4951 3.56397 38.6686 2.1748 38.7993C1.48035 38.8647 0.923876 38.9194 0.541016 38.9575C0.527121 38.9589 0.513436 38.9601 0.5 38.9614V30.3589C0.543776 30.3545 0.590867 30.3502 0.640625 30.3452C1.02184 30.3072 1.57624 30.2531 2.26855 30.188C3.65385 30.0576 5.59119 29.8833 7.79785 29.7095C12.2149 29.3616 17.699 29.0151 22 29.0151Z" fill="white" stroke="#6C9BFF"/>
<path d="M22.8516 30.165L23.6233 32.5403H26.1208L24.1003 34.0083L24.8721 36.3835L22.8516 34.9155L20.8311 36.3835L21.6028 34.0083L19.5823 32.5403H22.0798L22.8516 30.165Z" fill="#C67C4E"/>
<path d="M10.2849 30.584L11.3404 32.8475L13.8193 32.5431L11.9927 34.2464L13.0482 36.5099L10.8639 35.2991L9.03732 37.0024L9.51386 34.5508L7.32951 33.34L9.80838 33.0356L10.2849 30.584Z" fill="#C67C4E"/>
<path d="M34.6638 30.7217L35.1404 33.1733L37.6192 33.4776L35.4349 34.6884L35.9114 37.14L34.0849 35.4368L31.9005 36.6476L32.956 34.3841L31.1295 32.6808L33.6083 32.9852L34.6638 30.7217Z" fill="#C67C4E"/>
</svg>
