<svg width="44" height="41" viewBox="0 0 44 41" fill="none" xmlns="http://www.w3.org/2000/svg">
<path d="M32.8839 24.0258C32.9342 24.0252 32.9885 24.0241 33.0465 24.0236C33.4081 24.0206 33.9138 24.0199 34.4873 24.0295C35.6405 24.0489 37.0471 24.1099 38.1199 24.2708C39.1914 24.4315 40.5927 24.8004 41.7417 25.1357C42.2298 25.2782 42.6676 25.415 43.0093 25.5229L41.0532 27.6355L40.8225 27.8848L40.9685 28.1906L41.9967 30.3456C41.7188 30.2596 41.402 30.1617 41.0605 30.062C39.9055 29.7249 38.4487 29.3388 37.306 29.1675C36.1646 28.9964 34.7035 28.9352 33.5424 28.9157C32.9634 28.906 32.4531 28.9072 32.0858 28.9102L32.8839 24.0258Z" fill="white" stroke="#6C9BFF"/>
<path d="M36.6641 29.5776L36.2109 29.8745L22.6367 38.7563L22.0889 39.1147L21.541 38.7563L7.9668 29.8745L7.51367 29.5776V10.7319L7.9668 10.436L21.541 1.55322L22.0889 1.19482L22.6367 1.55322L36.2109 10.436L36.6641 10.7319V29.5776Z" stroke="#6C9BFF" stroke-width="2"/>
<path d="M11.6969 28.9295C11.6814 28.9295 11.6657 28.9291 11.6497 28.9292C11.268 28.9299 10.7357 28.9343 10.1336 28.9475C8.93474 28.9739 7.43779 29.0366 6.29921 29.1859C5.16204 29.3351 3.74158 29.6448 2.6169 29.9138C2.28639 29.9929 1.98057 30.0716 1.71227 30.1394L2.86596 27.8549L3.01915 27.5527L2.79443 27.2979L0.985255 25.2544C1.3063 25.1719 1.70685 25.0699 2.15162 24.9636C3.26992 24.696 4.64803 24.3958 5.73084 24.2537C6.81217 24.1119 8.26329 24.0494 9.457 24.0231C10.0511 24.0101 10.5768 24.0069 10.9536 24.0061C11.0116 24.006 11.0662 24.0065 11.1168 24.0065L11.6969 28.9295Z" fill="white" stroke="#083F8B"/>
<path d="M11.691 28.9295C11.6756 28.9295 11.6598 28.9291 11.6438 28.9292C11.2621 28.9299 10.7298 28.9343 10.1277 28.9475C8.92888 28.9739 7.43193 29.0366 6.29335 29.1859C5.15618 29.3351 3.73572 29.6448 2.61104 29.9138C2.28053 29.9929 1.97471 30.0716 1.70641 30.1394L2.8601 27.8549L3.01329 27.5527L2.78857 27.2979L0.979395 25.2544C1.30044 25.1719 1.70099 25.0699 2.14576 24.9636C3.26406 24.696 4.64217 24.3958 5.72498 24.2537C6.80631 24.1119 8.25743 24.0494 9.45114 24.0231C10.0452 24.0101 10.571 24.0069 10.9477 24.0061C11.0058 24.006 11.0603 24.0065 11.111 24.0065L11.691 28.9295Z" fill="white" stroke="#6C9BFF"/>
<path d="M34.7949 11.7825V28.5667L22.0889 36.8469L9.38477 28.5286V11.7815L22.0889 3.55591L34.7949 11.7825Z" fill="#FCFCFC" stroke="#083F8B"/>
<path d="M8.50391 28.4199L7.36392 27.8499L8.50391 27.6599V28.4199Z" fill="#D9D9D9"/>
<path d="M35.6736 28.4199V27.7549L36.4336 27.8499L35.6736 28.4199Z" fill="#D9D9D9"/>
<path d="M22.1727 22.1699L15.9978 13.0078L18.2728 10.3901H26.0727L28.3477 13.0078L22.1727 22.1699Z" fill="#D9D9D9"/>
<path d="M22.1726 10.3901L24.9351 13.0079H19.4102L22.1726 10.3901Z" fill="#2E6ABE"/>
<path d="M18.273 10.3901L19.4105 13.0079H15.998L18.273 10.3901Z" fill="#BCC8FF" fill-opacity="0.56"/>
<path d="M26.073 10.3901L28.348 13.0079H24.9355L26.073 10.3901Z" fill="#2F6BBD"/>
<path d="M18.2734 10.3901H22.1734L19.4109 13.0079L18.2734 10.3901Z" fill="#083F8B"/>
<path d="M22.1738 10.3901H26.0738L24.9363 13.0079L22.1738 10.3901Z" fill="#C7CEED"/>
<path d="M19.4102 13.0078H24.9351L22.1726 22.1699L19.4102 13.0078Z" fill="#C6CDEC"/>
<path d="M15.998 13.0078H19.4105L22.173 22.1699L15.998 13.0078Z" fill="#2F6BBE"/>
<path d="M24.9363 13.0078H28.3488L22.1738 22.1699L24.9363 13.0078Z" fill="#083F8B"/>
<path d="M22 21.8901C25.1224 21.8901 29.1066 22.1421 32.3184 22.395C33.9222 22.5213 35.33 22.6479 36.3369 22.7427C36.8279 22.7889 37.2237 22.8265 37.5 22.854V28.8374C37.2299 28.8107 36.8678 28.775 36.4307 28.7339C35.4199 28.6388 34.0066 28.5121 32.3965 28.3853C29.1797 28.1319 25.1636 27.8774 22 27.8774C18.8364 27.8774 14.8203 28.1319 11.6035 28.3853C9.99341 28.5121 8.58015 28.6388 7.56934 28.7339C7.13221 28.775 6.77014 28.8107 6.5 28.8374V22.854C6.77628 22.8265 7.1721 22.7889 7.66309 22.7427C8.66998 22.6479 10.0778 22.5213 11.6816 22.395C14.8934 22.1421 18.8776 21.8901 22 21.8901Z" fill="white" stroke="#6C9BFF"/>
<path d="M22.6191 22.5901L23.1804 24.3175H24.9968L23.5273 25.3852L24.0886 27.1126L22.6191 26.045L21.1497 27.1126L21.711 25.3852L20.2415 24.3175H22.0579L22.6191 22.5901Z" fill="#C67C4E"/>
<path d="M13.4794 22.8948L14.247 24.541L16.0499 24.3196L14.7215 25.5584L15.4891 27.2045L13.9005 26.324L12.5721 27.5627L12.9186 25.7797L11.33 24.8991L13.1328 24.6778L13.4794 22.8948Z" fill="#C67C4E"/>
<path d="M31.2099 22.9949L31.5565 24.7778L33.3593 24.9992L31.7707 25.8798L32.1172 27.6628L30.7888 26.424L29.2002 27.3046L29.9678 25.6584L28.6394 24.4197L30.4423 24.641L31.2099 22.9949Z" fill="#C67C4E"/>
</svg>
