<svg width="48" height="54" viewBox="0 0 48 54" fill="none" xmlns="http://www.w3.org/2000/svg">
<path d="M45.4951 39.6494L45.0107 39.9404L24.6484 52.1904L24.1338 52.501L23.6182 52.1904L3.25586 39.9404L2.77148 39.6494V14.0186L3.25586 13.7275L23.6182 1.47754L24.1338 1.16699L24.6484 1.47754L45.0107 13.7275L45.4951 14.0186V39.6494Z" stroke="#6C9BFF" stroke-width="2"/>
<path d="M43.4424 15.1953V38.5264L24.1348 50.0947L4.82812 38.4736V15.1953L24.1348 3.70117L43.4424 15.1953Z" fill="#FCFCFC" stroke="#083F8B"/>
<path d="M3.75586 38.2324L2.04588 37.4463L3.75586 37.1843V38.2324Z" fill="#D9D9D9"/>
<path d="M44.5104 38.2324V37.3153L45.6504 37.4463L44.5104 38.2324Z" fill="#D9D9D9"/>
<path d="M24.2591 30.8838L14.9967 17.2339L18.4091 13.334H30.109L33.5215 17.2339L24.2591 30.8838Z" fill="#D9D9D9"/>
<path d="M24.2589 13.334L28.4026 17.2339H20.1152L24.2589 13.334Z" fill="#2E6ABE"/>
<path d="M18.4086 13.334L20.1148 17.2339H14.9961L18.4086 13.334Z" fill="#BCC8FF" fill-opacity="0.56"/>
<path d="M30.1086 13.334L33.521 17.2339H28.4023L30.1086 13.334Z" fill="#2F6BBD"/>
<path d="M18.4082 13.334H24.2581L20.1144 17.2339L18.4082 13.334Z" fill="#083F8B"/>
<path d="M24.2578 13.334H30.1078L28.4015 17.2339L24.2578 13.334Z" fill="#C7CEED"/>
<path d="M20.1152 17.2339H28.4026L24.2589 30.8837L20.1152 17.2339Z" fill="#C6CDEC"/>
<path d="M14.9961 17.2339H20.1148L24.2585 30.8837L14.9961 17.2339Z" fill="#2F6BBE"/>
<path d="M28.4015 17.2339H33.5202L24.2578 30.8837L28.4015 17.2339Z" fill="#083F8B"/>
<path d="M24 29.0376C28.6956 29.0376 34.6809 29.3859 39.5 29.7349C41.9078 29.9092 44.0217 30.0836 45.5332 30.2144C46.2886 30.2797 46.8936 30.3344 47.3096 30.3726C47.3781 30.3788 47.4419 30.3838 47.5 30.3892V39.022C47.4684 39.0191 47.4355 39.0163 47.4014 39.0132C46.9838 38.9749 46.3767 38.9195 45.6191 38.854C44.1041 38.7229 41.9857 38.5483 39.5723 38.3735C34.7486 38.0242 28.7334 37.6743 24 37.6743C19.2666 37.6743 13.2514 38.0242 8.42773 38.3735C6.01433 38.5483 3.89593 38.7229 2.38086 38.854C1.62329 38.9195 1.01622 38.9749 0.598633 39.0132C0.564491 39.0163 0.53159 39.0191 0.5 39.022V30.3892C0.558115 30.3838 0.621875 30.3788 0.69043 30.3726C1.10644 30.3344 1.71136 30.2797 2.4668 30.2144C3.97834 30.0836 6.09225 29.9092 8.5 29.7349C13.3191 29.3859 19.3044 29.0376 24 29.0376Z" fill="white" stroke="#6C9BFF"/>
<path d="M24.9277 30.1089L25.7697 32.7001H28.4942L26.29 34.3015L27.1319 36.8927L24.9277 35.2913L22.7235 36.8927L23.5655 34.3015L21.3613 32.7001H24.0858L24.9277 30.1089Z" fill="#C67C4E"/>
<path d="M11.2181 30.5659L12.3696 33.0352L15.0738 32.7032L13.0812 34.5613L14.2326 37.0306L11.8497 35.7097L9.85712 37.5678L10.377 34.8933L7.99405 33.5725L10.6983 33.2404L11.2181 30.5659Z" fill="#C67C4E"/>
<path d="M37.8138 30.7036L38.3337 33.3781L41.0379 33.7101L38.655 35.031L39.1749 37.7055L37.1823 35.8473L34.7993 37.1682L35.9508 34.6989L33.9582 32.8408L36.6624 33.1729L37.8138 30.7036Z" fill="#C67C4E"/>
</svg>
