<svg width="63" height="60" viewBox="0 0 63 60" fill="none" xmlns="http://www.w3.org/2000/svg">
<path d="M47.5533 8.66543C48.8716 8.9328 49.5554 10.3992 48.9128 11.5809L40.9623 26.2024C40.1782 27.6446 38.0864 27.58 37.3927 26.0922L36.1711 23.4725C35.7043 22.4714 34.5143 22.0383 33.5132 22.5051L11.5353 32.7536C10.5342 33.2204 9.34422 32.7873 8.87741 31.7862L6.3417 26.3484C5.87489 25.3473 6.308 24.1573 7.30908 23.6905L29.287 13.442C30.2881 12.9752 30.7212 11.7853 30.2544 10.7842L29.032 8.16266C28.3382 6.67488 29.6333 5.03104 31.2421 5.35733L47.5533 8.66543Z" fill="#6C9BFF"/>
<path d="M47.3327 10.7729C48.651 11.0403 49.3348 12.5067 48.6922 13.6884L40.7418 28.3099C39.9576 29.7521 37.8659 29.6875 37.1721 28.1997L35.9505 25.58C35.4837 24.5789 34.2937 24.1458 33.2927 24.6126L11.3147 34.8611C10.3136 35.3279 9.12367 34.8948 8.65685 33.8937L6.12114 28.4559C5.65433 27.4548 6.08744 26.2648 7.08852 25.798L29.0665 15.5495C30.0676 15.0827 30.5007 13.8928 30.0339 12.8917L28.8114 10.2702C28.1177 8.78238 29.4127 7.13854 31.0216 7.46483L47.3327 10.7729Z" fill="#083F8B"/>
<path d="M16.3081 48.3392C14.9898 48.0718 14.306 46.6054 14.9487 45.4236L22.8994 30.8029C23.6836 29.3608 25.7752 29.4253 26.469 30.9131L27.6907 33.533C28.1575 34.5341 29.3474 34.9672 30.3485 34.5004L52.3265 24.2519C53.3276 23.7851 54.5175 24.2182 54.9843 25.2193L57.52 30.6571C57.9869 31.6582 57.5537 32.8481 56.5527 33.315L34.5747 43.5634C33.5736 44.0303 33.1405 45.2202 33.6073 46.2213L34.8293 48.8419C35.5231 50.3297 34.228 51.9736 32.6192 51.6473L16.3081 48.3392Z" fill="#6C9BFF"/>
<path d="M14.8138 50.3401C13.4955 50.0727 12.8117 48.6063 13.4542 47.4246L21.4047 32.8031C22.1889 31.3609 24.2806 31.4255 24.9744 32.9133L26.196 35.533C26.6628 36.5341 27.8527 36.9672 28.8538 36.5004L50.8318 26.2519C51.8329 25.7851 53.0228 26.2182 53.4896 27.2193L56.0253 32.6571C56.4922 33.6582 56.059 34.8482 55.058 35.315L33.08 45.5635C32.0789 46.0303 31.6458 47.2202 32.1126 48.2213L33.3351 50.8428C34.0288 52.3306 32.7337 53.9745 31.1249 53.6482L14.8138 50.3401Z" fill="#083F8B"/>
</svg>
