<svg width="63" height="60" viewBox="0 0 63 60" fill="none" xmlns="http://www.w3.org/2000/svg">
<path d="M47.553 9.6656C48.8713 9.93297 49.5551 11.3994 48.9125 12.5811L40.9621 27.2026C40.1779 28.6447 38.0862 28.5802 37.3924 27.0924L36.1708 24.4727C35.704 23.4716 34.514 23.0385 33.513 23.5053L11.535 33.7538C10.5339 34.2206 9.34396 33.7875 8.87714 32.7864L6.34144 27.3485C5.87462 26.3475 6.30773 25.1575 7.30881 24.6907L29.2868 14.4422C30.2879 13.9754 30.721 12.7854 30.2542 11.7843L29.0317 9.16283C28.338 7.67505 29.633 6.03121 31.2419 6.3575L47.553 9.6656Z" fill="#6C9BFF"/>
<path d="M47.3327 10.7729C48.651 11.0403 49.3348 12.5067 48.6922 13.6884L40.7418 28.3099C39.9576 29.7521 37.8659 29.6875 37.1721 28.1997L35.9505 25.58C35.4837 24.5789 34.2937 24.1458 33.2927 24.6126L11.3147 34.8611C10.3136 35.3279 9.12367 34.8948 8.65685 33.8937L6.12114 28.4559C5.65433 27.4548 6.08744 26.2648 7.08852 25.798L29.0665 15.5495C30.0676 15.0827 30.5007 13.8928 30.0339 12.8917L28.8114 10.2702C28.1177 8.78238 29.4127 7.13854 31.0216 7.46483L47.3327 10.7729Z" fill="#083F8B"/>
<path d="M15.3099 49.3389C13.9916 49.0715 13.3078 47.605 13.9505 46.4233L21.9012 31.8026C22.6854 30.3604 24.777 30.425 25.4708 31.9128L26.6925 34.5327C27.1593 35.5337 28.3492 35.9669 29.3503 35.5L51.3283 25.2516C52.3294 24.7847 53.5193 25.2179 53.9861 26.2189L56.5218 31.6568C56.9887 32.6579 56.5555 33.8478 55.5545 34.3146L33.5765 44.5631C32.5754 45.0299 32.1423 46.2199 32.6091 47.221L33.8311 49.8416C34.5249 51.3294 33.2298 52.9732 31.621 52.6469L15.3099 49.3389Z" fill="#6C9BFF"/>
<path d="M14.8157 50.3398C13.4974 50.0724 12.8136 48.6061 13.4562 47.4243L21.4066 32.8028C22.1908 31.3607 24.2825 31.4252 24.9763 32.913L26.1979 35.5328C26.6647 36.5338 27.8547 36.967 28.8558 36.5001L50.8337 26.2516C51.8348 25.7848 53.0248 26.2179 53.4916 27.219L56.0273 32.6569C56.4941 33.658 56.061 34.8479 55.0599 35.3147L33.082 45.5632C32.0809 46.03 31.6478 47.22 32.1146 48.2211L33.337 50.8426C34.0308 52.3304 32.7357 53.9742 31.1269 53.6479L14.8157 50.3398Z" fill="#083F8B"/>
</svg>
