<svg width="28" height="30" viewBox="0 0 28 30" fill="none" xmlns="http://www.w3.org/2000/svg">
<path fill-rule="evenodd" clip-rule="evenodd" d="M2.46593 26.464H2.49206V28.4131C2.49444 28.9638 3.02138 29.4096 3.67213 29.4116H6.5374C7.18814 29.4096 7.71508 28.9638 7.71747 28.4131V26.464H19.9101V28.4131C19.9125 28.9638 20.4394 29.4096 21.0902 29.4116H23.9554C24.6062 29.4096 25.1331 28.9638 25.1355 28.4131V26.464H25.1616C26.1033 26.4521 26.8633 25.809 26.8773 25.0122V3.38005C26.8749 1.88521 25.4434 0.673905 23.6768 0.671875H3.95082C2.18419 0.673905 0.75265 1.88521 0.750252 3.38005V25.0122C0.764274 25.809 1.52426 26.4521 2.46593 26.464ZM6.84644 28.4132C6.84644 28.5577 6.70802 28.6748 6.53727 28.6748H3.672C3.50125 28.6748 3.36283 28.5577 3.36283 28.4132V26.4641H6.84644V28.4132ZM23.9555 28.6748C24.1263 28.6748 24.2647 28.5577 24.2647 28.4132V26.4641H20.7811V28.4132C20.7811 28.5577 20.9195 28.6748 21.0903 28.6748H23.9555ZM1.62108 3.38021C1.62347 2.29235 2.66509 1.41098 3.95074 1.40895H23.6767C24.9623 1.41098 26.0039 2.29235 26.0063 3.38021V5.462H1.62108V3.38021ZM26.0063 6.19874H1.62108V14.6733H26.0063V6.19874ZM1.62108 15.4103H26.0063V25.0123C26.0063 25.4071 25.6281 25.7271 25.1616 25.7271H2.46585C1.99929 25.7271 1.62108 25.4071 1.62108 25.0123V15.4103ZM6.84652 21.3057C6.84652 22.3231 5.87173 23.148 4.66927 23.148C3.4668 23.148 2.49201 22.3231 2.49201 21.3057C2.49201 20.2882 3.4668 19.4634 4.66927 19.4634C5.87173 19.4634 6.84652 20.2882 6.84652 21.3057ZM4.66918 20.2003C5.39066 20.2003 5.97553 20.6952 5.97553 21.3057C5.97553 21.9162 5.39066 22.4111 4.66918 22.4111C3.9477 22.4111 3.36283 21.9162 3.36283 21.3057C3.36283 20.6952 3.9477 20.2003 4.66918 20.2003ZM25.1356 21.3057C25.1356 22.3231 24.1608 23.148 22.9583 23.148C21.7559 23.148 20.7811 22.3231 20.7811 21.3057C20.7811 20.2882 21.7559 19.4634 22.9583 19.4634C24.1608 19.4634 25.1356 20.2882 25.1356 21.3057ZM22.9583 20.2003C23.6797 20.2003 24.2646 20.6952 24.2646 21.3057C24.2646 21.9162 23.6797 22.4111 22.9583 22.4111C22.2368 22.4111 21.6519 21.9162 21.6519 21.3057C21.6519 20.6952 22.2368 20.2003 22.9583 20.2003ZM9.8946 20.9371C9.6541 20.9371 9.45914 21.1021 9.45914 21.3056C9.45914 21.5091 9.6541 21.674 9.8946 21.674H17.7327C17.9732 21.674 18.1682 21.5091 18.1682 21.3056C18.1682 21.1021 17.9732 20.9371 17.7327 20.9371H9.8946Z" fill="#1F258D"/>
<path d="M2.49206 26.464H2.79206V26.164H2.49206V26.464ZM2.46593 26.464L2.46215 26.764H2.46593V26.464ZM2.49206 28.4131L2.19205 28.4131L2.19206 28.4144L2.49206 28.4131ZM3.67213 29.4116L3.6712 29.7116H3.67213V29.4116ZM6.5374 29.4116V29.7116L6.53833 29.7116L6.5374 29.4116ZM7.71747 28.4131L8.01747 28.4144V28.4131H7.71747ZM7.71747 26.464V26.164H7.41747V26.464H7.71747ZM19.9101 26.464H20.2101V26.164H19.9101V26.464ZM19.9101 28.4131H19.6101L19.6101 28.4144L19.9101 28.4131ZM21.0902 29.4116L21.0892 29.7116H21.0902V29.4116ZM23.9554 29.4116L23.9554 29.7116L23.9564 29.7116L23.9554 29.4116ZM25.1355 28.4131L25.4355 28.4144V28.4131H25.1355ZM25.1355 26.464V26.164H24.8355V26.464H25.1355ZM25.1616 26.464V26.764L25.1654 26.764L25.1616 26.464ZM26.8773 25.0122L27.1773 25.0175V25.0122H26.8773ZM26.8773 3.38005L27.1773 3.38005L27.1773 3.37956L26.8773 3.38005ZM23.6768 0.671875L23.6771 0.371875H23.6768V0.671875ZM3.95082 0.671875L3.95082 0.371875L3.95047 0.371875L3.95082 0.671875ZM0.750252 3.38005L0.450252 3.37956V3.38005H0.750252ZM0.750252 25.0122H0.450205L0.450298 25.0175L0.750252 25.0122ZM3.36283 26.4641V26.1641H3.06283V26.4641H3.36283ZM6.84644 26.4641H7.14644V26.1641H6.84644V26.4641ZM24.2647 26.4641H24.5647V26.1641H24.2647V26.4641ZM20.7811 26.4641V26.1641H20.4811V26.4641H20.7811ZM3.95074 1.40895L3.95074 1.10895L3.95027 1.10895L3.95074 1.40895ZM1.62108 3.38021L1.32108 3.37955V3.38021H1.62108ZM23.6767 1.40895L23.6771 1.10895H23.6767V1.40895ZM26.0063 3.38021L26.3063 3.38021L26.3063 3.37955L26.0063 3.38021ZM26.0063 5.462V5.762H26.3063V5.462H26.0063ZM1.62108 5.462H1.32108V5.762H1.62108V5.462ZM1.62108 6.19874V5.89874H1.32108V6.19874H1.62108ZM26.0063 6.19874H26.3063V5.89874H26.0063V6.19874ZM1.62108 14.6733H1.32108V14.9733H1.62108V14.6733ZM26.0063 14.6733V14.9733H26.3063V14.6733H26.0063ZM26.0063 15.4103H26.3063V15.1103H26.0063V15.4103ZM1.62108 15.4103V15.1103H1.32108V15.4103H1.62108ZM2.49206 26.464V26.164H2.46593V26.464V26.764H2.49206V26.464ZM2.49206 28.4131H2.79206V26.464H2.49206H2.19206V28.4131H2.49206ZM3.67213 29.4116L3.67306 29.1116C3.13874 29.11 2.79353 28.7531 2.79205 28.4118L2.49206 28.4131L2.19206 28.4144C2.19536 29.1744 2.90403 29.7093 3.6712 29.7116L3.67213 29.4116ZM6.5374 29.4116V29.1116H3.67213V29.4116V29.7116H6.5374V29.4116ZM7.71747 28.4131L7.41747 28.4118C7.41599 28.7531 7.07079 29.11 6.53646 29.1116L6.5374 29.4116L6.53833 29.7116C7.3055 29.7093 8.01417 29.1744 8.01747 28.4144L7.71747 28.4131ZM7.71747 26.464H7.41747V28.4131H7.71747H8.01747V26.464H7.71747ZM19.9101 26.464V26.164H7.71747V26.464V26.764H19.9101V26.464ZM19.9101 28.4131H20.2101V26.464H19.9101H19.6101V28.4131H19.9101ZM21.0902 29.4116L21.0911 29.1116C20.5568 29.11 20.2116 28.7531 20.2101 28.4118L19.9101 28.4131L19.6101 28.4144C19.6134 29.1744 20.3221 29.7093 21.0892 29.7116L21.0902 29.4116ZM23.9554 29.4116V29.1116H21.0902V29.4116V29.7116H23.9554V29.4116ZM25.1355 28.4131L24.8355 28.4118C24.834 28.7531 24.4888 29.11 23.9545 29.1116L23.9554 29.4116L23.9564 29.7116C24.7235 29.7093 25.4322 29.1744 25.4355 28.4144L25.1355 28.4131ZM25.1355 26.464H24.8355V28.4131H25.1355H25.4355V26.464H25.1355ZM25.1616 26.464V26.164H25.1355V26.464V26.764H25.1616V26.464ZM26.8773 25.0122L26.5774 25.007C26.567 25.5986 25.9841 26.1536 25.1579 26.164L25.1616 26.464L25.1654 26.764C26.2225 26.7506 27.1596 26.0195 27.1773 25.0175L26.8773 25.0122ZM26.8773 3.38005H26.5773V25.0122H26.8773H27.1773V3.38005H26.8773ZM23.6768 0.671875L23.6764 0.971875C25.3264 0.97377 26.5753 2.09589 26.5773 3.38053L26.8773 3.38005L27.1773 3.37956C27.1746 1.67452 25.5604 0.374039 23.6771 0.371875L23.6768 0.671875ZM3.95082 0.671875V0.971875H23.6768V0.671875V0.371875H3.95082V0.671875ZM0.750252 3.38005L1.05025 3.38053C1.05231 2.09589 2.30117 0.97377 3.95116 0.971875L3.95082 0.671875L3.95047 0.371875C2.06721 0.374039 0.452988 1.67452 0.450252 3.37956L0.750252 3.38005ZM0.750252 25.0122H1.05025V3.38005H0.750252H0.450252V25.0122H0.750252ZM2.46593 26.464L2.46971 26.164C1.64342 26.1536 1.06062 25.5986 1.05021 25.007L0.750252 25.0122L0.450298 25.0175C0.467931 26.0195 1.40509 26.7506 2.46215 26.764L2.46593 26.464ZM6.53727 28.6748V28.9748C6.82477 28.9748 7.14644 28.7684 7.14644 28.4132H6.84644H6.54644C6.54644 28.4006 6.54965 28.3892 6.5538 28.3809C6.55771 28.3731 6.56151 28.3697 6.5621 28.3692C6.56271 28.3687 6.55489 28.3748 6.53727 28.3748V28.6748ZM3.672 28.6748V28.9748H6.53727V28.6748V28.3748H3.672V28.6748ZM3.36283 28.4132H3.06283C3.06283 28.7684 3.38449 28.9748 3.672 28.9748V28.6748V28.3748C3.65438 28.3748 3.64655 28.3687 3.64717 28.3692C3.64776 28.3697 3.65156 28.3731 3.65547 28.3809C3.65962 28.3892 3.66283 28.4006 3.66283 28.4132H3.36283ZM3.36283 26.4641H3.06283V28.4132H3.36283H3.66283V26.4641H3.36283ZM6.84644 26.4641V26.1641H3.36283V26.4641V26.7641H6.84644V26.4641ZM6.84644 28.4132H7.14644V26.4641H6.84644H6.54644V28.4132H6.84644ZM24.2647 28.4132H23.9647C23.9647 28.4006 23.9679 28.3892 23.9721 28.3809C23.976 28.3731 23.9798 28.3697 23.9804 28.3692C23.981 28.3687 23.9731 28.3748 23.9555 28.3748V28.6748V28.9748C24.243 28.9748 24.5647 28.7684 24.5647 28.4132H24.2647ZM24.2647 26.4641H23.9647V28.4132H24.2647H24.5647V26.4641H24.2647ZM20.7811 26.4641V26.7641H24.2647V26.4641V26.1641H20.7811V26.4641ZM20.7811 28.4132H21.0811V26.4641H20.7811H20.4811V28.4132H20.7811ZM21.0903 28.6748V28.3748C21.0726 28.3748 21.0648 28.3687 21.0654 28.3692C21.066 28.3697 21.0698 28.3731 21.0737 28.3809C21.0779 28.3892 21.0811 28.4006 21.0811 28.4132H20.7811H20.4811C20.4811 28.7684 20.8027 28.9748 21.0903 28.9748V28.6748ZM23.9555 28.6748V28.3748H21.0903V28.6748V28.9748H23.9555V28.6748ZM3.95074 1.40895L3.95027 1.10895C2.54804 1.11117 1.32393 2.08168 1.32108 3.37955L1.62108 3.38021L1.92107 3.38087C1.92301 2.50303 2.78215 1.7108 3.95121 1.70895L3.95074 1.40895ZM23.6767 1.40895V1.10895H3.95074V1.40895V1.70895H23.6767V1.40895ZM26.0063 3.38021L26.3063 3.37955C26.3035 2.08168 25.0794 1.11117 23.6771 1.10895L23.6767 1.40895L23.6762 1.70895C24.8453 1.7108 25.7044 2.50303 25.7063 3.38087L26.0063 3.38021ZM26.0063 5.462H26.3063V3.38021H26.0063H25.7063V5.462H26.0063ZM1.62108 5.462V5.762H26.0063V5.462V5.162H1.62108V5.462ZM1.62108 3.38021H1.32108V5.462H1.62108H1.92108V3.38021H1.62108ZM1.62108 6.19874V6.49874H26.0063V6.19874V5.89874H1.62108V6.19874ZM1.62108 14.6733H1.92108V6.19874H1.62108H1.32108V14.6733H1.62108ZM26.0063 14.6733V14.3733H1.62108V14.6733V14.9733H26.0063V14.6733ZM26.0063 6.19874H25.7063V14.6733H26.0063H26.3063V6.19874H26.0063ZM26.0063 15.4103V15.1103H1.62108V15.4103V15.7103H26.0063V15.4103ZM26.0063 25.0123H26.3063V15.4103H26.0063H25.7063V25.0123H26.0063ZM25.1616 25.7271V26.0271C25.7449 26.0271 26.3063 25.6178 26.3063 25.0123H26.0063H25.7063C25.7063 25.1964 25.5114 25.4271 25.1616 25.4271V25.7271ZM2.46585 25.7271V26.0271H25.1616V25.7271V25.4271H2.46585V25.7271ZM1.62108 25.0123H1.32108C1.32108 25.6178 1.88254 26.0271 2.46585 26.0271V25.7271V25.4271C2.11605 25.4271 1.92108 25.1964 1.92108 25.0123H1.62108ZM1.62108 15.4103H1.32108V25.0123H1.62108H1.92108V15.4103H1.62108ZM4.66927 23.148V23.448C5.98849 23.448 7.14652 22.5338 7.14652 21.3057H6.84652H6.54652C6.54652 22.1124 5.75498 22.848 4.66927 22.848V23.148ZM2.49201 21.3057H2.19201C2.19201 22.5338 3.35005 23.448 4.66927 23.448V23.148V22.848C3.58356 22.848 2.79201 22.1124 2.79201 21.3057H2.49201ZM4.66927 19.4634V19.1634C3.35005 19.1634 2.19201 20.0775 2.19201 21.3057H2.49201H2.79201C2.79201 20.4989 3.58356 19.7634 4.66927 19.7634V19.4634ZM6.84652 21.3057H7.14652C7.14652 20.0775 5.98849 19.1634 4.66927 19.1634V19.4634V19.7634C5.75498 19.7634 6.54652 20.4989 6.54652 21.3057H6.84652ZM5.97553 21.3057H6.27553C6.27553 20.4845 5.50741 19.9003 4.66918 19.9003V20.2003V20.5003C5.27391 20.5003 5.67553 20.9059 5.67553 21.3057H5.97553ZM4.66918 22.4111V22.7111C5.50741 22.7111 6.27553 22.1269 6.27553 21.3057H5.97553H5.67553C5.67553 21.7055 5.27391 22.1111 4.66918 22.1111V22.4111ZM3.36283 21.3057H3.06283C3.06283 22.1269 3.83095 22.7111 4.66918 22.7111V22.4111V22.1111C4.06446 22.1111 3.66283 21.7055 3.66283 21.3057H3.36283ZM4.66918 20.2003V19.9003C3.83095 19.9003 3.06283 20.4845 3.06283 21.3057H3.36283H3.66283C3.66283 20.9059 4.06446 20.5003 4.66918 20.5003V20.2003ZM22.9583 23.148V23.448C24.2776 23.448 25.4356 22.5338 25.4356 21.3057H25.1356H24.8356C24.8356 22.1124 24.0441 22.848 22.9583 22.848V23.148ZM20.7811 21.3057H20.4811C20.4811 22.5338 21.6391 23.448 22.9583 23.448V23.148V22.848C21.8726 22.848 21.0811 22.1124 21.0811 21.3057H20.7811ZM22.9583 19.4634V19.1634C21.6391 19.1634 20.4811 20.0775 20.4811 21.3057H20.7811H21.0811C21.0811 20.4989 21.8726 19.7634 22.9583 19.7634V19.4634ZM25.1356 21.3057H25.4356C25.4356 20.0775 24.2776 19.1634 22.9583 19.1634V19.4634V19.7634C24.0441 19.7634 24.8356 20.4989 24.8356 21.3057H25.1356ZM24.2646 21.3057H24.5646C24.5646 20.4845 23.7965 19.9003 22.9583 19.9003V20.2003V20.5003C23.563 20.5003 23.9646 20.9059 23.9646 21.3057H24.2646ZM22.9583 22.4111V22.7111C23.7965 22.7111 24.5646 22.1269 24.5646 21.3057H24.2646H23.9646C23.9646 21.7055 23.563 22.1111 22.9583 22.1111V22.4111ZM21.6519 21.3057H21.3519C21.3519 22.1269 22.12 22.7111 22.9583 22.7111V22.4111V22.1111C22.3535 22.1111 21.9519 21.7055 21.9519 21.3057H21.6519ZM22.9583 20.2003V19.9003C22.12 19.9003 21.3519 20.4845 21.3519 21.3057H21.6519H21.9519C21.9519 20.9059 22.3535 20.5003 22.9583 20.5003V20.2003ZM9.45914 21.3056H9.75914C9.75914 21.3046 9.75887 21.2923 9.78047 21.2741C9.80271 21.2552 9.8421 21.2371 9.8946 21.2371V20.9371V20.6371C9.53735 20.6371 9.15914 20.8914 9.15914 21.3056H9.45914ZM9.8946 21.674V21.374C9.8421 21.374 9.80271 21.3559 9.78047 21.3371C9.75887 21.3188 9.75914 21.3066 9.75914 21.3056H9.45914H9.15914C9.15914 21.7198 9.53735 21.974 9.8946 21.974V21.674ZM17.7327 21.674V21.374H9.8946V21.674V21.974H17.7327V21.674ZM18.1682 21.3056H17.8682C17.8682 21.3066 17.8684 21.3188 17.8468 21.3371C17.8246 21.3559 17.7852 21.374 17.7327 21.374V21.674V21.974C18.09 21.974 18.4682 21.7198 18.4682 21.3056H18.1682ZM17.7327 20.9371V21.2371C17.7852 21.2371 17.8246 21.2552 17.8468 21.2741C17.8684 21.2923 17.8682 21.3046 17.8682 21.3056H18.1682H18.4682C18.4682 20.8914 18.09 20.6371 17.7327 20.6371V20.9371ZM9.8946 20.9371V21.2371H17.7327V20.9371V20.6371H9.8946V20.9371Z" fill="#1F258D"/>
</svg>
