<svg width="38" height="28" viewBox="0 0 38 28" fill="none" xmlns="http://www.w3.org/2000/svg">
<g filter="url(#filter0_d_1925_482)">
<path d="M32 4.38477C32.5523 4.38477 33 4.83248 33 5.38477V9.96191C31.768 9.96191 30.7695 10.9604 30.7695 12.1924C30.7696 13.3472 31.6469 14.2967 32.7715 14.4111L33 14.4229V19C33 19.5523 32.5523 20 32 20H5C4.44772 20 4 19.5523 4 19V14.4229C5.23199 14.4229 6.23043 13.4244 6.23047 12.1924C6.23047 11.0375 5.35321 10.0871 4.22852 9.97266L4 9.96191V5.38477C4 4.83248 4.44772 4.38477 5 4.38477H32ZM14.3164 17.7695C14.1626 17.7697 14.0382 17.894 14.0381 18.0479V19.1631C14.0381 19.317 14.1625 19.4422 14.3164 19.4424C14.4704 19.4424 14.5957 19.3171 14.5957 19.1631V18.0479C14.5956 17.8939 14.4704 17.7695 14.3164 17.7695ZM14.3164 14.4229C14.1625 14.423 14.0381 14.5482 14.0381 14.7021V16.9326C14.0381 17.0865 14.1625 17.2118 14.3164 17.2119C14.4704 17.2119 14.5957 17.0866 14.5957 16.9326V14.7021C14.5957 14.5481 14.4704 14.4229 14.3164 14.4229ZM14.3164 10.5195C14.1626 10.5197 14.0382 10.644 14.0381 10.7979V13.5869C14.0383 13.7406 14.1627 13.8651 14.3164 13.8652C14.4703 13.8652 14.5955 13.7407 14.5957 13.5869V10.7979C14.5956 10.6439 14.4704 10.5195 14.3164 10.5195ZM14.3164 8.28809C14.1625 8.28825 14.0381 8.41348 14.0381 8.56738V9.68262C14.0381 9.83652 14.1625 9.96175 14.3164 9.96191C14.4704 9.96191 14.5957 9.83662 14.5957 9.68262V8.56738C14.5957 8.41338 14.4704 8.28809 14.3164 8.28809ZM14.3164 4.94238C14.1627 4.94255 14.0383 5.06697 14.0381 5.2207V7.45215C14.0382 7.60591 14.1626 7.73031 14.3164 7.73047C14.4703 7.73047 14.5955 7.60601 14.5957 7.45215V5.2207C14.5955 5.06687 14.4703 4.94238 14.3164 4.94238Z" fill="#083D83"/>
<path d="M32 4.38477C32.5523 4.38477 33 4.83248 33 5.38477V9.96191C31.768 9.96191 30.7695 10.9604 30.7695 12.1924C30.7696 13.3472 31.6469 14.2967 32.7715 14.4111L33 14.4229V19C33 19.5523 32.5523 20 32 20H5C4.44772 20 4 19.5523 4 19V14.4229C5.23199 14.4229 6.23043 13.4244 6.23047 12.1924C6.23047 11.0375 5.35321 10.0871 4.22852 9.97266L4 9.96191V5.38477C4 4.83248 4.44772 4.38477 5 4.38477H32ZM14.3164 17.7695C14.1626 17.7697 14.0382 17.894 14.0381 18.0479V19.1631C14.0381 19.317 14.1625 19.4422 14.3164 19.4424C14.4704 19.4424 14.5957 19.3171 14.5957 19.1631V18.0479C14.5956 17.8939 14.4704 17.7695 14.3164 17.7695ZM14.3164 14.4229C14.1625 14.423 14.0381 14.5482 14.0381 14.7021V16.9326C14.0381 17.0865 14.1625 17.2118 14.3164 17.2119C14.4704 17.2119 14.5957 17.0866 14.5957 16.9326V14.7021C14.5957 14.5481 14.4704 14.4229 14.3164 14.4229ZM14.3164 10.5195C14.1626 10.5197 14.0382 10.644 14.0381 10.7979V13.5869C14.0383 13.7406 14.1627 13.8651 14.3164 13.8652C14.4703 13.8652 14.5955 13.7407 14.5957 13.5869V10.7979C14.5956 10.6439 14.4704 10.5195 14.3164 10.5195ZM14.3164 8.28809C14.1625 8.28825 14.0381 8.41348 14.0381 8.56738V9.68262C14.0381 9.83652 14.1625 9.96175 14.3164 9.96191C14.4704 9.96191 14.5957 9.83662 14.5957 9.68262V8.56738C14.5957 8.41338 14.4704 8.28809 14.3164 8.28809ZM14.3164 4.94238C14.1627 4.94255 14.0383 5.06697 14.0381 5.2207V7.45215C14.0382 7.60591 14.1626 7.73031 14.3164 7.73047C14.4703 7.73047 14.5955 7.60601 14.5957 7.45215V5.2207C14.5955 5.06687 14.4703 4.94238 14.3164 4.94238Z" fill="url(#paint0_linear_1925_482)"/>
</g>
<g filter="url(#filter1_d_1925_482)">
<rect x="16" y="7" width="13" height="2" rx="1" fill="white"/>
</g>
<g filter="url(#filter2_d_1925_482)">
<rect x="16" y="11" width="9" height="2" rx="1" fill="white"/>
</g>
<g filter="url(#filter3_d_1925_482)">
<rect x="16" y="16" width="2" height="2" rx="1" fill="white"/>
</g>
<g filter="url(#filter4_d_1925_482)">
<rect x="19" y="16" width="2" height="2" rx="1" fill="white"/>
</g>
<g filter="url(#filter5_d_1925_482)">
<path d="M7.5 10C7.5 9.44772 7.94772 9 8.5 9H11.5C12.0523 9 12.5 9.44772 12.5 10V14C12.5 14.5523 12.0523 15 11.5 15H8.5C7.94772 15 7.5 14.5523 7.5 14V10Z" fill="white"/>
<path d="M7.5 10C7.5 9.44772 7.94772 9 8.5 9H11.5C12.0523 9 12.5 9.44772 12.5 10V14C12.5 14.5523 12.0523 15 11.5 15H8.5C7.94772 15 7.5 14.5523 7.5 14V10Z" fill="url(#paint1_linear_1925_482)" fill-opacity="0.2"/>
<path d="M8.5 9.15039H11.5C11.9694 9.15039 12.3496 9.53056 12.3496 10V14C12.3496 14.4694 11.9694 14.8496 11.5 14.8496H8.5C8.03056 14.8496 7.65039 14.4694 7.65039 14V10C7.65039 9.53056 8.03056 9.15039 8.5 9.15039Z" stroke="#CACACA" stroke-width="0.3"/>
</g>
<defs>
<filter id="filter0_d_1925_482" x="0" y="4.38477" width="37" height="23.6152" filterUnits="userSpaceOnUse" color-interpolation-filters="sRGB">
<feFlood flood-opacity="0" result="BackgroundImageFix"/>
<feColorMatrix in="SourceAlpha" type="matrix" values="0 0 0 0 0 0 0 0 0 0 0 0 0 0 0 0 0 0 127 0" result="hardAlpha"/>
<feOffset dy="4"/>
<feGaussianBlur stdDeviation="2"/>
<feComposite in2="hardAlpha" operator="out"/>
<feColorMatrix type="matrix" values="0 0 0 0 0 0 0 0 0 0 0 0 0 0 0 0 0 0 0.25 0"/>
<feBlend mode="normal" in2="BackgroundImageFix" result="effect1_dropShadow_1925_482"/>
<feBlend mode="normal" in="SourceGraphic" in2="effect1_dropShadow_1925_482" result="shape"/>
</filter>
<filter id="filter1_d_1925_482" x="9" y="0" width="29" height="18" filterUnits="userSpaceOnUse" color-interpolation-filters="sRGB">
<feFlood flood-opacity="0" result="BackgroundImageFix"/>
<feColorMatrix in="SourceAlpha" type="matrix" values="0 0 0 0 0 0 0 0 0 0 0 0 0 0 0 0 0 0 127 0" result="hardAlpha"/>
<feOffset dx="1" dy="1"/>
<feGaussianBlur stdDeviation="4"/>
<feComposite in2="hardAlpha" operator="out"/>
<feColorMatrix type="matrix" values="0 0 0 0 0 0 0 0 0 0 0 0 0 0 0 0 0 0 1 0"/>
<feBlend mode="normal" in2="BackgroundImageFix" result="effect1_dropShadow_1925_482"/>
<feBlend mode="normal" in="SourceGraphic" in2="effect1_dropShadow_1925_482" result="shape"/>
</filter>
<filter id="filter2_d_1925_482" x="9" y="4" width="25" height="18" filterUnits="userSpaceOnUse" color-interpolation-filters="sRGB">
<feFlood flood-opacity="0" result="BackgroundImageFix"/>
<feColorMatrix in="SourceAlpha" type="matrix" values="0 0 0 0 0 0 0 0 0 0 0 0 0 0 0 0 0 0 127 0" result="hardAlpha"/>
<feOffset dx="1" dy="1"/>
<feGaussianBlur stdDeviation="4"/>
<feComposite in2="hardAlpha" operator="out"/>
<feColorMatrix type="matrix" values="0 0 0 0 0 0 0 0 0 0 0 0 0 0 0 0 0 0 1 0"/>
<feBlend mode="normal" in2="BackgroundImageFix" result="effect1_dropShadow_1925_482"/>
<feBlend mode="normal" in="SourceGraphic" in2="effect1_dropShadow_1925_482" result="shape"/>
</filter>
<filter id="filter3_d_1925_482" x="9" y="9" width="18" height="18" filterUnits="userSpaceOnUse" color-interpolation-filters="sRGB">
<feFlood flood-opacity="0" result="BackgroundImageFix"/>
<feColorMatrix in="SourceAlpha" type="matrix" values="0 0 0 0 0 0 0 0 0 0 0 0 0 0 0 0 0 0 127 0" result="hardAlpha"/>
<feOffset dx="1" dy="1"/>
<feGaussianBlur stdDeviation="4"/>
<feComposite in2="hardAlpha" operator="out"/>
<feColorMatrix type="matrix" values="0 0 0 0 0 0 0 0 0 0 0 0 0 0 0 0 0 0 1 0"/>
<feBlend mode="normal" in2="BackgroundImageFix" result="effect1_dropShadow_1925_482"/>
<feBlend mode="normal" in="SourceGraphic" in2="effect1_dropShadow_1925_482" result="shape"/>
</filter>
<filter id="filter4_d_1925_482" x="12" y="9" width="18" height="18" filterUnits="userSpaceOnUse" color-interpolation-filters="sRGB">
<feFlood flood-opacity="0" result="BackgroundImageFix"/>
<feColorMatrix in="SourceAlpha" type="matrix" values="0 0 0 0 0 0 0 0 0 0 0 0 0 0 0 0 0 0 127 0" result="hardAlpha"/>
<feOffset dx="1" dy="1"/>
<feGaussianBlur stdDeviation="4"/>
<feComposite in2="hardAlpha" operator="out"/>
<feColorMatrix type="matrix" values="0 0 0 0 0 0 0 0 0 0 0 0 0 0 0 0 0 0 1 0"/>
<feBlend mode="normal" in2="BackgroundImageFix" result="effect1_dropShadow_1925_482"/>
<feBlend mode="normal" in="SourceGraphic" in2="effect1_dropShadow_1925_482" result="shape"/>
</filter>
<filter id="filter5_d_1925_482" x="3.5" y="9" width="13" height="14" filterUnits="userSpaceOnUse" color-interpolation-filters="sRGB">
<feFlood flood-opacity="0" result="BackgroundImageFix"/>
<feColorMatrix in="SourceAlpha" type="matrix" values="0 0 0 0 0 0 0 0 0 0 0 0 0 0 0 0 0 0 127 0" result="hardAlpha"/>
<feOffset dy="4"/>
<feGaussianBlur stdDeviation="2"/>
<feComposite in2="hardAlpha" operator="out"/>
<feColorMatrix type="matrix" values="0 0 0 0 0 0 0 0 0 0 0 0 0 0 0 0 0 0 0.25 0"/>
<feBlend mode="normal" in2="BackgroundImageFix" result="effect1_dropShadow_1925_482"/>
<feBlend mode="normal" in="SourceGraphic" in2="effect1_dropShadow_1925_482" result="shape"/>
</filter>
<linearGradient id="paint0_linear_1925_482" x1="18.5" y1="18.8846" x2="26.8653" y2="8.2885" gradientUnits="userSpaceOnUse">
<stop stop-color="#0F5EB8" stop-opacity="0"/>
<stop offset="1" stop-color="#0F5EB8"/>
</linearGradient>
<linearGradient id="paint1_linear_1925_482" x1="11" y1="11" x2="9" y2="13" gradientUnits="userSpaceOnUse">
<stop stop-opacity="0"/>
<stop offset="1"/>
</linearGradient>
</defs>
</svg>
