<svg width="48" height="47" viewBox="0 0 48 47" fill="none" xmlns="http://www.w3.org/2000/svg">
<g filter="url(#filter0_d_1928_383)">
<path d="M24 31L12 13.1111L16.4211 8H31.5789L36 13.1111L24 31Z" fill="#D9D9D9"/>
<path d="M24 8L29.3684 13.1111H18.6316L24 8Z" fill="#255FAE"/>
<path d="M16.4211 8L18.6316 13.1111L12 13.1111L16.4211 8Z" fill="#4B7EC2" fill-opacity="0.717647"/>
<path d="M31.5789 8L36 13.1111L29.3684 13.1111L31.5789 8Z" fill="#205DB1"/>
<path d="M16.4211 8L24 8L18.6316 13.1111L16.4211 8Z" fill="#08336D"/>
<path d="M24 8L31.5789 8L29.3684 13.1111L24 8Z" fill="#255FAE" fill-opacity="0.56"/>
<path d="M18.6316 13.1111H29.3684L24 31L18.6316 13.1111Z" fill="#4B7EC2" fill-opacity="0.56"/>
<path d="M12 13.1111L18.6316 13.1111L24 31L12 13.1111Z" fill="#255FAE"/>
<path d="M29.3684 13.1111L36 13.1111L24 31L29.3684 13.1111Z" fill="#093673"/>
</g>
<defs>
<filter id="filter0_d_1928_383" x="0" y="0" width="48" height="47" filterUnits="userSpaceOnUse" color-interpolation-filters="sRGB">
<feFlood flood-opacity="0" result="BackgroundImageFix"/>
<feColorMatrix in="SourceAlpha" type="matrix" values="0 0 0 0 0 0 0 0 0 0 0 0 0 0 0 0 0 0 127 0" result="hardAlpha"/>
<feOffset dy="4"/>
<feGaussianBlur stdDeviation="6"/>
<feComposite in2="hardAlpha" operator="out"/>
<feColorMatrix type="matrix" values="0 0 0 0 0 0 0 0 0 0 0 0 0 0 0 0 0 0 0.2 0"/>
<feBlend mode="normal" in2="BackgroundImageFix" result="effect1_dropShadow_1928_383"/>
<feBlend mode="normal" in="SourceGraphic" in2="effect1_dropShadow_1928_383" result="shape"/>
</filter>
</defs>
</svg>
