<svg width="32" height="28" viewBox="0 0 32 28" fill="none" xmlns="http://www.w3.org/2000/svg">
<path d="M16.0123 0.973633V27.111M0.93306 14.0423H31.0916M7.31274 22.3587C9.31237 22.3587 11.2301 21.5451 12.6441 20.0969C14.058 18.6487 14.8524 16.6845 14.8524 14.6363V14.0423M24.7119 22.3587C22.7122 22.3587 20.7945 21.5451 19.3806 20.0969C17.9666 18.6487 17.1722 16.6845 17.1722 14.6363V14.0423M3.25294 27.111H28.7717C29.3869 27.111 29.977 26.8607 30.4121 26.415C30.8471 25.9694 31.0916 25.3651 31.0916 24.7349V3.34976C31.0916 2.71957 30.8471 2.11519 30.4121 1.66958C29.977 1.22397 29.3869 0.973633 28.7717 0.973633H3.25294C2.63767 0.973633 2.0476 1.22397 1.61254 1.66958C1.17748 2.11519 0.93306 2.71957 0.93306 3.34976V24.7349C0.93306 25.3651 1.17748 25.9694 1.61254 26.415C2.0476 26.8607 2.63767 27.111 3.25294 27.111ZM22.7725 12.1573C20.5933 14.3908 16.2118 13.838 16.2118 13.838C16.2118 13.838 15.6721 9.35026 17.8512 7.11829C18.5038 6.44987 19.3889 6.07436 20.3118 6.07436C21.2347 6.07436 22.1199 6.44987 22.7725 7.11829C23.425 7.78671 23.7917 8.69328 23.7917 9.63856C23.7917 10.5839 23.425 11.4888 22.7725 12.1573ZM14.1146 7.11987C16.2938 9.35185 15.754 13.8396 15.754 13.8396C15.754 13.8396 11.3725 14.3908 9.19494 12.1588C8.87181 11.8279 8.61548 11.435 8.4406 11.0025C8.26573 10.5701 8.17572 10.1066 8.17572 9.63856C8.17572 9.17051 8.26573 8.70703 8.4406 8.2746C8.61548 7.84217 8.87181 7.44926 9.19494 7.11829C9.51807 6.78732 9.90169 6.52478 10.3239 6.34567C10.7461 6.16655 11.1986 6.07436 11.6556 6.07436C12.1125 6.07436 12.565 6.16655 12.9872 6.34567C13.4094 6.52478 13.7931 6.78732 14.1162 7.11829L14.1146 7.11987Z" stroke="#1F258D" stroke-width="1.5" stroke-linecap="round" stroke-linejoin="round"/>
</svg>
