<svg width="32" height="22" viewBox="0 0 32 22" fill="none" xmlns="http://www.w3.org/2000/svg">
<path d="M21 8.15655V4.88732C21 4.36709 20.6839 3.86816 20.1213 3.5003C19.5587 3.13244 18.7956 2.92578 18 2.92578H10C9.20435 2.92578 8.44129 3.13244 7.87868 3.5003C7.31607 3.86816 7 4.36709 7 4.88732V16.6566C7 17.1768 7.31607 17.6757 7.87868 18.0436C8.44129 18.4114 9.20435 18.6181 10 18.6181H18C18.7956 18.6181 19.5587 18.4114 20.1213 18.0436C20.6839 17.6757 21 17.1768 21 16.6566V13.3873M25 13.3873L29 10.7719M29 10.7719L25 8.15655M29 10.7719H12" stroke="#262628" stroke-width="1.5" stroke-linecap="round" stroke-linejoin="round"/>
</svg>
