<svg width="22" height="21" viewBox="0 0 22 21" fill="none" xmlns="http://www.w3.org/2000/svg">
<path d="M19.9468 6.61655L12.9068 1.21769C12.2614 0.712751 11.426 0.433594 10.5601 0.433594C9.69427 0.433594 8.8588 0.712751 8.21344 1.21769L1.17344 6.61655C0.800757 6.90812 0.503354 7.26581 0.301038 7.66578C0.0987225 8.06576 -0.00386327 8.49885 0.000111225 8.93621V17.9069C0.000111225 18.7236 0.370967 19.5068 1.0311 20.0843C1.69122 20.6617 2.58655 20.9861 3.52011 20.9861H17.6001C18.5337 20.9861 19.429 20.6617 20.0891 20.0843C20.7493 19.5068 21.1201 18.7236 21.1201 17.9069V8.92595C21.1224 8.49031 21.019 8.0592 20.8168 7.6611C20.6145 7.263 20.318 6.90698 19.9468 6.61655ZM12.9068 18.9333H8.21344V13.8013C8.21344 13.5291 8.33706 13.2681 8.55711 13.0756C8.77715 12.8831 9.07559 12.7749 9.38678 12.7749H11.7334C12.0446 12.7749 12.3431 12.8831 12.5631 13.0756C12.7832 13.2681 12.9068 13.5291 12.9068 13.8013V18.9333ZM18.7734 17.9069C18.7734 18.1792 18.6498 18.4402 18.4298 18.6327C18.2097 18.8252 17.9113 18.9333 17.6001 18.9333H15.2534V13.8013C15.2534 12.9847 14.8826 12.2015 14.2225 11.624C13.5623 11.0466 12.667 10.7221 11.7334 10.7221H9.38678C8.45321 10.7221 7.55789 11.0466 6.89776 11.624C6.23763 12.2015 5.86678 12.9847 5.86678 13.8013V18.9333H3.52011C3.20892 18.9333 2.91048 18.8252 2.69044 18.6327C2.4704 18.4402 2.34678 18.1792 2.34678 17.9069V8.92595C2.34699 8.78022 2.38267 8.63619 2.45146 8.50346C2.52024 8.37073 2.62055 8.25233 2.74571 8.15615L9.78571 2.76755C9.99983 2.603 10.2751 2.51225 10.5601 2.51225C10.8451 2.51225 11.1204 2.603 11.3345 2.76755L18.3745 8.15615C18.4997 8.25233 18.6 8.37073 18.6688 8.50346C18.7375 8.63619 18.7732 8.78022 18.7734 8.92595V17.9069Z" fill="#262628"/>
</svg>
