<svg width="22" height="21" viewBox="0 0 22 21" fill="none" xmlns="http://www.w3.org/2000/svg">
<path d="M9.38672 12.2796C8.96294 12.2796 8.54489 12.4258 8.22754 12.7034C7.90815 12.9829 7.71387 13.378 7.71387 13.806V19.4378H13.4072V13.806C13.4072 13.378 13.212 12.9829 12.8926 12.7034C12.5752 12.4258 12.1572 12.2796 11.7334 12.2796H9.38672ZM0.5 8.93585C0.496776 8.58053 0.57997 8.22623 0.74707 7.89581C0.914378 7.56505 1.16339 7.26384 1.48145 7.01495L1.48047 7.01398L8.51758 1.61847L8.52148 1.61554C9.07368 1.1835 9.79962 0.937805 10.5605 0.937805C11.3213 0.937899 12.0465 1.18362 12.5986 1.61554L12.6025 1.61847L19.6387 7.01398V7.01495C19.9555 7.26287 20.2038 7.56264 20.3711 7.89191C20.5174 8.17983 20.6002 8.48598 20.6172 8.79523L20.6201 8.92706V17.9114C20.62 18.5722 20.3204 19.2218 19.7598 19.7122C19.1971 20.2044 18.4213 20.4904 17.6006 20.4905H3.52051C2.69959 20.4905 1.92315 20.2045 1.36035 19.7122C0.799765 19.2218 0.500087 18.5722 0.5 17.9114V8.93585ZM19.2734 8.92902C19.273 8.70149 19.2168 8.47922 19.1123 8.27765C19.008 8.07637 18.8586 7.90219 18.6787 7.76398V7.763L11.6387 2.37433C11.3324 2.13924 10.9487 2.017 10.5605 2.01691C10.1722 2.01691 9.78786 2.13912 9.48145 2.37433L2.44141 7.763V7.76398C2.26155 7.9022 2.11215 8.07635 2.00781 8.27765C1.90335 8.47923 1.84708 8.70149 1.84668 8.92902V17.9114C1.84677 18.3394 2.04194 18.7336 2.36133 19.013C2.6787 19.2906 3.09671 19.4378 3.52051 19.4378H6.36719V13.806C6.36719 13.1452 6.66593 12.4947 7.22656 12.0042C7.78935 11.5119 8.56579 11.2259 9.38672 11.2259H11.7334C12.5543 11.2259 13.3308 11.5119 13.8936 12.0042C14.4542 12.4947 14.7539 13.1452 14.7539 13.806V19.4378H17.6006C18.0242 19.4377 18.4415 19.2905 18.7588 19.013C19.0782 18.7336 19.2734 18.3394 19.2734 17.9114V8.92902Z" fill="#262628" stroke="black"/>
</svg>
