<svg width="25" height="25" viewBox="0 0 25 25" fill="none" xmlns="http://www.w3.org/2000/svg">
<path d="M14.9211 4.63158V4.98613C14.9211 5.45887 15.3043 5.84211 15.777 5.84211V5.84211C16.004 5.84211 16.2218 5.75192 16.3823 5.5914L16.4342 5.53947C16.628 5.3457 16.7368 5.08289 16.7368 4.80886V4.63158M16.7368 4.63158V4.63158C16.7368 4.24404 16.5829 3.87237 16.3089 3.59833L16.1316 3.42105L15.7403 3.02978C15.6033 2.89277 15.4175 2.81579 15.2237 2.81579V2.81579C15.0299 2.81579 14.8441 2.73881 14.7071 2.6018L14.3158 2.21053L13.945 1.83976C13.7897 1.68444 13.6104 1.55518 13.4139 1.45696V1.45696C12.8386 1.1693 12.1614 1.1693 11.5861 1.45696V1.45696C11.3896 1.55518 11.2103 1.68444 11.055 1.83976L10.5069 2.3878C10.2329 2.66184 9.86123 2.81579 9.47368 2.81579H9.29641C9.02237 2.81579 8.75956 2.92465 8.56579 3.11842L8.47715 3.20706C8.34013 3.34408 8.26316 3.52991 8.26316 3.72368V3.77561C8.26316 3.93613 8.19939 4.09008 8.08588 4.20359V4.20359C7.84951 4.43996 7.46628 4.43996 7.22991 4.20359V4.20359C7.1164 4.09008 6.96245 4.02632 6.80192 4.02632H6.66709C6.5226 4.02632 6.38008 4.05996 6.25084 4.12458L5.45235 4.52382C5.30961 4.59519 5.17931 4.68911 5.06647 4.80196L4.88229 4.98613C4.72176 5.14666 4.63158 5.36438 4.63158 5.5914V6.01938C4.63158 6.25575 4.43996 6.44737 4.20359 6.44737V6.44737C4.09008 6.44737 3.98122 6.49246 3.90096 6.57272L3.42105 7.05263L3.24378 7.22991C2.96974 7.50394 2.81579 7.87562 2.81579 8.26316V8.26316V9.0457C2.81579 9.31973 2.70693 9.58255 2.51316 9.77632V9.77632C2.31939 9.97009 2.21053 10.2329 2.21053 10.5069V10.6842V11.2797C2.21053 11.6735 2.05409 12.0512 1.77564 12.3296V12.3296C1.66279 12.4425 1.56888 12.5728 1.49751 12.7155L1.45696 12.7966C1.1693 13.3719 1.1693 14.0491 1.45696 14.6244L1.60526 14.9211L1.72433 15.1592C2.0223 15.7551 2.6314 16.1316 3.29769 16.1316V16.1316C3.76422 16.1316 4.21164 15.9463 4.54153 15.6164L5.17417 14.9837C5.2143 14.9436 5.23684 14.8892 5.23684 14.8324V14.8324C5.23684 14.6418 5.46734 14.5463 5.60215 14.6811L5.80398 14.8829C5.82923 14.9082 5.85839 14.9292 5.89033 14.9452L6.51127 15.2556C6.86728 15.4336 7.25986 15.5263 7.65789 15.5263V15.5263C8.05593 15.5263 8.44851 15.4336 8.80452 15.2556L9.47368 14.9211L9.86192 14.7269C10.3796 14.4681 10.9889 14.4681 11.5065 14.7269V14.7269C11.7618 14.8546 12.0433 14.9211 12.3288 14.9211H12.7714C12.9909 14.9211 13.2075 14.8699 13.4039 14.7717L13.6909 14.6282C14.0641 14.4417 14.5148 14.5148 14.8098 14.8098V14.8098C14.8835 14.8835 14.9686 14.9448 15.0617 14.9914L15.5263 15.2237M16.7368 4.63158L17.8412 4.26346C18.2967 4.11162 18.7939 4.14695 19.2234 4.36169V4.36169C19.5738 4.53688 19.8579 4.82098 20.033 5.17136L20.177 5.4593C20.3038 5.71285 20.4706 5.94429 20.6711 6.14474L20.7747 6.24835C20.9065 6.38017 21.0587 6.48987 21.2254 6.57324V6.57324C21.813 6.86704 22.1842 7.46762 22.1842 8.12458V8.26316V8.85866C22.1842 9.25245 22.3406 9.63012 22.6191 9.90857V9.90857C22.7319 10.0214 22.8259 10.1517 22.8972 10.2945L23.2033 10.9067C23.3176 11.1353 23.2728 11.4114 23.0921 11.5921V11.5921C22.9114 11.7728 22.8666 12.0489 22.9809 12.2775L23.3947 13.1053L23.6875 13.6909C23.8741 14.0641 23.801 14.5148 23.506 14.8098V14.8098C23.4323 14.8835 23.3472 14.9448 23.254 14.9914L22.1842 15.5263L21.515 15.8609C21.1743 16.0313 20.7731 16.0313 20.4323 15.8609L20.0624 15.6759C19.879 15.5842 19.7632 15.3968 19.7632 15.1917V15.1917C19.7632 14.7893 19.3396 14.5275 18.9797 14.7075L18.5526 14.9211L17.8835 15.2556C17.5275 15.4336 17.1349 15.5263 16.7368 15.5263V15.5263C16.3388 15.5263 15.9462 15.4336 15.5902 15.2556L15.5263 15.2237M9.47368 15.5263C9.70575 15.8744 10.0017 16.3183 10.2429 16.6801C10.535 17.1183 10.7495 17.6033 10.8772 18.1142V18.1142C11.1433 19.1783 11.0199 20.3024 10.5293 21.2834L10.4481 21.446C10.2036 21.9349 9.88188 22.3813 9.49533 22.7678L8.91177 23.3514C8.67241 23.5907 8.84193 24 9.18043 24H10.8292C11.1293 24 11.4227 23.9112 11.6724 23.7447L12.3767 23.2752C12.7635 23.0173 13.2889 23.1568 13.4969 23.5727V23.5727C13.6278 23.8346 13.8955 24 14.1883 24H15.9146C16.0535 24 16.1868 23.9448 16.285 23.8466V23.8466C16.5188 23.6128 16.4802 23.2237 16.2052 23.0403L15.2457 22.4006C15.033 22.2588 14.8609 22.0639 14.7466 21.8352L14.3158 20.9737L13.9812 20.3045C13.8032 19.9485 13.7105 19.5559 13.7105 19.1579V19.1579C13.7105 18.7599 13.8032 18.3673 13.9812 18.0113L14.3158 17.3421L14.9211 16.1316L15.5263 15.2237" stroke="black"/>
</svg>
