<svg width="26" height="24" viewBox="0 0 26 24" fill="none" xmlns="http://www.w3.org/2000/svg">
<path d="M22.75 11.0625V18.8542C22.75 19.2299 22.5788 19.5902 22.274 19.8559C21.9693 20.1216 21.556 20.2708 21.125 20.2708H5.6875C5.25652 20.2708 4.8432 20.1216 4.53845 19.8559C4.2337 19.5902 4.0625 19.2299 4.0625 18.8542V11.0625M13 5.04167C13 4.55133 12.8332 4.07201 12.5207 3.66432C12.2083 3.25662 11.7641 2.93886 11.2445 2.75122C10.7249 2.56357 10.1531 2.51448 9.60146 2.61014C9.04983 2.7058 8.54312 2.94191 8.14542 3.28863C7.74771 3.63535 7.47687 4.07709 7.36714 4.55801C7.25742 5.03892 7.31373 5.53739 7.52897 5.9904C7.7442 6.44341 8.1087 6.8306 8.57635 7.10302C9.044 7.37543 9.59381 7.52083 10.1563 7.52083H13M13 5.04167V7.52083M13 5.04167C13 4.55133 13.1668 4.07201 13.4793 3.66432C13.7917 3.25662 14.2359 2.93886 14.7555 2.75122C15.2751 2.56357 15.8469 2.51448 16.3985 2.61014C16.9502 2.7058 17.4569 2.94191 17.8546 3.28863C18.2523 3.63535 18.5231 4.07709 18.6329 4.55801C18.7426 5.03892 18.6863 5.53739 18.471 5.9904C18.2558 6.44341 17.8913 6.8306 17.4237 7.10302C16.956 7.37543 16.4062 7.52083 15.8438 7.52083H13M13 7.52083V20.2708M3.65625 11.0625H23.1563C23.829 11.0625 24.375 10.5865 24.375 10V8.58333C24.375 7.99683 23.829 7.52083 23.1563 7.52083H3.65625C2.9835 7.52083 2.4375 7.99683 2.4375 8.58333V10C2.4375 10.5865 2.9835 11.0625 3.65625 11.0625Z" stroke="#262628" stroke-width="1.5" stroke-linecap="round" stroke-linejoin="round"/>
</svg>
