<svg width="24" height="26" viewBox="0 0 24 26" fill="none" xmlns="http://www.w3.org/2000/svg">
<path d="M2.08147 5.90719L1.66975 5.34108L0.891341 5.90719L1.66975 6.47331L2.08147 5.90719ZM8.33254 10.4534L8.74426 9.88731L2.49319 5.34108L2.08147 5.90719L1.66975 6.47331L7.92082 11.0195L8.33254 10.4534ZM2.08147 5.90719L2.49319 6.47331L8.74426 1.92708L8.33254 1.36096L7.92082 0.794846L1.66975 5.34108L2.08147 5.90719ZM2.08347 5.9072V6.6072H22.5395V5.9072V5.2072H2.08347V5.9072Z" fill="#1F258D"/>
<path d="M22.5416 20.6824L22.9533 21.2485L23.7317 20.6824L22.9533 20.1163L22.5416 20.6824ZM16.2905 16.1362L15.8788 16.7023L22.1299 21.2485L22.5416 20.6824L22.9533 20.1163L16.7022 15.5701L16.2905 16.1362ZM22.5416 20.6824L22.1299 20.1163L15.8788 24.6625L16.2905 25.2286L16.7022 25.7948L22.9533 21.2485L22.5416 20.6824ZM22.5397 20.6823V19.9823L2.08165 19.9823V20.6823V21.3823L22.5397 21.3823V20.6823Z" fill="#1F258D"/>
</svg>
