<svg width="34" height="34" viewBox="0 0 34 34" fill="none" xmlns="http://www.w3.org/2000/svg">
<path d="M32.9375 9.03125C33.1841 9.03125 33.4205 8.9333 33.5949 8.75895C33.7692 8.5846 33.8672 8.34813 33.8672 8.10156V5.57812C33.8672 5.33156 33.7692 5.09509 33.5949 4.92074C33.4205 4.74639 33.1841 4.64844 32.9375 4.64844H1.0625C0.815932 4.64844 0.579462 4.74639 0.405112 4.92074C0.230761 5.09509 0.132813 5.33156 0.132812 5.57812V28.4219C0.132812 28.6684 0.230761 28.9049 0.405112 29.0793C0.579462 29.2536 0.815932 29.3516 1.0625 29.3516H32.9375C33.1841 29.3516 33.4205 29.2536 33.5949 29.0793C33.7692 28.9049 33.8672 28.6684 33.8672 28.4219V25.8984C33.8672 25.6519 33.7692 25.4154 33.5949 25.241C33.4205 25.0667 33.1841 24.9688 32.9375 24.9688C32.6205 24.9688 32.3164 24.8428 32.0923 24.6187C31.8681 24.3945 31.7422 24.0905 31.7422 23.7734C31.7422 23.4564 31.8681 23.1524 32.0923 22.9282C32.3164 22.7041 32.6205 22.5781 32.9375 22.5781C33.1841 22.5781 33.4205 22.4802 33.5949 22.3058C33.7692 22.1315 33.8672 21.895 33.8672 21.6484V19.125C33.8672 18.8784 33.7692 18.642 33.5949 18.4676C33.4205 18.2933 33.1841 18.1953 32.9375 18.1953C32.6205 18.1953 32.3164 18.0694 32.0923 17.8452C31.8681 17.621 31.7422 17.317 31.7422 17C31.7422 16.683 31.8681 16.379 32.0923 16.1548C32.3164 15.9306 32.6205 15.8047 32.9375 15.8047C33.1841 15.8047 33.4205 15.7067 33.5949 15.5324C33.7692 15.358 33.8672 15.1216 33.8672 14.875V12.3516C33.8672 12.105 33.7692 11.8685 33.5949 11.6942C33.4205 11.5198 33.1841 11.4219 32.9375 11.4219C32.6205 11.4219 32.3164 11.2959 32.0923 11.0718C31.8681 10.8476 31.7422 10.5436 31.7422 10.2266C31.7422 9.90955 31.8681 9.60551 32.0923 9.38135C32.3164 9.15718 32.6205 9.03125 32.9375 9.03125ZM32.0078 7.31638C31.3909 7.51357 30.8525 7.90173 30.4706 8.42482C30.0886 8.94791 29.8827 9.57886 29.8827 10.2266C29.8827 10.8743 30.0886 11.5052 30.4706 12.0283C30.8525 12.5514 31.3909 12.9396 32.0078 13.1368V14.0898C31.3909 14.287 30.8525 14.6752 30.4706 15.1983C30.0886 15.7213 29.8827 16.3523 29.8827 17C29.8827 17.6477 30.0886 18.2787 30.4706 18.8017C30.8525 19.3248 31.3909 19.713 32.0078 19.9102V20.8632C31.3909 21.0604 30.8525 21.4486 30.4706 21.9717C30.0886 22.4948 29.8827 23.1257 29.8827 23.7734C29.8827 24.4211 30.0886 25.0521 30.4706 25.5752C30.8525 26.0983 31.3909 26.4864 32.0078 26.6836V27.4922H22.7109V26.2969C22.7109 26.0503 22.613 25.8138 22.4386 25.6395C22.2643 25.4651 22.0278 25.3672 21.7812 25.3672C21.5347 25.3672 21.2982 25.4651 21.1239 25.6395C20.9495 25.8138 20.8516 26.0503 20.8516 26.2969V27.4922H1.99219V6.50781H20.8516V7.70312C20.8516 7.94969 20.9495 8.18616 21.1239 8.36051C21.2982 8.53486 21.5347 8.63281 21.7812 8.63281C22.0278 8.63281 22.2643 8.53486 22.4386 8.36051C22.613 8.18616 22.7109 7.94969 22.7109 7.70312V6.50781H32.0078V7.31638Z" fill="#262628"/>
<path d="M21.7812 10.4922C21.5347 10.4922 21.2982 10.5901 21.1239 10.7645C20.9495 10.9388 20.8516 11.1753 20.8516 11.4219V15.1406C20.8516 15.3872 20.9495 15.6237 21.1239 15.798C21.2982 15.9724 21.5347 16.0703 21.7812 16.0703C22.0278 16.0703 22.2643 15.9724 22.4386 15.798C22.613 15.6237 22.7109 15.3872 22.7109 15.1406V11.4219C22.7109 11.1753 22.613 10.9388 22.4386 10.7645C22.2643 10.5901 22.0278 10.4922 21.7812 10.4922Z" fill="#262628"/>
<path d="M21.7812 17.9297C21.5347 17.9297 21.2982 18.0276 21.1239 18.202C20.9495 18.3763 20.8516 18.6128 20.8516 18.8594V22.5781C20.8516 22.8247 20.9495 23.0612 21.1239 23.2355C21.2982 23.4099 21.5347 23.5078 21.7812 23.5078C22.0278 23.5078 22.2643 23.4099 22.4386 23.2355C22.613 23.0612 22.7109 22.8247 22.7109 22.5781V18.8594C22.7109 18.6128 22.613 18.3763 22.4386 18.202C22.2643 18.0276 22.0278 17.9297 21.7812 17.9297Z" fill="#262628"/>
<path d="M25.5 11.5547H27.0938C27.3403 11.5547 27.5768 11.4567 27.7511 11.2824C27.9255 11.108 28.0234 10.8716 28.0234 10.625C28.0234 10.3784 27.9255 10.142 27.7511 9.96761C27.5768 9.79326 27.3403 9.69531 27.0938 9.69531H25.5C25.2534 9.69531 25.017 9.79326 24.8426 9.96761C24.6683 10.142 24.5703 10.3784 24.5703 10.625C24.5703 10.8716 24.6683 11.108 24.8426 11.2824C25.017 11.4567 25.2534 11.5547 25.5 11.5547Z" fill="#262628"/>
<path d="M25.5 15.8047H27.0938C27.3403 15.8047 27.5768 15.7067 27.7511 15.5324C27.9255 15.358 28.0234 15.1216 28.0234 14.875C28.0234 14.6284 27.9255 14.392 27.7511 14.2176C27.5768 14.0433 27.3403 13.9453 27.0938 13.9453H25.5C25.2534 13.9453 25.017 14.0433 24.8426 14.2176C24.6683 14.392 24.5703 14.6284 24.5703 14.875C24.5703 15.1216 24.6683 15.358 24.8426 15.5324C25.017 15.7067 25.2534 15.8047 25.5 15.8047Z" fill="#262628"/>
<path d="M25.5 20.0547H27.0938C27.3403 20.0547 27.5768 19.9567 27.7511 19.7824C27.9255 19.608 28.0234 19.3716 28.0234 19.125C28.0234 18.8784 27.9255 18.642 27.7511 18.4676C27.5768 18.2933 27.3403 18.1953 27.0938 18.1953H25.5C25.2534 18.1953 25.017 18.2933 24.8426 18.4676C24.6683 18.642 24.5703 18.8784 24.5703 19.125C24.5703 19.3716 24.6683 19.608 24.8426 19.7824C25.017 19.9567 25.2534 20.0547 25.5 20.0547Z" fill="#262628"/>
<path d="M25.5 24.3047H27.0938C27.3403 24.3047 27.5768 24.2067 27.7511 24.0324C27.9255 23.858 28.0234 23.6216 28.0234 23.375C28.0234 23.1284 27.9255 22.892 27.7511 22.7176C27.5768 22.5433 27.3403 22.4453 27.0938 22.4453H25.5C25.2534 22.4453 25.017 22.5433 24.8426 22.7176C24.6683 22.892 24.5703 23.1284 24.5703 23.375C24.5703 23.6216 24.6683 23.858 24.8426 24.0324C25.017 24.2067 25.2534 24.3047 25.5 24.3047Z" fill="#262628"/>
<path d="M14.3438 8.36719H8.5C7.40844 8.36845 6.36195 8.80263 5.59011 9.57448C4.81826 10.3463 4.38408 11.3928 4.38281 12.4844V23.1094C4.38281 23.3559 4.48076 23.5924 4.65511 23.7668C4.82946 23.9411 5.06593 24.0391 5.3125 24.0391H5.97656V24.7031C5.97656 24.9497 6.07451 25.1862 6.24886 25.3605C6.42321 25.5349 6.65968 25.6328 6.90625 25.6328C7.15282 25.6328 7.38929 25.5349 7.56364 25.3605C7.73799 25.1862 7.83594 24.9497 7.83594 24.7031V24.0391H15.0078V24.7031C15.0078 24.9497 15.1058 25.1862 15.2801 25.3605C15.4545 25.5349 15.6909 25.6328 15.9375 25.6328C16.1841 25.6328 16.4205 25.5349 16.5949 25.3605C16.7692 25.1862 16.8672 24.9497 16.8672 24.7031V24.0391H17.5312C17.7778 24.0391 18.0143 23.9411 18.1886 23.7668C18.363 23.5924 18.4609 23.3559 18.4609 23.1094V12.4844C18.4597 11.3928 18.0255 10.3463 17.2536 9.57448C16.4818 8.80263 15.4353 8.36845 14.3438 8.36719ZM16.6016 18.4609H15.4062C15.1597 18.4609 14.9232 18.5589 14.7489 18.7332C14.5745 18.9076 14.4766 19.1441 14.4766 19.3906C14.4766 19.6372 14.5745 19.8737 14.7489 20.048C14.9232 20.2224 15.1597 20.3203 15.4062 20.3203H16.6016V22.1797H6.24219V20.3203H7.4375C7.68407 20.3203 7.92054 20.2224 8.09489 20.048C8.26924 19.8737 8.36719 19.6372 8.36719 19.3906C8.36719 19.1441 8.26924 18.9076 8.09489 18.7332C7.92054 18.5589 7.68407 18.4609 7.4375 18.4609H6.24219V16.6016H16.6016V18.4609ZM16.6016 14.7422H6.24219V12.4844C6.24289 11.8858 6.48099 11.3119 6.90426 10.8886C7.32753 10.4654 7.90141 10.2273 8.5 10.2266H14.3438C14.9423 10.2273 15.5162 10.4654 15.9395 10.8886C16.3628 11.3119 16.6009 11.8858 16.6016 12.4844V14.7422Z" fill="#262628"/>
</svg>
