<svg width="31" height="31" viewBox="0 0 31 31" fill="none" xmlns="http://www.w3.org/2000/svg">
<path d="M26.5573 17.5015L25.342 16.4513L25.3429 15.5334C25.3429 15.5334 25.3429 15.5334 25.3429 15.5325L25.342 14.6147L26.5582 13.5644C27.5993 12.6638 27.8569 11.1447 27.1676 9.95116L25.8118 7.60216C25.1225 6.40862 23.6768 5.8708 22.3771 6.32427L20.8489 6.85484L19.269 5.93066L18.967 4.35438C18.7067 3.00212 17.5195 2.0199 16.1419 2.0199H13.4301C12.0515 2.0199 10.8643 3.00212 10.6059 4.35529L10.3038 5.93157L8.72303 6.85484L7.19573 6.32427C5.89426 5.87261 4.4504 6.40953 3.76112 7.60216L2.40432 9.95116C1.71504 11.1438 1.97171 12.6638 3.0147 13.5654L4.23001 14.6156L4.2291 15.5352L4.23001 16.4531L3.0147 17.5033C1.97171 18.4039 1.71504 19.924 2.40432 21.1166L3.76021 23.4647C4.44949 24.6573 5.89335 25.1951 7.19482 24.7435L8.72303 24.2129L10.3038 25.1371L10.6059 26.7134C10.8643 28.0665 12.0524 29.0488 13.4301 29.0488H16.1419C17.5195 29.0488 18.7067 28.0665 18.9661 26.7134L19.2681 25.1371L20.848 24.2129L22.3762 24.7435C23.6759 25.1951 25.1207 24.6591 25.8108 23.4656L27.1667 21.1166C27.856 19.9231 27.6003 18.403 26.5573 17.5015ZM25.7537 20.2994L24.3978 22.6484C24.1003 23.1636 23.4745 23.3967 22.9131 23.2008L21.0303 22.546C20.8027 22.468 20.5569 22.4915 20.3501 22.6122L18.1245 23.9127C17.9204 24.0315 17.7789 24.2329 17.7345 24.4641L17.3635 26.4041C17.2511 26.9891 16.7377 27.4135 16.1419 27.4135H13.4301C12.8342 27.4135 12.3209 26.9891 12.2084 26.4041L11.8375 24.4632C11.7931 24.232 11.6507 24.0306 11.4475 23.9118L9.22185 22.6113C9.09579 22.5369 8.9534 22.4997 8.8101 22.4997C8.7194 22.4997 8.62962 22.5151 8.54255 22.545L6.65972 23.2008C6.09651 23.3958 5.47253 23.1645 5.17505 22.6484L3.81826 20.2994C3.52078 19.7843 3.63142 19.1268 4.08218 18.7377L5.58046 17.4435C5.76003 17.2884 5.86342 17.0625 5.86342 16.8249L5.86252 15.5352L5.86342 14.2437C5.86342 14.0061 5.76094 13.7803 5.58046 13.6252L4.08218 12.331C3.63142 11.941 3.52078 11.2844 3.81826 10.7683L5.17505 8.41933C5.47162 7.90236 6.0947 7.67019 6.65972 7.86609L8.54255 8.5209C8.76838 8.5989 9.01598 8.57532 9.22276 8.4547L11.4484 7.15413C11.6516 7.03532 11.794 6.83398 11.8384 6.60271L12.2093 4.66184C12.3218 4.07686 12.8351 3.6524 13.431 3.6524H16.1428C16.7377 3.6524 17.252 4.07686 17.3644 4.66184L17.7354 6.60271C17.7798 6.83398 17.9213 7.03532 18.1254 7.15413L20.351 8.4547C20.5578 8.57532 20.8036 8.5989 21.0312 8.5209L22.9141 7.86609C23.4755 7.67019 24.1013 7.90327 24.3987 8.41842L25.7546 10.7674C26.0521 11.2826 25.9414 11.9401 25.4916 12.3292L23.9933 13.6234C23.8137 13.7785 23.7094 14.0043 23.7094 14.2419V15.5334L23.7085 16.8249C23.7085 17.0625 23.8119 17.2875 23.9924 17.4435L25.4898 18.7377C25.9405 19.1268 26.0512 19.7843 25.7537 20.2994Z" fill="#262628"/>
<path d="M14.7864 9.04871C11.2112 9.04871 8.30176 11.9582 8.30176 15.5334C8.30176 19.1086 11.2112 22.0181 14.7864 22.0181C18.3616 22.0181 21.2711 19.1086 21.2711 15.5334C21.2711 11.9582 18.3616 9.04871 14.7864 9.04871ZM12.3821 19.7226C12.9952 19.0578 13.8623 18.6615 14.7864 18.6615C15.7115 18.6615 16.5786 19.0578 17.1908 19.7226C16.4788 20.1325 15.6653 20.3856 14.7864 20.3856C13.9076 20.3856 13.0941 20.1325 12.3821 19.7226ZM14.7864 17.028C13.962 17.028 13.2918 16.3569 13.2918 15.5334C13.2918 14.7099 13.9629 14.0387 14.7864 14.0387C15.6109 14.0387 16.2811 14.7099 16.2811 15.5334C16.2811 16.3569 15.6109 17.028 14.7864 17.028ZM18.446 18.6841C18.0605 18.2506 17.6052 17.8915 17.0992 17.6203C17.5998 17.0652 17.9145 16.3388 17.9145 15.5343C17.9145 13.8102 16.5105 12.4071 14.7864 12.4071C13.0623 12.4071 11.6593 13.8093 11.6593 15.5334C11.6593 16.3378 11.9731 17.0652 12.4737 17.6194C11.9676 17.8905 11.5124 18.2497 11.1269 18.6841C10.3941 17.8334 9.93426 16.7414 9.93426 15.5334C9.93426 12.8579 12.1109 10.6812 14.7864 10.6812C17.4619 10.6812 19.6386 12.8579 19.6386 15.5334C19.6386 16.7414 19.1788 17.8334 18.446 18.6841Z" fill="#262628"/>
</svg>
