<svg width="30" height="30" viewBox="0 0 30 30" fill="none" xmlns="http://www.w3.org/2000/svg">
<path d="M24.2208 14.2159C24.2208 14.8407 23.7113 15.349 23.0851 15.349C22.4588 15.349 21.9493 14.8407 21.9493 14.2159C21.9493 13.5911 22.4588 13.0844 23.0851 13.0844C23.7113 13.0844 24.2208 13.592 24.2208 14.2159ZM29.5312 14.4697C29.5312 18.2966 26.3109 21.462 24.18 23.5566C24.0155 23.7183 23.8564 23.8746 23.7047 24.0255C23.5333 24.1959 23.3092 24.281 23.0851 24.281C22.8609 24.281 22.6369 24.1958 22.4654 24.0255C22.3137 23.8746 22.1546 23.7182 21.9901 23.5566C19.8592 21.462 16.6389 18.2966 16.6389 14.4697C16.6389 10.9201 19.5306 8.03225 23.0851 8.03225C26.6395 8.03225 29.5312 10.9201 29.5312 14.4697ZM25.9786 14.2159C25.9786 12.6227 24.6806 11.3266 23.0851 11.3266C21.4895 11.3266 20.1915 12.6227 20.1915 14.2159C20.1915 15.809 21.4895 17.1068 23.0851 17.1068C24.6806 17.1068 25.9786 15.8099 25.9786 14.2159ZM23.964 26.4095C23.964 25.9241 23.5704 25.5306 23.0851 25.5306H15.0115C13.9075 25.5306 12.4798 25.3793 11.9476 24.6588C11.3115 23.7976 11.8469 22.0572 12.3647 20.3741C12.9606 18.437 13.5768 16.434 12.5619 15.06C11.9273 14.2009 10.8049 13.7832 9.13049 13.7832H4.44516C3.95977 13.7832 3.56625 14.1767 3.56625 14.6621C3.56625 15.1475 3.95977 15.541 4.44516 15.541H9.13049C9.86104 15.541 10.8041 15.6388 11.148 16.1044C11.6359 16.7649 11.1305 18.4078 10.6846 19.8572C10.0386 21.9571 9.37066 24.1285 10.5337 25.7032C11.3217 26.7699 12.7864 27.2884 15.0117 27.2884H23.0852C23.5706 27.2884 23.9641 26.8949 23.9641 26.4095L23.964 26.4095ZM8.42156 6.68342C8.42156 8.97959 6.55729 10.811 5.32365 12.0229C5.234 12.1109 5.14728 12.1962 5.06443 12.2784C4.89311 12.4485 4.6691 12.5336 4.44516 12.5336C4.22121 12.5336 3.9968 12.4483 3.82541 12.2779C3.74104 12.194 3.65262 12.107 3.56121 12.0171C2.32975 10.8063 0.46875 8.97631 0.46875 6.68342C0.46875 4.49295 2.25258 2.71094 4.44516 2.71094C6.63773 2.71094 8.42156 4.49301 8.42156 6.68342ZM5.32377 6.68342C5.32377 6.20072 4.93014 5.80592 4.44516 5.80592C3.96018 5.80592 3.56654 6.20072 3.56654 6.68342C3.56654 7.16611 3.96182 7.56256 4.44516 7.56256C4.9285 7.56256 5.32377 7.16775 5.32377 6.68342Z" fill="#262628"/>
</svg>
